<?xml version="1.0" standalone="no"?>
<!DOCTYPE svg PUBLIC "-//W3C//DTD SVG 1.1//EN" "http://www.w3.org/Graphics/SVG/1.1/DTD/svg11.dtd" >
<svg>
<metadata>
Created by FontForge 20090622 at Mon Nov 11 05:51:34 2019
 By deploy user
Copyright (c) 2019 by UID FONT. All rights reserved.
</metadata>
<defs>
<font id="UIDSALMON2019" horiz-adv-x="0" >
  <font-face 
    font-family="UID SALMON 2019"
    font-weight="400"
    font-stretch="normal"
    units-per-em="1000"
    panose-1="0 0 0 0 0 0 0 0 0 0"
    ascent="800"
    descent="-200"
    x-height="471"
    cap-height="493"
    bbox="-514.143 -394 927.235 768"
    underline-thickness="35"
    underline-position="-74"
    unicode-range="U+0020-U+F882"
  />
<missing-glyph horiz-adv-x="569" 
d="M30 0v628h509v-628h-509zM76 46h417v536h-417v-536z" />
    <glyph glyph-name="uni201C" unicode="&#x2018;&#x2018;" horiz-adv-x="214" 
d="M120 416q-11 11 -7.5 28.5t7.5 29.5q6 17 14 33t16 30q2 7 10 9.5t14 3.5h4.5t7 -1t5.5 -2.5t0 -4.5q-1 -3 -4.5 -10l-8 -16.5t-8.5 -20t-6 -19.5q9 -2 17.5 -5.5t10.5 -14.5q2 -14 -8 -24.5t-18 -15.5q-10 -5 -26 -5q-14 0 -20 5zM21 416q-11 11 -8 28.5t8 29.5
q6 17 13 33t18 30q2 7 9.5 9.5t13.5 3.5h4.5t7 -1t5.5 -2.5t0 -4.5t-5.5 -10l-8 -16.5t-8.5 -20t-7 -19.5q11 -2 19.5 -5.5t10.5 -14.5q2 -14 -8 -24.5t-18 -15.5q-10 -5 -26 -5q-14 0 -20 5z" />
    <glyph glyph-name="uni201D" unicode="&#x2019;&#x2019;" horiz-adv-x="199" 
d="M85 549q10 -11 7 -28t-7 -29q-6 -17 -13 -34t-16 -31q-2 -7 -9 -9.5t-13 -3.5h-4t-6 1t-5 2.5t0 4.5q1 3 4.5 10t7 17l7.5 20.5t6 20.5q-9 2 -16.5 5.5t-9.5 14.5q-2 14 7 24.5t17 15.5q7 5 23 5q5 0 10.5 -1t9.5 -5zM177 549q10 -11 7 -28t-7 -29q-6 -17 -13 -34
t-16 -31q-2 -7 -9 -9.5t-13 -3.5h-4t-6 1t-5 2.5t0 4.5q1 3 4.5 10t7 17l7.5 20.5t6 20.5q-9 2 -16.5 5.5t-9.5 14.5q-2 14 7 24.5t17 15.5q7 5 23 5q5 0 10.5 -1t9.5 -5z" />
    <glyph glyph-name="uniF881" unicode="&#xe24;&#xe32;" horiz-adv-x="475" 
d="M421 438q17 -25 24.5 -66t9.5 -90.5t-1 -103.5t-8 -105t-10.5 -94.5t-8.5 -72.5q0 -5 -6 -10t-14 -9.5t-17 -7.5t-17 -3q-15 0 -15 12q5 29 10 69.5t9.5 87t8 95t4.5 94t-1 84.5t-9 66q-20 -20 -35 -51t-21 -57q-5 -5 -16 -5q-7 0 -11 1q2 -47 0 -100.5t-5 -105l-6 -98.5
t-2 -82q0 -5 -6 -10.5t-15 -10.5t-18.5 -8.5t-16.5 -3.5q-10 0 -11 7q-2 14 2 59l9 104.5t7.5 124.5t-3 120t-22 90.5t-49.5 35.5q-17 0 -41 -12q-24 -13 -33 -21.5t-8.5 -13.5t8 -8.5t17 -7t18.5 -7.5t12 -11t-0.5 -28.5t-9.5 -48.5l-13 -57t-10 -55t-0.5 -41.5t14.5 -17.5
q3 3 6 6.5t6 9.5h4q11 0 22.5 -8t9.5 -17q-5 -26 -25 -37.5t-44 -11.5q-18 2 -28.5 10t-16 21t-7 29t-1.5 34q0 50 10.5 93t23.5 88q-10 4 -24.5 5.5t-25.5 5.5t-16.5 12t1.5 25q10 22 30 43t44.5 37.5t52 27t52.5 10.5q24 0 45.5 -9.5t35.5 -30.5q14 -25 20 -64q6 15 17 33
t25.5 33t32 25t36.5 10q13 0 20 -7z" />
    <glyph glyph-name="uniF882" unicode="&#xe26;&#xe32;" horiz-adv-x="500" 
d="M440 422q17 -25 24.5 -66t9.5 -90.5t-1 -103.5t-8 -105t-10.5 -94.5t-8.5 -72.5q0 -5 -6 -10t-14 -9.5t-17 -7.5t-17 -3q-15 0 -15 12q5 29 10 69.5t9.5 87t8 95t4.5 94t-1 84.5t-9 66q-20 -20 -35 -51t-21 -57q-5 -5 -16 -5q-3 0 -5.5 0.5t-5.5 0.5q1 -12 1 -24t1 -23
q1 -25 1.5 -70.5t0 -95.5t-2 -95.5t-4.5 -70.5q-1 -4 -6.5 -8t-13 -7.5t-16 -5.5t-15.5 -2q-9 0 -12 5l2 34t3.5 86t2 114.5t-4 120t-14 103t-26.5 62.5q-11 11 -23 18.5t-27 7.5q-18 0 -39 -11q-7 -4 -20.5 -15.5t-21.5 -24.5t-7 -23t22 -10h7q14 1 22 -14t11 -38.5
t3 -51.5t-2 -54.5t-4.5 -46.5t-4.5 -27q-7 -35 -25.5 -60.5t-58.5 -25.5q-23 2 -33 14.5t-15 46.5q-1 5 11.5 9.5t23.5 4.5q12 0 12 -5q1 -16 15 -16q3 3 6.5 20.5t7 42t5.5 52.5t0.5 51.5t-6.5 39t-16 14.5q-6 0 -14.5 -1.5t-16.5 -1.5t-13.5 3t-4.5 13q3 33 17 62
t36.5 51.5t52 35.5t63.5 13q29 0 51 -10t38.5 -27.5t27 -40t16.5 -48.5q5 16 16 34t26 33.5t32.5 25.5t36.5 10q13 0 20 -7z" />
    <glyph glyph-name="uni00A9" unicode="&#x3b;&#x3b;For&#x20;Education&#x20;Used&#x20;Only&#x3b;&#x3b;" horiz-adv-x="446" 
d="M398 423q10 -18 17 -40t10 -46t2 -47t-6 -43q-10 -33 -31.5 -60.5t-50 -46.5t-62 -29.5t-67.5 -10.5q-29 0 -56 9t-51 29q-35 29 -48.5 72.5t-5.5 87.5q7 37 27.5 67.5t49 53t63.5 36t71 15.5q4 0 7 0.5t7 0.5q32 0 57.5 -11.5t42.5 -30.5q8 0 15 -1t9 -5zM291 148
q32 11 46 35t17 54.5t-1 65t-9 64.5q-11 29 -33.5 50t-60.5 23q-25 0 -47 -9t-39 -24.5t-28 -36.5t-15 -45q-4 -31 3.5 -63.5t25.5 -59t44.5 -43.5t59.5 -17q18 0 37 6zM274 272q3 6 14 6q10 0 19.5 -4t10.5 -10q2 -28 -18.5 -41t-48.5 -13q-16 0 -33 4.5t-31.5 12.5
t-24 20.5t-11.5 27.5q-2 28 10 53.5t36 40.5q20 14 47 14q20 0 36.5 -9.5t24.5 -29.5q2 -6 -7 -6q-8 0 -18 3.5t-12 6.5q-4 4 -9 8.5t-10 6.5l2 1q-1 0 -6 -4q-11 -7 -18 -18q-8 -12 -12.5 -27t-0.5 -30q3 -16 12 -29.5t23 -21.5h2q2 1 3 2.5t3 3.5q6 7 10 15.5t7 16.5z" />
    <glyph glyph-name="uni00AE" unicode="&#x3b;&#x3b;Registered&#x3b;&#x3b;" horiz-adv-x="486" 
d="M430 397q12 -21 19.5 -47t11 -54t3 -55.5t-6.5 -50.5q-11 -38 -37 -69.5t-60 -54t-73.5 -35t-78.5 -12.5q-33 0 -64.5 10.5t-59.5 34.5q-20 17 -34.5 38.5t-22.5 46t-9.5 50.5t2.5 51q8 44 31.5 80t57.5 62.5t74.5 42t83.5 18.5q4 0 7.5 0.5t7.5 0.5q38 0 68.5 -13.5
t50.5 -36.5q5 0 15 -1t14 -6zM303 75q38 12 54.5 40.5t20 64.5t-1 75.5t-10.5 75.5q-13 41 -42 63t-72 22q-28 0 -53 -10.5t-44.5 -29t-32.5 -43t-18 -51.5q-5 -36 4 -74t30 -69t52 -51t69 -20q23 0 44 7zM264 224q20 -11 38.5 -25.5t32.5 -31.5q4 -6 -4.5 -8.5t-19.5 -2.5
q-9 0 -17 1t-10 2q-15 7 -29.5 16.5l-28.5 19.5q1 -10 2 -19t3 -19q0 -6 -9.5 -9t-20.5 -3t-20.5 2.5t-11.5 6.5q-9 21 -12 46t-2.5 51.5t4 52.5t7.5 48q1 5 16 5q5 0 11.5 -1t11.5 -3q6 1 12 1.5t13 0.5q26 0 49.5 -9.5t28.5 -35.5q6 -27 -8.5 -49.5t-35.5 -36.5zM240 284
q3 18 -2 33q-4 14 -11 14q-1 0 -9 -2q2 -19 1.5 -39t1.5 -40v-4q15 16 19 38z" />
    <glyph glyph-name="uni2122" unicode="&#x3b;&#x3b;Trademark&#x3b;&#x3b;" horiz-adv-x="695" 
d="M319 418q4 -6 3 -10.5t-4.5 -8t-8 -5.5t-7.5 -2q-21 -8 -43 -14.5t-44 -11.5q1 -1 1 -2q1 -2 1 -6q4 -37 6 -72.5t4.5 -70t8 -69.5t15.5 -70q2 -6 -3.5 -13t-15.5 -13.5t-22.5 -10.5t-23.5 -4q-9 0 -16 3.5t-9 11.5q-17 71 -22 147t-1 150q-20 -6 -38.5 -13.5
t-38.5 -13.5h-3q-7 0 -18.5 4t-20.5 9.5t-11 11t10 9.5l122 39t124 33q5 1 10 1.5t10 0.5q9 0 18 -2t17 -8zM652 256q2 -48 8 -94t10 -94q1 -14 -15.5 -21t-33.5 -7q-12 0 -21 3t-12 10q-14 43 -17.5 91.5t-5.5 96.5q0 11 -0.5 25t-3.5 28q-10 -20 -18.5 -39.5t-18.5 -39.5
q-4 -10 -17 -10q-11 0 -23.5 6t-16.5 12q-14 17 -26 35.5l-23 35.5q-2 -54 -2.5 -107.5t-2.5 -110.5q0 -9 -14 -9q-12 0 -27 7t-16 17q-15 74 -16.5 151t3.5 154q2 15 15.5 21.5t27.5 6.5q11 0 19.5 -2.5t12.5 -7.5q23 -23 43.5 -48.5t35.5 -60.5l31.5 67t29.5 69q3 8 14 13
t25 5t25 -5.5t13 -16.5q7 -45 9.5 -90t7.5 -91z" />
    <glyph glyph-name="uni00D7" unicode="&#x3b;&#x3b;Multiply&#x3b;&#x3b;" horiz-adv-x="366" 
d="M272 466q3 4 10.5 7.5t16 6.5t17.5 4.5t16 1.5q8 0 12 -3t-1 -9l-66 -89.5t-59 -89.5q29 -41 56 -86.5t45 -92.5q3 -4 -3.5 -8.5t-16.5 -8.5t-21 -6t-19 -2t-10 2q-29 29 -48.5 63t-36.5 69q-12 -17 -23.5 -35t-23.5 -35q-5 -5 -13.5 -7t-18.5 -2q-17 0 -29.5 4.5
t-9.5 11.5l46 59.5t41 58.5q-47 89 -118 171q-7 7 3.5 10t25.5 3q10 0 19 -1.5t14 -3.5q30 -23 57.5 -52t44.5 -58l46.5 58.5z" />
    <glyph glyph-name="uni00F7" unicode="&#x3b;&#x3b;Divide&#x3b;&#x3b;" horiz-adv-x="372" 
d="M35 241q-6 1 -8 9.5t-2 18t3 18t7 9.5q38 11 76.5 14t77.5 7l69 7.5t48 2.5h15.5t15.5 -1q6 -1 9.5 -9t5 -18t0 -18t-6.5 -10q-35 -12 -76.5 -14t-79.5 -7q-78 -9 -154 -9zM210 428q9 -7 16.5 -16t7.5 -20q2 -20 -16.5 -28.5t-34.5 -10.5q-5 -1 -15 -1q-24 0 -40 13
q-9 7 -14.5 17t-0.5 19q2 7 8 11.5l13 9.5q2 2 4.5 3t4.5 3q7 5 17 7t20 2q9 0 18.5 -2t11.5 -7zM210 214q9 -7 16.5 -16t7.5 -20q2 -20 -16.5 -28.5t-34.5 -10.5q-5 -1 -15 -1q-24 0 -40 13q-9 7 -14.5 17t-0.5 19q2 7 8 11.5l13 9.5q2 2 4.5 3t4.5 3q7 5 17 7t20 2
q9 0 18.5 -1t11.5 -8z" />
    <glyph glyph-name=".notdef" horiz-adv-x="569" 
d="M30 0v628h509v-628h-509zM76 46h417v536h-417v-536z" />
    <glyph glyph-name=".null" 
 />
    <glyph glyph-name="nonmarkingreturn" horiz-adv-x="283" 
 />
    <glyph glyph-name="uni0020" unicode=" " horiz-adv-x="246" 
 />
    <glyph glyph-name="uni0021" unicode="!" horiz-adv-x="161" 
d="M73 66q8 -4 16 -11t10 -18q2 -9 3 -18.5t3 -18.5q0 -5 -3.5 -6t-7.5 -1q-9 0 -17 5q-8 4 -16 11.5t-10 17.5l-2 18.5t-3 18.5q-1 4 2.5 5.5t5.5 1.5q10 0 19 -5zM65 472q0 7 9 7q6 0 14 -3.5t15 -8.5t11.5 -11t3.5 -11q-24 -170 -18 -342q0 -7 -8 -7q-5 0 -13 3t-15 8
t-12 11t-5 12q-6 172 18 342z" />
    <glyph glyph-name="uni0022" unicode="&#x22;" horiz-adv-x="281" 
d="M114 479q-12 -12 -28 -12q-23 0 -43.5 19t-21.5 42q-1 19 5.5 39.5l12.5 38.5q7 21 15.5 42t17.5 41q3 4 9 4t14 -4t15 -10t11 -12.5t1 -12.5q-15 -32 -27 -64t-20 -66q7 -2 15 -8t15 -12.5t10 -13.5t-1 -11zM241 479q-12 -12 -29 -12q-23 0 -43 19t-21 42q-2 19 5 39.5
l13 38.5q14 44 33 83q3 4 9 4t14 -4t15 -10t11 -12.5t1 -12.5q-15 -32 -27 -64t-20 -66q7 -2 15 -8t15 -12.5t10 -13.5t-1 -11z" />
    <glyph glyph-name="uni0023" unicode="#" horiz-adv-x="503" 
d="M433 314q8 -1 15 -10t10.5 -19.5t2 -19t-10.5 -8.5q-17 2 -28.5 3l-23 2t-24.5 2t-34 2q-5 -17 -9.5 -34t-9.5 -34q14 -1 20 -1.5t11 -1.5l10.5 -2t17.5 -2q8 0 15 -9t10.5 -19.5t1.5 -19t-11 -8.5q-15 1 -24 2l-17.5 2t-19 2t-28.5 2l-17 -67.5l-15 -62.5q-2 -8 -10 -8
q-6 0 -13 4t-13 10.5t-10 13.5t-3 13q5 23 11 48t13 51q-17 1 -35 1t-36 1q-11 -40 -19.5 -77.5l-16.5 -71.5q-3 -8 -10 -8q-6 0 -13.5 4t-13.5 10t-9.5 13t-2.5 13l13 56.5l15 60.5q-27 0 -54.5 -0.5t-54.5 -1.5q-9 0 -16.5 8.5t-12 19t-4 19.5t7.5 9q25 2 52 2h56h41
l18 66q-23 0 -45.5 -0.5t-42.5 -1.5q-9 0 -16.5 8.5t-12 19t-4.5 19.5t7 9q25 2 52 2h56h23l20 65t20 59q1 5 7 5t13.5 -4.5t14 -11t10 -14.5t1.5 -15q-7 -20 -13.5 -41t-14.5 -44q17 0 34.5 -0.5t34.5 -0.5q11 38 22.5 74l22.5 68q1 4 7 4t13.5 -4.5t14 -11t10.5 -14.5
t1 -15l-16.5 -49.5t-16.5 -54.5q16 0 24.5 -1t15.5 -1.5t15 -1.5t21 -2zM264 200q5 17 9.5 34t9.5 34q-17 0 -34.5 0.5t-34.5 0.5l-10 -33.5l-10 -33.5q18 0 35.5 -0.5t34.5 -1.5z" />
    <glyph glyph-name="uni0024" unicode="$" horiz-adv-x="477" 
d="M397 165q15 -18 18 -39t-15 -39q-9 -9 -20.5 -15t-24.5 -9t-27 -4.5t-26 -3.5q-9 -25 -15.5 -49.5l-13.5 -48.5q-1 -6 -8 -6t-16.5 5t-18 12.5t-13.5 16t-4 15.5q4 12 7 24l6 25q-12 -1 -24 -1h-25h-16l-24 -81q-1 -5 -9 -5q-7 0 -16.5 5t-17.5 12.5t-13.5 16t-3.5 14.5
l6 21l6 20l-22 2l-22 2q-13 2 -25 12t-17 19q-4 6 -5 15t10 9h3q23 -3 47 -4.5t47 -2.5q7 21 13.5 42.5l12.5 42.5q-18 8 -34 17.5t-27 22.5t-15.5 28.5t0.5 33.5q6 18 20 33t32.5 26.5t40.5 20t43 14.5l18 57t17 56q2 6 9 6t16.5 -5.5t17.5 -13t13.5 -16t3.5 -14.5
q-5 -14 -9 -29t-9 -29q10 1 19.5 1h19.5h10l10 39.5l10 39.5q1 5 8 5t16.5 -5t18 -12.5t14 -16t3.5 -14.5q-2 -10 -5 -19.5t-5 -19.5q10 -1 20 -1.5t20 -1.5q9 0 20 -9t18.5 -19t8 -18.5t-12.5 -7.5q-22 2 -43.5 3l-44.5 2l-17.5 -69l-17.5 -69q35 -12 59 -39zM302 340
q-25 -1 -53 -8l-18 -57t-17 -57q14 -1 27.5 -1.5t27.5 -2.5zM111 236q5 -3 14 -5l18 -4l11.5 36l10.5 36q-19 -11 -34 -26q-5 -5 -9 -11t-6 -12q-1 -3 -1.5 -9t-3.5 -5zM178 103q16 1 31.5 1.5t31.5 2.5q4 14 7.5 28t7.5 28q-14 1 -28.5 3l-28.5 4zM316 120q12 4 23 11.5
t14 18.5q-5 3 -11.5 5t-11.5 3z" />
    <glyph glyph-name="uni0025" unicode="%" horiz-adv-x="453" 
d="M403 533q9 1 17.5 -7t13.5 -19.5t6 -23.5t-6 -19l-60 -65.5l-71.5 -81l-76 -89l-75 -90l-68.5 -84t-55 -70.5q-3 -6 -9 -6q-7 0 -14.5 8t-12 19t-6 22t3.5 18l56.5 72l69 85l76.5 91.5l77.5 90.5l72 82.5zM200 415q0 -7 -2.5 -13t-6.5 -11q3 -8 -4 -12q-20 -12 -40.5 -26
t-42.5 -22q-11 -4 -23 -4q-15 0 -29 5.5t-26 13.5q-32 23 -32 55t31 55q35 27 78 27q30 0 57 -15q15 -8 28 -22t12 -31zM58 377q11 5 20.5 10.5t19.5 12.5q0 3 5 6q9 5 17 12t12 17q-4 6 -13 6q-27 0 -43 -19.5t-18 -44.5zM428 119q-2 -14 -10 -24q3 -9 -4 -13
q-20 -11 -40 -25.5t-42 -22.5q-6 -2 -12 -3t-11 -1q-15 0 -29.5 6t-25.5 14q-32 23 -32.5 54.5t31.5 55.5q34 26 77 26q15 0 29.5 -3t27.5 -11q15 -9 28.5 -22.5t12.5 -30.5zM285 81q11 5 20.5 10.5l19.5 11.5q2 5 5 7q9 5 17 12t13 16q-3 7 -14 7q-12 0 -24 -6.5t-21 -15.5
q-5 -6 -9.5 -20t-6.5 -22z" />
    <glyph glyph-name="uni0026" unicode="&#x26;" horiz-adv-x="331" 
d="M235 -3q-12 -1 -23 8.5t-19 18.5l-6 8t-6 9q-9 -10 -18 -18.5l-18 -17.5q-16 -13 -34 -13q-20 0 -38 11.5t-31 26.5q-19 21 -24.5 44.5t-0.5 46.5t19.5 44t34.5 37l16.5 12l16.5 12q-4 32 -6 63q0 29 5.5 58t20.5 55q12 20 31.5 35.5t43.5 15.5q16 0 31 -7t28 -18
t22.5 -24.5t14.5 -27.5q11 -29 2.5 -55.5t-26.5 -48.5q-22 -26 -49.5 -47.5t-55.5 -40.5q1 -11 3.5 -21.5t6.5 -21.5l13.5 13.5t13.5 14.5q3 3 9 3q8 0 18 -6t18 -14t11.5 -16t-1.5 -13l-25 -27l-25 -27q7 -13 15 -24.5l16 -22.5q5 -7 6 -16t-10 -9zM172 276q11 9 23 20
t22 23t17 26t8 29q2 11 0.5 18.5t-9.5 7.5q-5 0 -8 -2q-18 -5 -31 -20.5t-21 -35.5t-12 -41t-4 -37zM98 60l22 23l22 23l-10 23t-9 24q-14 -11 -25 -23t-18 -27q-5 -11 -7 -24.5t1 -26.5q0 -4 2 -8q2 2 6 3t5 3q3 2 5.5 4.5z" />
    <glyph glyph-name="uni0027" unicode="'" horiz-adv-x="147" 
d="M114 479q-12 -12 -28 -12q-23 0 -43.5 19t-21.5 42q-1 19 5.5 39.5l12.5 38.5q7 21 15.5 42t17.5 41q3 4 9 4t14 -4t15 -10t11 -12.5t1 -12.5q-15 -32 -27 -64t-20 -66q7 -2 15 -8t15 -12.5t10 -13.5t-1 -11z" />
    <glyph glyph-name="uni0028" unicode="(" horiz-adv-x="189" 
d="M159 600q3 5 12 5t19.5 -5.5t19.5 -13t13.5 -15.5t-0.5 -14q-61 -75 -102.5 -161t-55.5 -182q-13 -92 6 -177.5t60 -169.5q6 -12 1 -17t-16 -5q-14 0 -31 7t-21 15q-43 88 -61 182t-6 191q14 101 56 191.5t106 168.5z" />
    <glyph glyph-name="uni0029" unicode=")" horiz-adv-x="212" 
d="M173 601q38 -93 53 -192t-2 -199q-17 -97 -61.5 -181.5t-110.5 -156.5q-5 -5 -14 -7t-20 -2q-9 0 -17.5 1.5t-14 5.5t-6 9t6.5 13q63 68 106.5 144.5t57.5 168.5q14 96 -0.5 190t-50.5 183q-3 6 2 12t13 10.5t18.5 7.5t19.5 3q17 0 20 -10z" />
    <glyph glyph-name="uni002A" unicode="*" horiz-adv-x="383" 
d="M320 402l-104 -33l66 -89l-24 -17l-67 88l-66 -88l-24 17l66 89l-104 38l10 28l103 -37v115h31v-115l104 32z" />
    <glyph glyph-name="uni002B" unicode="+" horiz-adv-x="402" 
d="M141 204q-26 0 -49.5 -1t-40.5 -3q-5 0 -6 9.5t0.5 21.5t5 22.5t7.5 10.5q24 3 48.5 3.5t48.5 0.5q2 38 4.5 72.5t5.5 59.5q1 7 16.5 12t29.5 5q8 0 13.5 -2t4.5 -7q-3 -26 -5.5 -63t-4.5 -79q33 -1 63.5 -3t52.5 -5q4 -1 4.5 -11t-1.5 -22t-6 -22t-9 -9q-20 3 -47.5 5
t-58.5 3q-1 -41 -0.5 -78t2.5 -63q0 -4 -4.5 -8t-12 -6.5t-16 -4t-15.5 -1.5q-16 0 -16 6q-2 29 -2.5 70.5t0.5 86.5h-12z" />
    <glyph glyph-name="uni002C" unicode="," horiz-adv-x="211" 
d="M54 81q12 12 28 12q23 0 43.5 -19t21.5 -42q2 -19 -5 -39.5l-13 -38.5q-14 -44 -33 -83q-3 -4 -9 -4t-14 4t-15 10t-11 12.5t-1 12.5q15 32 27 64t20 66q-7 2 -15 8t-15 12.5t-10 13.5t1 11z" />
    <glyph glyph-name="uni002D" unicode="-" horiz-adv-x="407" 
d="M385 260q5 -1 5.5 -11t-2 -22t-8 -22t-11.5 -9q-36 4 -90.5 5.5t-111.5 1.5q-42 0 -80 -1t-65 -4q-6 0 -7.5 9.5t0.5 21.5t6.5 22.5t10.5 10.5q28 3 66 4t80 1q57 0 113 -1.5t94 -5.5z" />
    <glyph glyph-name="uni002E" unicode="." horiz-adv-x="146" 
d="M73 51q11 0 19 -8t8 -19t-8 -18.5t-19 -7.5q-9 0 -19 8q-8 8 -8 18q0 11 8 19q10 8 19 8z" />
    <glyph glyph-name="uni002F" unicode="/" horiz-adv-x="376" 
d="M247 534q3 5 8 5q7 0 16 -6.5t16.5 -16t11 -20t-0.5 -18.5q-17 -34 -38 -80.5l-43.5 -99l-46 -108l-45 -108.5l-39.5 -100.5l-31 -83.5q-3 -9 -11 -9q-7 0 -16 6t-16 14.5t-11 18t-1 16.5l31.5 85.5l40.5 102.5l45.5 110l46.5 109.5l44.5 100.5z" />
    <glyph glyph-name="uni0030" unicode="0" horiz-adv-x="300" 
d="M293 435q13 -13 19 -29t8 -33t0.5 -34.5t-3.5 -34.5q-11 -66 -41 -129.5t-72 -115.5q-20 -26 -43.5 -41t-56.5 -15q-31 1 -57 20.5t-38 47.5q-11 25 -14 53t-1.5 57t7.5 57t15 53q10 30 29 61.5t45 57.5t57.5 42.5t65.5 16.5q46 0 80 -34zM245 304q3 12 4.5 28t1 33
t-3 33t-8.5 27q-59 -21 -94 -56t-59 -94q-12 -27 -18.5 -57t-8 -59t4 -54.5t17.5 -45.5q2 0 11.5 4t23 13t29 23t28.5 34q14 21 24.5 41.5t19 41t15 42z" />
    <glyph glyph-name="uni0031" unicode="1" horiz-adv-x="278" 
d="M235 93q2 -2 4 -6.5t3 -8.5t-1 -6.5t-8 -2.5h-4q-23 0 -45 -7t-42.5 -17.5t-40.5 -23l-39 -24.5q-4 -2 -7 -2q-8 0 -18.5 5.5t-18.5 13t-11 15.5t4 12q19 11 38.5 23.5t39.5 23.5q13 63 24.5 126l22.5 127l-19.5 -23.5l-18.5 -22.5q-4 -4 -11 -4q-8 0 -18 5t-17.5 11.5
t-11.5 14t0 12.5l59 70.5l59 70.5q3 5 11 5q7 0 15.5 -4t16 -10t12.5 -13t4 -13l-26.5 -163.5t-30.5 -163.5q7 1 13.5 1.5t13.5 0.5q30 0 48 -22z" />
    <glyph glyph-name="uni0032" unicode="2" horiz-adv-x="331" 
d="M296 356q-26 -48 -61 -89.5t-67 -84.5q-20 -26 -38 -52.5t-33 -55.5q32 11 65.5 20.5t68.5 16.5h3q8 0 18 -6t17.5 -14t9 -15.5t-8.5 -9.5q-54 -11 -106 -28.5t-102 -40.5q-4 -2 -8 -2q-7 0 -15.5 4t-15.5 10t-11 13.5t-2 14.5q19 59 52 109.5t71 98.5l38.5 49t37.5 50
l17.5 25.5t16.5 26.5q8 15 11 27q-4 -3 -7.5 -6t-6.5 -5q-35 -29 -64.5 -61t-54.5 -70q-3 -5 -10 -5t-16 4.5t-16.5 11t-11.5 14t-1 12.5q29 46 66.5 84.5t82.5 68.5q10 6 18.5 10t18.5 4h6.5t7.5 -2q25 -8 40 -31q14 -23 8 -49t-18 -47z" />
    <glyph glyph-name="uni0033" unicode="3" horiz-adv-x="276" 
d="M185 306q4 1 12 1q46 0 61 -40q6 -17 -1.5 -40t-17.5 -37q-46 -62 -100 -112.5t-117 -92.5q-8 0 -16.5 7t-14.5 16.5t-7 19t5 13.5q31 21 64.5 47.5t62.5 53.5t49 53.5t24 48.5q0 11 -6 15t-13 4q-10 0 -15 -5q-11 -9 -26.5 -24.5t-31.5 -37.5q-1 -3 -6 -3q-6 0 -14.5 5
t-16 12t-11 14.5t0.5 12.5l69 87.5t64 92.5q3 6 4.5 12t-2.5 6q-42 -25 -79.5 -60t-65.5 -68q-3 -4 -6 -4q-6 0 -13 6.5t-12.5 15t-8 17t1.5 13.5l50 56.5t56 50.5q19 14 42 26.5t46 12.5q24 0 42 -15q17 -14 18.5 -33t-5.5 -38.5t-18.5 -37.5l-20.5 -32q-8 -12 -13.5 -19.5
t-13.5 -19.5z" />
    <glyph glyph-name="uni0034" unicode="4" horiz-adv-x="357" 
d="M282 486q3 6 14 6q8 0 17.5 -4t18 -9.5t13 -12t1.5 -12.5l-16.5 -33l-21 -43.5l-20.5 -43.5l-16 -34q2 1 4.5 1t4.5 1q28 0 46 -17q2 -2 5 -6t4 -8t-0.5 -7t-7.5 -4q-41 -4 -82 -17q-24 -55 -40.5 -112t-21.5 -117q0 -10 -14 -10q-7 0 -16 3t-17 8t-13 10.5t-5 11.5
q4 45 14 88t24 85q-48 -22 -96 -48q-2 -2 -9 -2q-8 0 -18 3t-18.5 8t-13.5 11.5t-2 13.5l32.5 71l28.5 62l28.5 61.5l32.5 70.5q3 7 13 7q8 0 17.5 -4t18 -9.5t13 -12.5t1.5 -13l-22.5 -49l-18.5 -40.5l-18.5 -40l-22.5 -49.5q38 17 82 31q8 19 21 46.5l26.5 56.5l27 56.5z
" />
    <glyph glyph-name="uni0035" unicode="5" horiz-adv-x="311" 
d="M289 497q27 -2 45 -23q2 -3 4.5 -7.5t3.5 -9t-1 -7.5t-8 -3q-9 1 -17 1h-16q-43 0 -79.5 -8t-79.5 -26q-8 -23 -16.5 -54.5t-16.5 -54.5l22 8.5t29.5 10.5t29.5 8.5t23 3.5q17 0 32.5 -7.5t25.5 -20t13 -28.5t-3 -34q-10 -27 -41.5 -64t-70.5 -74t-78.5 -69.5
t-63.5 -50.5q-4 -2 -8 -2q-9 0 -19.5 6t-19 14t-11.5 16t4 13q59 42 112.5 92t98.5 107q15 17 27 36q3 3 4 7q-38 -13 -72 -28.5t-68 -36.5q-4 -3 -9 -3q-8 0 -17.5 5t-17 12t-12 15t-2.5 15q11 31 22 71t22 71l-14 10.5t-11 11.5t-4.5 11t4.5 8q54 24 113.5 41.5
t119.5 17.5q5 0 10.5 -0.5t10.5 -0.5z" />
    <glyph glyph-name="uni0036" unicode="6" horiz-adv-x="294" 
d="M159 264q15 -1 32 -5.5t31.5 -13.5t25 -22t12.5 -30q2 -26 -11 -53.5t-27 -47.5q-10 -15 -26.5 -32.5t-36 -32.5t-40.5 -25t-41 -10t-38 8t-32 22t-22.5 32t-8.5 38q-2 28 3 56.5t14 57t21.5 56t25.5 51.5q29 54 67.5 100.5t82.5 88.5q5 5 12 5q10 0 21.5 -6t20.5 -14
t13 -16.5t-1 -13.5q-45 -43 -84.5 -92t-68.5 -105q23 5 44 5q7 0 11 -1zM182 187q2 5 3.5 11.5t3.5 11.5q-31 -2 -58.5 -11.5t-56.5 -22.5q-12 -23 -18 -46.5t-8 -46.5q0 -2 -0.5 -13t0.5 -22q19 5 40 20t39.5 35t33.5 42.5t21 41.5z" />
    <glyph glyph-name="uni0037" unicode="7" horiz-adv-x="369" 
d="M292 485q5 0 15.5 -5.5t20 -13t14.5 -16t-1 -15.5q-89 -98 -153.5 -208t-89.5 -244q-1 -8 -10 -8q-7 0 -16.5 4.5t-18 11.5t-13.5 15t-4 15q22 121 73.5 221.5t130.5 191.5q-5 1 -9.5 1h-9.5q-35 0 -68.5 -3.5t-75.5 -4.5q-2 -26 8 -47q8 -20 -9 -20q-17 3 -30 13t-18 22
q-18 37 -13 79q0 5 3.5 6.5t7.5 1.5q58 2 103 3t89 1h36t38 -1z" />
    <glyph glyph-name="uni0038" unicode="8" horiz-adv-x="311" 
d="M240 287h2q8 0 17 -4t16.5 -10t12.5 -12.5t3 -12.5q-5 -22 -17 -49t-29 -55t-38 -54.5t-45 -47.5t-49.5 -33.5t-51.5 -12.5q-23 0 -46 12q-50 25 -30 77q7 16 20.5 38.5t29 46t32 44.5t29.5 34q-15 10 -26 24t-15 31q-6 26 6 49t27 42q11 13 28.5 31t37.5 34.5t41.5 28
t39.5 11.5q4 0 7.5 -0.5t8.5 -1.5q17 -5 32.5 -16.5t22.5 -27.5q16 -5 30 -18.5t8 -23.5q-44 -71 -104 -124zM243 441q-16 -10 -38.5 -27.5t-42.5 -38.5t-34 -44t-14 -44q2 -3 8 -3h5l6 4l6 4q41 27 75 63t61 78q-13 7 -18 15l-7 -3.5zM223 254q-17 -3 -32 -13.5t-28.5 -24
t-25.5 -28.5l-21 -27l-35.5 -49t-30.5 -52q-1 -1 -3 -5t-4 -9q5 2 9 3t7 3q25 11 50.5 35t48 53t40 59.5t25.5 54.5z" />
    <glyph glyph-name="uni0039" unicode="9" horiz-adv-x="306" 
d="M268 430q8 0 17.5 -5.5t17 -13t11.5 -16t1 -14.5q-47 -94 -80.5 -192t-56.5 -201q-3 -8 -11 -8q-7 0 -16 4.5t-17 11t-13 14.5t-4 14q13 59 30 115.5t37 113.5q-23 -17 -50.5 -32t-56.5 -15q-7 0 -17 2q-10 3 -21.5 9t-20.5 15t-14 20t-3 23q3 19 15 42t28 45.5t34 42
t32 31.5l18 16t21 16.5t22.5 13.5t22.5 7q29 0 48.5 -14.5t22.5 -44.5h3zM149 317q27 25 49.5 48.5l48.5 50.5q-4 10 -26 10q-9 0 -17 -3q-6 -3 -17 -12.5t-23 -21.5l-22.5 -22.5t-14.5 -15.5q-16 -20 -30 -40.5t-25 -43.5q22 8 41 21.5t36 28.5z" />
    <glyph glyph-name="uni003A" unicode=":" horiz-adv-x="146" 
d="M38 11l7 -7t3.5 -4t3.5 -4l7 -7q4 -4 -5 -12t-17 -8l-10 8.5t-5 4t-4 4t-7 7.5q-4 5 5 12.5t17 7.5z" />
    <glyph glyph-name="uni003B" unicode=";" horiz-adv-x="146" 
d="M29 88q12 13 29 13q23 0 43 -19.5t22 -42.5q1 -19 -6 -39.5t-12 -37.5q-15 -44 -34 -83q-2 -5 -8 -5t-14.5 4t-15.5 10t-10.5 13t-0.5 13q14 30 27 63.5t19 66.5q-7 2 -15 8t-14.5 12.5t-9.5 13t0 10.5zM120 247q4 -4 0.5 -11t-10.5 -14t-16.5 -11.5t-17.5 -4.5
q-7 0 -10 4l-43 45q-4 4 -0.5 11t10.5 13.5t16.5 11t17.5 4.5q6 0 10 -4z" />
    <glyph glyph-name="uni003C" unicode="&#x3c;" horiz-adv-x="423" 
d="M39 214q-3 3 -9 14t-10 24t-4.5 25.5t6.5 16.5l34.5 20l59 34.5l71 40.5l69.5 38.5l54.5 29t26.5 11.5q8 0 17 -10t15 -22.5t7.5 -24t-5.5 -14.5l-133.5 -72.5l-132.5 -75.5q26 -23 57.5 -45l63.5 -43l63.5 -41l58.5 -38q6 -4 12.5 -17.5t9.5 -27.5t2 -25.5t-10 -11.5
q-42 12 -84 37t-83.5 56l-80.5 63t-75 58z" />
    <glyph glyph-name="uni003D" unicode="=" horiz-adv-x="515" 
d="M435 251q5 0 5.5 -10.5t-2.5 -22.5t-8 -21.5t-11 -9.5q-37 4 -91 6t-111 2q-42 0 -80 -1.5t-66 -3.5q-6 -1 -7.5 9t1 22t7 22.5t9.5 10.5q28 2 66.5 3.5t80.5 1.5q57 0 113 -2t94 -6zM435 353q5 0 5.5 -10.5t-2.5 -22.5t-8 -21.5t-11 -9.5q-37 4 -91 6t-111 2
q-42 0 -80 -1.5t-66 -3.5q-6 -1 -7.5 9t1 22t7 22.5t9.5 10.5q28 2 66.5 3.5t80.5 1.5q57 0 113 -2t94 -6z" />
    <glyph glyph-name="uni003E" unicode="&#x3e;" horiz-adv-x="377" 
d="M353 214q-36 -26 -75 -58l-79.5 -62.5t-82 -55.5t-82.5 -37q-10 0 -12 11t0.5 25t9 27.5t12.5 17.5l58.5 38l64 41l63.5 43t57 45l-132.5 75.5l-133.5 72.5q-7 3 -5.5 14.5t7.5 24t15 22.5t18 10q3 0 25.5 -11.5l54.5 -29l69.5 -39l71.5 -40.5l59.5 -34l33.5 -20
q7 -4 6.5 -16.5t-4.5 -25.5t-10 -24t-9 -14z" />
    <glyph glyph-name="uni003F" unicode="?" horiz-adv-x="324" 
d="M280 449q18 -23 22 -51t-2 -56.5t-18.5 -56t-26.5 -49.5q-17 -26 -35.5 -51.5t-32.5 -54.5q-15 -30 -21.5 -63.5t-6.5 -67.5q0 -7 -7 -7q-5 0 -12 3t-9 5q-9 6 -16.5 15t-7.5 20q0 36 6 64.5t16.5 54.5t26.5 51l35 53q18 26 32.5 52.5t21.5 58.5q3 14 5 28t0 28
q-1 3 -1 6t-1 6h-9q-8 0 -16 -2q-24 -6 -46.5 -18.5t-41.5 -30.5t-33.5 -40t-22.5 -46q-2 -8 -4.5 -16.5t-3.5 -16.5l15 9q23 19 42 42t36 48q3 4 8 4q6 0 15 -5t16 -12.5t10.5 -15.5t-0.5 -14l-23 -32t-31.5 -37t-36 -30.5t-36.5 -12.5q-20 0 -36.5 11.5t-26.5 31.5
q-10 23 -4 50.5t15 49.5q11 24 28.5 48t40 42.5t49 30t54.5 11.5q20 0 39 -8.5t35 -28.5zM139 -25q9 -5 16 -14.5t8 -20.5l1 -41q0 -5 -3.5 -6t-6.5 -1q-14 0 -28 15t-14 28l-1 41q0 4 3.5 5.5t5.5 1.5q5 0 10 -2.5t9 -5.5z" />
    <glyph glyph-name="uni0040" unicode="@" horiz-adv-x="643" 
d="M636 346q5 -39 1.5 -80.5t-20.5 -77.5q-24 -52 -73 -52q-17 0 -35 6q-49 20 -75 62q-23 -32 -55 -57t-74 -25q-25 0 -48.5 10.5t-42.5 30.5q-23 25 -27 50.5t5 51t28.5 48.5t43 42.5t48 33t43.5 20.5q4 1 10 1q13 0 25 -7.5t21 -15.5q2 -2 6 -7t7.5 -11t5 -12t-0.5 -10
q9 -3 18.5 -9.5t17.5 -15t13.5 -17.5t5.5 -15q0 -15 0.5 -30t2.5 -29l4 -13.5t3 -12.5q20 0 32 14t19 33.5t10 40.5t4 35q2 26 -1 54t-14 51l-8.5 8.5t-6.5 5.5q-6 4 -12 7.5t-12 5.5q-19 9 -39.5 13.5t-40.5 6.5q-5 1 -10.5 1h-10.5q-41 0 -79.5 -12.5t-72 -35.5
t-60.5 -56.5t-45 -75.5q-12 -28 -18.5 -64t-3.5 -71t17 -64t43 -44q39 -18 82 -18q40 0 79 13t71 34q3 3 9 3q11 0 24.5 -8.5t24 -20t14.5 -22.5t-5 -17q-37 -25 -79 -37t-85 -12q-56 0 -108 19.5t-94 61.5q-40 39 -57 90.5t-14.5 105t23.5 105t56 91.5q46 53 106 78.5
t123 25.5q46 0 93 -13t86.5 -39t67 -64t34.5 -88zM336 234q20 22 36 48.5l31 52.5q-41 -17 -77 -48.5t-54 -73.5q-2 -5 -2.5 -10.5t-2.5 -10.5q20 3 38 15.5t31 26.5z" />
    <glyph glyph-name="uni0041" unicode="A" horiz-adv-x="312" 
d="M251 225q9 -1 20.5 -8t19 -16t9 -17t-9.5 -10q-10 -2 -19.5 -4.5t-19.5 -5.5l-2 -79.5t-3 -79.5q0 -9 -10 -9q-7 0 -16.5 4t-18 10t-14.5 13.5t-6 14.5q2 26 2.5 51.5t1.5 51.5q-76 -31 -137 -79l-20 -46.5t-19 -47.5q-3 -5 -10 -5q-8 0 -18 4.5t-18.5 11.5t-13.5 15.5
t-2 15.5q49 123 107.5 240t127.5 230q3 6 11 6t17 -5t16.5 -12t13 -14.5t5.5 -12.5q6 -108 6 -217zM101 176q20 10 41.5 17.5l43.5 14.5v64.5t-1 64.5q-23 -40 -43.5 -80z" />
    <glyph glyph-name="uni0042" unicode="B" horiz-adv-x="394" 
d="M330 252q10 -16 8 -31.5t-13 -30.5q-21 -30 -54 -61.5t-70 -61t-75.5 -55t-70.5 -43.5q-10 0 -21 6.5t-19 15.5t-10 18t5 13q12 8 20.5 12.5t20.5 12.5q-11 8 -15.5 21t-2.5 21l27.5 121.5l27.5 121.5q-2 -2 -3 -2.5t-3 -2.5q-3 -2 -9 -2q-8 0 -18 6.5t-17.5 15t-10.5 17
t2 12.5l40 27.5t41 25.5l26 15l27 13.5t27 12.5l40.5 18.5t42.5 11.5q23 0 40.5 -10.5t29.5 -29.5q9 -15 8 -30.5t-9 -30.5q-11 -21 -26.5 -40t-29.5 -38l-21 -27q20 -1 37.5 -13t27.5 -29zM269 431q-29 -11 -53.5 -25.5l-51.5 -29.5l-12 -54.5l-12 -54.5q15 13 35 23.5
t37 30.5q9 11 18.5 25.5t18.5 30l17.5 31t16.5 28.5q-4 -2 -7.5 -2.5t-6.5 -2.5zM166 132l23 20t34 33t28 34.5t4 25.5l-135 -62l-12 -52.5t-11 -52.5l34.5 26.5z" />
    <glyph glyph-name="uni0043" unicode="C" horiz-adv-x="420" 
d="M334 178q4 4 10 4q10 0 22 -7.5t21 -18t13 -21t-2 -16.5q-24 -23 -55.5 -44.5t-66 -38t-71 -26.5t-71.5 -10q-23 0 -45.5 5t-42 16t-34.5 28.5t-21 42.5q-4 15 -2 30t7.5 29.5t13 28l14.5 26.5q51 87 118.5 159.5t149.5 129.5q5 3 11 3q10 0 22 -8t21.5 -18.5t13 -20.5
t-2.5 -15q-87 -59 -157.5 -136t-120.5 -170q-6 -11 -12 -23.5t-8 -26.5q-1 -5 0 -9t-1 -5q3 -1 10 -1q5 -1 15 -1q33 0 67.5 9.5t67.5 25.5t63 36.5t53 42.5z" />
    <glyph glyph-name="uni0044" unicode="D" horiz-adv-x="385" 
d="M308 483q50 -34 58.5 -84t-10.5 -103q-33 -96 -98 -174t-150 -132q-2 -12 -3 -24l-2 -24q-1 -10 -14 -10q-8 0 -18.5 4t-20 11t-16.5 14.5t-8 15.5q-17 11 -26 25.5t2 20.5q8 5 15 8.5t15 8.5l23.5 220l23.5 220q1 10 13 10q13 0 30 -10q25 14 50 22t51 8q21 0 42 -6.5
t43 -20.5zM245 263q10 18 20 38t17.5 41t11 43t-0.5 43q-5 26 -26 26q-5 0 -11.5 -2t-14.5 -4q-25 -6 -47 -19t-42 -27l-16 -148.5l-16 -147.5q38 33 69.5 72.5t55.5 84.5z" />
    <glyph glyph-name="uni0045" unicode="E" horiz-adv-x="355" 
d="M369 462q2 -3 4.5 -7.5t3 -9t-1.5 -8t-8 -3.5q-103 -7 -198 -49q-26 -54 -45 -115q24 14 49.5 23.5t52.5 17.5q16 0 24.5 -3t21.5 -14q2 -1 6 -6t7 -11t3 -10.5t-6 -6.5q-51 -14 -97 -37.5t-87 -58.5q-6 -34 -9 -69q42 18 85 26t88 8q14 -1 26.5 -8t20.5 -17q2 -3 4.5 -8
t3.5 -9.5t-1 -8t-9 -3.5q-75 0 -140.5 -22.5t-125.5 -67.5q-2 -2 -9 -2q-9 0 -20 6.5t-19.5 15t-11.5 17.5t4 14l16.5 12t17.5 11q0 30 2.5 59.5t6.5 58.5l5 30q12 68 34 127q-9 1 -20 8t-19.5 15.5t-11 17t4.5 12.5q68 44 144 69.5t157 30.5q14 0 26.5 -7.5t20.5 -17.5z
" />
    <glyph glyph-name="uni0046" unicode="F" horiz-adv-x="339" 
d="M347 514q3 -3 6 -7.5t3.5 -9t-1.5 -8t-9 -3.5q-116 -12 -218 -60q-4 -33 -7 -66.5t-7 -66.5q70 35 149 41q14 0 27 -7t22 -18q5 -6 8.5 -16.5t-10.5 -12.5q-114 -9 -206 -81q-5 -49 -9.5 -97.5t-9.5 -97.5q-1 -9 -12 -9q-8 0 -18.5 4.5t-19.5 11t-15 14t-5 14.5l8 82
t9 82q-8 8 -12 15.5t1 11.5q4 4 7.5 7t7.5 6l15 150q-10 3 -20.5 10t-18 15t-9.5 16t5 12l25.5 14t25.5 13q1 5 1 10t1 10q2 9 12 9q12 0 29 -10q94 37 196 48q14 0 27.5 -7.5t21.5 -18.5z" />
    <glyph glyph-name="uni0047" unicode="G" horiz-adv-x="448" 
d="M415 429q-37 -1 -72 -14t-66.5 -34t-59 -47.5t-49.5 -53.5q-16 -19 -33.5 -44.5t-30 -53.5t-16.5 -57t8 -55q7 -16 31 -16q19 0 43.5 8.5t47.5 20.5t41.5 24t25.5 18q11 10 22.5 22.5t20.5 26.5t14.5 29t3.5 31q-3 9 -12 9q-16 0 -36 -11.5t-39 -27.5t-35 -34t-24 -31
q-4 -6 -13 -6t-20 5.5t-20.5 13.5t-14.5 17t-1 16q12 20 30.5 40.5t41 37.5t48.5 28t51 11q19 0 38 -7.5t35 -20t27 -29t15 -35.5q4 -21 -1.5 -40.5t-16.5 -37.5t-25.5 -33.5t-28.5 -28.5q-37 -32 -84.5 -55t-96.5 -23q-27 0 -53.5 8.5t-50.5 28.5q-35 29 -43.5 65t-0.5 74
t28 74.5t42 66.5q24 32 55 63.5t67.5 56.5t77 40t82.5 15q14 0 27 -8t22 -18q3 -3 5.5 -8t3.5 -9.5t-1.5 -8t-9.5 -3.5z" />
    <glyph glyph-name="uni0048" unicode="H" horiz-adv-x="390" 
d="M337 500q3 6 11 6t19 -5.5t20.5 -13.5t15 -17.5t2.5 -17.5l-31 -90.5l-29 -91.5q5 -8 8.5 -16.5t-5.5 -10.5q-3 -1 -6.5 -1.5t-6.5 -1.5q-19 -64 -36 -128l-33 -129q-1 -10 -14 -10q-8 0 -18.5 5t-19.5 12t-14.5 15.5t-4.5 15.5q11 48 23.5 94.5l25.5 93.5
q-38 -17 -74.5 -37t-71.5 -46q-10 -38 -18.5 -77l-16.5 -78q-1 -10 -13 -10q-8 0 -18.5 5t-19.5 12t-15 15.5t-5 15.5q23 116 53 229.5t65 225.5q2 6 10 6t19 -5t20.5 -13t15.5 -17.5t3 -18.5l-27 -90l-26 -90q71 37 144 56l33 104.5z" />
    <glyph glyph-name="uni0049" unicode="I" horiz-adv-x="122" 
d="M102 488q2 5 8 5q7 0 16 -6t17 -14.5t12 -18.5t1 -19q-44 -107 -80.5 -215.5t-68.5 -220.5q-3 -10 -12 -10q-7 0 -16 5.5t-16 13.5t-11.5 17t-2.5 16q65 230 153 447z" />
    <glyph glyph-name="uni004A" unicode="J" horiz-adv-x="282" 
d="M330 500q2 -1 5.5 -6t6.5 -10t3.5 -9.5t-5.5 -6.5q-30 -8 -61 -21q-4 -23 -12 -62.5t-19 -86t-24.5 -96t-29 -93t-32.5 -77t-34 -47.5q-10 -9 -21.5 -12.5t-23.5 -3.5q-16 0 -32 6t-29 16t-22.5 23.5t-13.5 28.5q-4 17 -2 34.5t7 34.5t11.5 34t11.5 33q2 9 13 9
q8 0 18 -4.5t18 -11t13.5 -14t3.5 -13.5q-8 -26 -18 -51.5t-12 -53.5q0 -5 0.5 -9.5t0.5 -9.5q8 4 10 4q16 9 31.5 36.5t30 64.5t27 79.5t23 82t17.5 72t10 49.5q-10 -5 -19 -11t-19 -12q-2 -2 -8 -2q-9 0 -20.5 6t-20 14.5t-11.5 17t4 13.5q42 27 86 47.5t92 33.5q3 1 8 1
q11 0 20.5 -5t17.5 -12z" />
    <glyph glyph-name="uni004B" unicode="K" horiz-adv-x="434" 
d="M364 479q10 0 22 -6.5t21 -15.5t12.5 -18t-4.5 -13q-28 -15 -62 -36.5t-68 -46.5l-65.5 -50t-55.5 -46q42 -60 88 -115t100 -106q5 -5 0.5 -13t-13.5 -16t-20.5 -14t-20.5 -6q-8 0 -13 4q-46 45 -87.5 93t-79.5 100q-11 -49 -19.5 -98.5t-14.5 -99.5q-1 -9 -12 -9
q-8 0 -18 4.5t-19 11t-15 14t-5 14.5q7 56 16.5 111t21.5 109q-7 11 -1 17q2 2 3.5 4t3.5 4q15 64 33 126.5t40 124.5q2 6 10 6t19 -5t20 -12.5t14.5 -16.5t2.5 -17l-19.5 -58.5l-18.5 -59.5l23 17l37 27l44 31l43.5 29.5t35.5 22t21 8.5z" />
    <glyph glyph-name="uni004C" unicode="L" horiz-adv-x="351" 
d="M291 102q9 -1 20.5 -9.5t20 -18.5t9 -18t-13.5 -8q-10 1 -17.5 1.5t-14.5 0.5q-62 0 -120 -19t-109 -54q-2 -2 -9 -2q-9 0 -21 6.5t-21 15.5t-12.5 18t4.5 14l16.5 10l16.5 10l32.5 218l31.5 218q1 9 13 9q8 0 18.5 -4.5t19.5 -11t14.5 -14.5t4.5 -15l-27 -183l-26 -183
q32 11 65 15.5t68 4.5h18t19 -1z" />
    <glyph glyph-name="uni004D" unicode="M" horiz-adv-x="460" 
d="M69 6q-3 -6 -10 -6t-17 5.5t-18.5 13.5t-14 17.5t-3.5 18.5l28 132.5t28.5 126t29 102.5t27.5 62q6 7 17 7q14 0 30 -9t19 -17q23 -51 33 -106.5t18 -109.5l45 119t57 112q3 6 11 6q7 0 16 -4.5t16.5 -11.5t13 -14.5t6.5 -12.5q17 -105 21 -210t-7 -211q-1 -10 -11 -10
q-7 0 -17 4.5t-18.5 12t-14.5 16t-5 15.5q14 142 3 284q-33 -66 -59 -136t-50 -142q-3 -7 -10 -7t-16 5.5t-17.5 13.5t-14.5 16.5t-6 14.5q-8 48 -12 94t-10 93l-9 72q-11 -31 -18 -70.5l-14.5 -85.5t-18 -96.5t-28.5 -103.5z" />
    <glyph glyph-name="uni004E" unicode="N" horiz-adv-x="460" 
d="M377 479q3 11 15 11q9 0 21 -5t22 -13t16 -16.5t4 -16.5l-30 -113l-26 -97l-26 -97l-30 -114q-3 -12 -15 -12q-8 0 -18.5 5t-19.5 12t-15.5 15t-8.5 13q-20 79 -42.5 157t-55.5 153q-31 -97 -51 -187.5t-31 -191.5q-1 -11 -14 -11q-9 0 -20.5 5t-21.5 12.5t-16.5 16.5
t-5.5 16q13 122 39 231t67 224q3 8 11 8t17.5 -5t19 -11.5t16.5 -13t8 -9.5q38 -62 64.5 -127t47.5 -134z" />
    <glyph glyph-name="uni004F" unicode="O" horiz-adv-x="412" 
d="M374 441q29 -30 37.5 -71.5t3 -85.5t-22 -85.5t-36.5 -73.5q-15 -24 -37 -48t-48 -43.5t-55.5 -32t-59.5 -12.5q-31 0 -61 15q-30 16 -49.5 39.5t-30 51.5t-13.5 59.5t0 62.5q6 48 24 96.5t48 88.5t72 65t96 25q29 0 57.5 -8.5t53.5 -25.5q6 -3 11 -8q4 -2 6 -4.5t4 -4.5
zM340 325q2 24 2 53t-14 51l-7.5 2.5t-6.5 1.5q-15 3 -29 3q-27 -1 -48.5 -7.5t-39.5 -18.5t-33.5 -29.5t-30.5 -40.5q-53 -79 -59 -173q-2 -23 -1 -45.5t9 -44.5q2 -7 6.5 -17.5t11.5 -14.5q3 -2 11 -2t16.5 2t13.5 4q41 14 76 43t61 66.5t42.5 81t19.5 85.5z" />
    <glyph glyph-name="uni0050" unicode="P" horiz-adv-x="383" 
d="M302 488q19 -4 34.5 -14.5t25.5 -25t13 -32t-5 -37.5q-10 -28 -39.5 -57.5t-66 -56.5t-74 -49t-64.5 -36q-14 -48 -25 -96.5t-21 -97.5q-1 -10 -13 -10q-8 0 -18 4.5t-19 11t-15 14.5t-5 15q17 87 39 170q-8 8 -11.5 16t4.5 12q5 2 9 4.5t8 4.5q16 54 34.5 107t38.5 105
q-7 8 -8.5 15t5.5 9q30 11 64 20t67 9q11 0 21 -1t21 -4zM306 434q-13 -1 -25.5 -1t-24.5 -2t-23.5 -5l-22.5 -6q-29 -69 -51 -136q17 11 40 28t45.5 37t39.5 42t22 43z" />
    <glyph glyph-name="uni0051" unicode="Q" horiz-adv-x="389" 
d="M361 31q5 -6 0.5 -15t-13.5 -17t-21 -14t-21 -6q-8 0 -13 6l-13 16t-6.5 9t-6 9t-12.5 17q-23 -20 -48.5 -33t-52.5 -13q-14 0 -27.5 3.5t-27.5 11.5q-27 16 -44.5 39t-27 50t-12 56.5t-0.5 59.5q3 39 16 86t36.5 89t58.5 71t81 32q33 0 63.5 -7t56.5 -30q5 -3 8 -6.5
t5 -6.5q26 -31 34 -72t3 -84.5t-19.5 -85t-32.5 -73.5q-7 -13 -15 -23l15.5 -21.5l10 -13.5l10 -13.5zM136 50q20 8 38 21t34 30l-29.5 43l-28.5 43q-4 7 0.5 16t14 17t21 13.5t20.5 5.5t12 -6l20 -30.5t21 -30.5l10 21t9 21q11 26 17.5 53.5t8.5 56.5q1 11 1.5 25t0 28.5
t-3.5 28.5t-10 24q-5 2 -12 2.5t-15 0.5q-7 0 -10 -1q-24 -1 -42.5 -10.5t-33.5 -24.5t-26.5 -33t-22.5 -38q-21 -38 -31.5 -79t-13.5 -84q-1 -22 0.5 -44t7.5 -43q3 -8 6.5 -16.5t8.5 -15.5q14 1 28 6z" />
    <glyph glyph-name="uni0052" unicode="R" horiz-adv-x="405" 
d="M260 486q19 -1 41 -8t41.5 -20t32 -30.5t11.5 -40.5q-2 -23 -15.5 -40t-28.5 -32q-29 -31 -60 -59.5l-63 -55.5q60 -69 104 -144q5 -7 -0.5 -17t-15 -18t-22 -14t-21.5 -6q-8 0 -13 6q-22 38 -50 70l-56 65q-8 -6 -12 -8.5t-5.5 -4t-3 -2.5t-5.5 -4q-15 -69 -27 -138
q-1 -10 -14 -10q-9 0 -20 5t-20.5 12t-15.5 16t-5 16q17 94 36.5 187t41.5 187q-10 5 -20 12.5t-16.5 15.5t-8 14.5t5.5 9.5q51 19 100 27.5t104 8.5zM270 363l21 22t16 20.5t0.5 15.5t-26.5 6h-10q-23 -2 -44.5 -5.5t-43.5 -8.5l-19.5 -82.5l-18.5 -82.5q33 27 64 55.5
t61 59.5z" />
    <glyph glyph-name="uni0053" unicode="S" horiz-adv-x="306" 
d="M260 306q-1 -9 -11 -9q-7 0 -16.5 4.5t-18 11t-13 14t-3.5 14.5l4 22l4 22q-54 -51 -89 -120q-4 -8 -7.5 -14t0.5 -6l36 15t32 11q4 1 7 1.5t7 0.5q23 0 45.5 -14.5t25.5 -39.5q2 -17 -7.5 -31l-17.5 -26q-42 -63 -85 -112.5l-80 -94.5q-5 -5 -12 -5q-8 0 -18 5.5t-18 13
t-12 16t0 14.5q13 20 31.5 41l39 44.5l42.5 49.5t41 55q1 3 5 9q-8 -4 -13 -5q-16 -7 -34 -16t-35 -9h-5q-16 2 -33 14.5t-22 29.5q-4 14 2 31t10 30q26 71 74.5 126.5t111.5 88.5q4 2 7 2q8 0 17 -4t17 -10.5t13 -14.5t4 -15q-7 -35 -13 -70t-13 -70z" />
    <glyph glyph-name="uni0054" unicode="T" horiz-adv-x="274" 
d="M308 508q10 0 24 -8.5t24 -19t12 -19.5t-11 -11q-88 -13 -172 -47q-26 -103 -45 -205.5t-32 -206.5q-1 -10 -13 -10q-8 0 -19.5 4.5t-21 12t-16 16t-5.5 15.5q10 83 24 164.5t32 162.5l-45 -28.5t-44 -31.5q-3 -3 -10 -3q-10 0 -22.5 7t-22 16t-13.5 19t4 16
q81 63 174.5 102.5t195.5 54.5h2z" />
    <glyph glyph-name="uni0055" unicode="U" horiz-adv-x="411" 
d="M55 471q3 11 17 11q9 0 21 -5t22 -12t16 -15.5t4 -15.5q-8 -31 -15.5 -68.5t-14.5 -76.5t-11.5 -77t-6.5 -70q-1 -14 -1 -29t2 -29q2 -10 5 -20.5t8 -12.5q7 -4 18 -4q19 0 39 10t33 19q22 17 38 40t27.5 49.5t18.5 54.5t12 54l9 52t7 44.5t4.5 44t2.5 52.5q0 11 13 11
q9 0 20.5 -4.5t22 -11.5t17.5 -15.5t7 -16.5q-1 -37 -3 -67t-6 -59t-10.5 -58.5t-16.5 -65.5q-8 -30 -20.5 -60.5t-31.5 -56t-44.5 -44t-59.5 -26.5q-13 -4 -32 -4q-28 0 -55 10t-49 27.5t-36.5 42t-18.5 53.5q-5 36 -1 74t9 73q3 21 7.5 47.5t10 54t11.5 54t11 46.5z" />
    <glyph glyph-name="uni0056" unicode="V" horiz-adv-x="432" 
d="M345 522q4 6 15 6t24 -6.5t23.5 -15.5t16 -19t-0.5 -17q-92 -118 -166.5 -245.5t-131.5 -265.5q-2 -6 -11 -6q-10 0 -21.5 4.5t-21.5 12t-17 17t-9 19.5q-36 227 -30 455q0 10 13 10q9 0 20.5 -5t22.5 -12.5t18.5 -16.5t7.5 -18q-2 -70 0 -139.5t8 -138.5
q51 102 110.5 197t129.5 184z" />
    <glyph glyph-name="uni0057" unicode="W" horiz-adv-x="450" 
d="M359 476q3 6 10 6t17 -5t18.5 -13.5t14 -18t3.5 -18.5l-27.5 -131.5t-29 -126t-28.5 -103t-28 -62.5q-6 -7 -17 -7q-14 0 -29.5 9t-19.5 17q-23 52 -32.5 107t-17.5 109l-45 -119t-57 -112q-4 -6 -12 -6q-7 0 -15.5 5t-16.5 11.5t-13.5 14t-6.5 12.5q-33 212 -14 421
q1 10 12 10q7 0 16.5 -4.5t18 -12t14.5 -15.5t5 -16q-7 -71 -7.5 -141.5t5.5 -142.5q32 66 58 136.5l50 141.5q3 7 10 7t16.5 -5.5t18 -13.5t14.5 -16.5t6 -14.5q8 -48 11.5 -93.5t10.5 -93.5l4 -36t5 -36q11 31 17.5 70.5l14 85.5t18 96.5t28.5 103.5z" />
    <glyph glyph-name="uni0058" unicode="X" horiz-adv-x="426" 
d="M378 518q7 5 15 5q12 0 26.5 -7.5t25.5 -17.5t16.5 -20t-0.5 -16q-60 -56 -115.5 -114t-108.5 -121q15 -58 33 -114.5t38 -113.5q4 -11 -1.5 -14.5t-13.5 -3.5q-7 0 -17 2q-15 5 -30.5 17t-21.5 28l-22 65.5t-21 65.5q-29 -35 -56 -71.5l-53 -74.5q-4 -7 -15 -7t-25 7
t-25.5 16.5t-17 20.5t-0.5 19q75 107 159 207l-12.5 48l-15 57.5l-14.5 57.5t-11 49q-3 17 14 17q9 0 20.5 -4.5t22 -11.5t19 -15t9.5 -16q2 -8 5.5 -23.5t8 -33l8.5 -33l6 -23.5l83 88z" />
    <glyph glyph-name="uni0059" unicode="Y" horiz-adv-x="251" 
d="M258 493q4 5 13 5q10 0 22 -6t21.5 -14t14.5 -17.5t0 -15.5l-57.5 -79.5l-57.5 -79.5l-27.5 -38l-27.5 -39q-8 -10 -17 -26t-21 -24q-11 -48 -19 -96.5t-13 -98.5q-1 -10 -13 -10q-8 0 -19 4.5t-20.5 12t-16 15.5t-5.5 16q9 95 30 188q-11 22 -10 46t-1 43l-12 193
q0 9 12 9q9 0 19.5 -4t20 -10.5t16 -15t6.5 -17.5l4 -65l4 -65q1 -5 1 -11v-12l76.5 105.5z" />
    <glyph glyph-name="uni005A" unicode="Z" horiz-adv-x="465" 
d="M357 45q2 -3 4 -7.5t2.5 -9.5t-2 -8t-9.5 -3q-16 1 -30 1.5t-26 0.5q-28 0 -49.5 -2.5t-43.5 -8t-47.5 -13.5t-61.5 -18q-9 0 -19.5 5t-18 13t-10.5 17.5t3 17.5l56 81.5l61.5 90.5l62.5 90t59 80l-168 -45q-11 0 -24 8t-22.5 19t-12.5 22t5 16l292 79q9 0 21.5 -5
t23 -13.5t15 -17.5t-1.5 -17q-31 -38 -65 -84l-67.5 -94l-66 -94.5l-61.5 -86.5q19 5 33.5 9.5t28 8t28 5.5t33.5 2h16.5t19.5 -2q14 -1 24 -13t18 -24z" />
    <glyph glyph-name="uni005B" unicode="[" horiz-adv-x="226" 
d="M118 620q23 -9 45.5 -16t45.5 -13q13 -3 8.5 -13t-10.5 -15q-8 -7 -20.5 -13t-23.5 -6q-6 0 -8 1q-9 2 -18 4.5t-18 5.5l-20 -335.5l-20 -334.5q17 2 32.5 3t32.5 3h2q11 0 13 -7.5t-4 -15.5q-8 -11 -22.5 -17t-27.5 -7l-83 -8h-2q-5 0 -10 2.5t-4 8.5l22 369.5l22 369.5
q1 16 20 26t36 10q6 0 12 -2z" />
    <glyph glyph-name="uni005C" unicode="\" horiz-adv-x="313" 
d="M19 534l38.5 -82l44.5 -100.5l46.5 -109.5l45.5 -110l40.5 -102.5l31.5 -85.5q3 -7 -1 -16.5t-11 -18t-15.5 -14.5t-15.5 -6q-9 0 -12 9l-31 83.5l-39.5 100.5l-45 108.5l-46 108l-43.5 99l-37 80.5q-4 8 -0.5 18.5t10.5 20t16 16t16 6.5q6 0 8 -5z" />
    <glyph glyph-name="uni005D" unicode="]" horiz-adv-x="212" 
d="M143 621q2 0 3.5 0.5t3.5 0.5q8 0 18 -3.5t19 -9.5t14.5 -14t5.5 -17l-56 -738q0 -5 -4 -7t-9 -2l-44.5 9.5t-40.5 9.5q-13 3 -26.5 11t-20.5 20q-5 8 -2.5 15t11.5 7q20 -5 36.5 -8.5t32.5 -6.5l24.5 334l25.5 334q-10 -2 -19 -2.5t-18 -2.5q-14 0 -26.5 7t-22.5 18
q-5 7 -8.5 16.5t10.5 11.5q24 3 47 7t46 10z" />
    <glyph glyph-name="uni005E" unicode="^" horiz-adv-x="435" 
d="M271 489q52 -80 81.5 -166.5t52.5 -176.5q4 -13 -10 -13q-7 0 -17 3.5t-19 9t-15.5 11.5t-8.5 12q-17 66 -37 130t-49 126l-75.5 -146l-72.5 -148q-2 -5 -11 -5t-20.5 5t-21 12.5t-15 16t-2.5 15.5l85 171.5l88 169.5q5 6 12 6t16 -4t17 -9.5t14 -11t8 -8.5z" />
    <glyph glyph-name="uni005F" unicode="_" horiz-adv-x="421" 
d="M389 -24q5 0 5.5 -10.5t-2 -22.5t-8 -21.5t-11.5 -8.5q-36 3 -90.5 5t-110.5 2q-42 0 -80.5 -1t-65.5 -4q-6 0 -7.5 9.5t0.5 21.5t6.5 22.5t10.5 10.5q28 3 66 4t81 1q57 0 112.5 -2t93.5 -6z" />
    <glyph glyph-name="uni0060" unicode="`" horiz-adv-x="222" 
d="M179 401l-118 72q-8 5 -11.5 9.5t-3.5 14.5t6 14q6 6 15 6h5q20 -11 38 -32q7 -6 15 -14l19 -19l51 -51h-16z" />
    <glyph glyph-name="uni0061" unicode="a" horiz-adv-x="312" 
d="M251 225q9 -1 20.5 -8t19 -16t9 -17t-9.5 -10q-10 -2 -19.5 -4.5t-19.5 -5.5l-2 -79.5t-3 -79.5q0 -9 -10 -9q-7 0 -16.5 4t-18 10t-14.5 13.5t-6 14.5q2 26 2.5 51.5t1.5 51.5q-76 -31 -137 -79l-20 -46.5t-19 -47.5q-3 -5 -10 -5q-8 0 -18 4.5t-18.5 11.5t-13.5 15.5
t-2 15.5q49 123 107.5 240t127.5 230q3 6 11 6t17 -5t16.5 -12t13 -14.5t5.5 -12.5q6 -108 6 -217zM101 176q20 10 41.5 17.5l43.5 14.5v64.5t-1 64.5q-23 -40 -43.5 -80z" />
    <glyph glyph-name="uni0062" unicode="b" horiz-adv-x="394" 
d="M330 252q10 -16 8 -31.5t-13 -30.5q-21 -30 -54 -61.5t-70 -61t-75.5 -55t-70.5 -43.5q-10 0 -21 6.5t-19 15.5t-10 18t5 13q12 8 20.5 12.5t20.5 12.5q-11 8 -15.5 21t-2.5 21l27.5 121.5l27.5 121.5q-2 -2 -3 -2.5t-3 -2.5q-3 -2 -9 -2q-8 0 -18 6.5t-17.5 15t-10.5 17
t2 12.5l40 27.5t41 25.5l26 15l27 13.5t27 12.5l40.5 18.5t42.5 11.5q23 0 40.5 -10.5t29.5 -29.5q9 -15 8 -30.5t-9 -30.5q-11 -21 -26.5 -40t-29.5 -38l-21 -27q20 -1 37.5 -13t27.5 -29zM269 431q-29 -11 -53.5 -25.5l-51.5 -29.5l-12 -54.5l-12 -54.5q15 13 35 23.5
t37 30.5q9 11 18.5 25.5t18.5 30l17.5 31t16.5 28.5q-4 -2 -7.5 -2.5t-6.5 -2.5zM166 132l23 20t34 33t28 34.5t4 25.5l-135 -62l-12 -52.5t-11 -52.5l34.5 26.5z" />
    <glyph glyph-name="uni0063" unicode="c" horiz-adv-x="420" 
d="M334 178q4 4 10 4q10 0 22 -7.5t21 -18t13 -21t-2 -16.5q-24 -23 -55.5 -44.5t-66 -38t-71 -26.5t-71.5 -10q-23 0 -45.5 5t-42 16t-34.5 28.5t-21 42.5q-4 15 -2 30t7.5 29.5t13 28l14.5 26.5q51 87 118.5 159.5t149.5 129.5q5 3 11 3q10 0 22 -8t21.5 -18.5t13 -20.5
t-2.5 -15q-87 -59 -157.5 -136t-120.5 -170q-6 -11 -12 -23.5t-8 -26.5q-1 -5 0 -9t-1 -5q3 -1 10 -1q5 -1 15 -1q33 0 67.5 9.5t67.5 25.5t63 36.5t53 42.5z" />
    <glyph glyph-name="uni0064" unicode="d" horiz-adv-x="385" 
d="M308 483q50 -34 58.5 -84t-10.5 -103q-33 -96 -98 -174t-150 -132q-2 -12 -3 -24l-2 -24q-1 -10 -14 -10q-8 0 -18.5 4t-20 11t-16.5 14.5t-8 15.5q-17 11 -26 25.5t2 20.5q8 5 15 8.5t15 8.5l23.5 220l23.5 220q1 10 13 10q13 0 30 -10q25 14 50 22t51 8q21 0 42 -6.5
t43 -20.5zM245 263q10 18 20 38t17.5 41t11 43t-0.5 43q-5 26 -26 26q-5 0 -11.5 -2t-14.5 -4q-25 -6 -47 -19t-42 -27l-16 -148.5l-16 -147.5q38 33 69.5 72.5t55.5 84.5z" />
    <glyph glyph-name="uni0065" unicode="e" horiz-adv-x="355" 
d="M369 462q2 -3 4.5 -7.5t3 -9t-1.5 -8t-8 -3.5q-103 -7 -198 -49q-26 -54 -45 -115q24 14 49.5 23.5t52.5 17.5q16 0 24.5 -3t21.5 -14q2 -1 6 -6t7 -11t3 -10.5t-6 -6.5q-51 -14 -97 -37.5t-87 -58.5q-6 -34 -9 -69q42 18 85 26t88 8q14 -1 26.5 -8t20.5 -17q2 -3 4.5 -8
t3.5 -9.5t-1 -8t-9 -3.5q-75 0 -140.5 -22.5t-125.5 -67.5q-2 -2 -9 -2q-9 0 -20 6.5t-19.5 15t-11.5 17.5t4 14l16.5 12t17.5 11q0 30 2.5 59.5t6.5 58.5l5 30q12 68 34 127q-9 1 -20 8t-19.5 15.5t-11 17t4.5 12.5q68 44 144 69.5t157 30.5q14 0 26.5 -7.5t20.5 -17.5z
" />
    <glyph glyph-name="uni0066" unicode="f" horiz-adv-x="339" 
d="M347 514q3 -3 6 -7.5t3.5 -9t-1.5 -8t-9 -3.5q-116 -12 -218 -60q-4 -33 -7 -66.5t-7 -66.5q70 35 149 41q14 0 27 -7t22 -18q5 -6 8.5 -16.5t-10.5 -12.5q-114 -9 -206 -81q-5 -49 -9.5 -97.5t-9.5 -97.5q-1 -9 -12 -9q-8 0 -18.5 4.5t-19.5 11t-15 14t-5 14.5l8 82
t9 82q-8 8 -12 15.5t1 11.5q4 4 7.5 7t7.5 6l15 150q-10 3 -20.5 10t-18 15t-9.5 16t5 12l25.5 14t25.5 13q1 5 1 10t1 10q2 9 12 9q12 0 29 -10q94 37 196 48q14 0 27.5 -7.5t21.5 -18.5z" />
    <glyph glyph-name="uni0067" unicode="g" horiz-adv-x="448" 
d="M415 429q-37 -1 -72 -14t-66.5 -34t-59 -47.5t-49.5 -53.5q-16 -19 -33.5 -44.5t-30 -53.5t-16.5 -57t8 -55q7 -16 31 -16q19 0 43.5 8.5t47.5 20.5t41.5 24t25.5 18q11 10 22.5 22.5t20.5 26.5t14.5 29t3.5 31q-3 9 -12 9q-16 0 -36 -11.5t-39 -27.5t-35 -34t-24 -31
q-4 -6 -13 -6t-20 5.5t-20.5 13.5t-14.5 17t-1 16q12 20 30.5 40.5t41 37.5t48.5 28t51 11q19 0 38 -7.5t35 -20t27 -29t15 -35.5q4 -21 -1.5 -40.5t-16.5 -37.5t-25.5 -33.5t-28.5 -28.5q-37 -32 -84.5 -55t-96.5 -23q-27 0 -53.5 8.5t-50.5 28.5q-35 29 -43.5 65t-0.5 74
t28 74.5t42 66.5q24 32 55 63.5t67.5 56.5t77 40t82.5 15q14 0 27 -8t22 -18q3 -3 5.5 -8t3.5 -9.5t-1.5 -8t-9.5 -3.5z" />
    <glyph glyph-name="uni0068" unicode="h" horiz-adv-x="390" 
d="M337 500q3 6 11 6t19 -5.5t20.5 -13.5t15 -17.5t2.5 -17.5l-31 -90.5l-29 -91.5q5 -8 8.5 -16.5t-5.5 -10.5q-3 -1 -6.5 -1.5t-6.5 -1.5q-19 -64 -36 -128l-33 -129q-1 -10 -14 -10q-8 0 -18.5 5t-19.5 12t-14.5 15.5t-4.5 15.5q11 48 23.5 94.5l25.5 93.5
q-38 -17 -74.5 -37t-71.5 -46q-10 -38 -18.5 -77l-16.5 -78q-1 -10 -13 -10q-8 0 -18.5 5t-19.5 12t-15 15.5t-5 15.5q23 116 53 229.5t65 225.5q2 6 10 6t19 -5t20.5 -13t15.5 -17.5t3 -18.5l-27 -90l-26 -90q71 37 144 56l33 104.5z" />
    <glyph glyph-name="uni0069" unicode="i" horiz-adv-x="122" 
d="M102 488q2 5 8 5q7 0 16 -6t17 -14.5t12 -18.5t1 -19q-44 -107 -80.5 -215.5t-68.5 -220.5q-3 -10 -12 -10q-7 0 -16 5.5t-16 13.5t-11.5 17t-2.5 16q65 230 153 447z" />
    <glyph glyph-name="uni006A" unicode="j" horiz-adv-x="282" 
d="M330 500q2 -1 5.5 -6t6.5 -10t3.5 -9.5t-5.5 -6.5q-30 -8 -61 -21q-4 -23 -12 -62.5t-19 -86t-24.5 -96t-29 -93t-32.5 -77t-34 -47.5q-10 -9 -21.5 -12.5t-23.5 -3.5q-16 0 -32 6t-29 16t-22.5 23.5t-13.5 28.5q-4 17 -2 34.5t7 34.5t11.5 34t11.5 33q2 9 13 9
q8 0 18 -4.5t18 -11t13.5 -14t3.5 -13.5q-8 -26 -18 -51.5t-12 -53.5q0 -5 0.5 -9.5t0.5 -9.5q8 4 10 4q16 9 31.5 36.5t30 64.5t27 79.5t23 82t17.5 72t10 49.5q-10 -5 -19 -11t-19 -12q-2 -2 -8 -2q-9 0 -20.5 6t-20 14.5t-11.5 17t4 13.5q42 27 86 47.5t92 33.5q3 1 8 1
q11 0 20.5 -5t17.5 -12z" />
    <glyph glyph-name="uni006B" unicode="k" horiz-adv-x="429" 
d="M362 479q10 0 22 -6.5t21 -15.5t12.5 -18t-4.5 -13q-28 -15 -62 -36.5t-68 -46.5l-65.5 -50t-55.5 -46q42 -60 88 -115t100 -106q5 -5 0.5 -13t-13.5 -16t-20.5 -14t-20.5 -6q-8 0 -13 4q-46 45 -87.5 93t-79.5 100q-11 -49 -19.5 -98.5t-14.5 -99.5q-1 -9 -12 -9
q-8 0 -18 4.5t-19 11t-15 14t-5 14.5q7 56 16.5 111t21.5 109q-7 11 -1 17q2 2 3.5 4t3.5 4q15 64 33 126.5t40 124.5q2 6 10 6t19 -5t20 -12.5t14.5 -16.5t2.5 -17l-19.5 -58.5l-18.5 -59.5l23 17l37 27l44 31l43.5 29.5t36 22t20.5 8.5z" />
    <glyph glyph-name="uni006C" unicode="l" horiz-adv-x="351" 
d="M291 102q9 -1 20.5 -9.5t20 -18.5t9 -18t-13.5 -8q-10 1 -17.5 1.5t-14.5 0.5q-62 0 -120 -19t-109 -54q-2 -2 -9 -2q-9 0 -21 6.5t-21 15.5t-12.5 18t4.5 14l16.5 10l16.5 10l32.5 218l31.5 218q1 9 13 9q8 0 18.5 -4.5t19.5 -11t14.5 -14.5t4.5 -15l-27 -183l-26 -183
q32 11 65 15.5t68 4.5h18t19 -1z" />
    <glyph glyph-name="uni006D" unicode="m" horiz-adv-x="460" 
d="M69 6q-3 -6 -10 -6t-17 5.5t-18.5 13.5t-14 17.5t-3.5 18.5l28 132.5t28.5 126t29 102.5t27.5 62q6 7 17 7q14 0 30 -9t19 -17q23 -51 33 -106.5t18 -109.5l45 119t57 112q3 6 11 6q7 0 16 -4.5t16.5 -11.5t13 -14.5t6.5 -12.5q17 -105 21 -210t-7 -211q-1 -10 -11 -10
q-7 0 -17 4.5t-18.5 12t-14.5 16t-5 15.5q14 142 3 284q-33 -66 -59 -136t-50 -142q-3 -7 -10 -7t-16 5.5t-17.5 13.5t-14.5 16.5t-6 14.5q-8 48 -12 94t-10 93l-9 72q-11 -31 -18 -70.5l-14.5 -85.5t-18 -96.5t-28.5 -103.5z" />
    <glyph glyph-name="uni006E" unicode="n" horiz-adv-x="460" 
d="M377 479q3 11 15 11q9 0 21 -5t22 -13t16 -16.5t4 -16.5l-30 -113l-26 -97l-26 -97l-30 -114q-3 -12 -15 -12q-8 0 -18.5 5t-19.5 12t-15.5 15t-8.5 13q-20 79 -42.5 157t-55.5 153q-31 -97 -51 -187.5t-31 -191.5q-1 -11 -14 -11q-9 0 -20.5 5t-21.5 12.5t-16.5 16.5
t-5.5 16q13 122 39 231t67 224q3 8 11 8t17.5 -5t19 -11.5t16.5 -13t8 -9.5q38 -62 64.5 -127t47.5 -134z" />
    <glyph glyph-name="uni006F" unicode="o" horiz-adv-x="412" 
d="M374 441q29 -30 37.5 -71.5t3 -85.5t-22 -85.5t-36.5 -73.5q-15 -24 -37 -48t-48 -43.5t-55.5 -32t-59.5 -12.5q-31 0 -61 15q-30 16 -49.5 39.5t-30 51.5t-13.5 59.5t0 62.5q6 48 24 96.5t48 88.5t72 65t96 25q29 0 57.5 -8.5t53.5 -25.5q6 -3 11 -8q4 -2 6 -4.5t4 -4.5
zM340 325q2 24 2 53t-14 51l-7.5 2.5t-6.5 1.5q-15 3 -29 3q-27 -1 -48.5 -7.5t-39.5 -18.5t-33.5 -29.5t-30.5 -40.5q-53 -79 -59 -173q-2 -23 -1 -45.5t9 -44.5q2 -7 6.5 -17.5t11.5 -14.5q3 -2 11 -2t16.5 2t13.5 4q41 14 76 43t61 66.5t42.5 81t19.5 85.5z" />
    <glyph glyph-name="uni0070" unicode="p" horiz-adv-x="383" 
d="M302 488q19 -4 34.5 -14.5t25.5 -25t13 -32t-5 -37.5q-10 -28 -39.5 -57.5t-66 -56.5t-74 -49t-64.5 -36q-14 -48 -25 -96.5t-21 -97.5q-1 -10 -13 -10q-8 0 -18 4.5t-19 11t-15 14.5t-5 15q17 87 39 170q-8 8 -11.5 16t4.5 12q5 2 9 4.5t8 4.5q16 54 34.5 107t38.5 105
q-7 8 -8.5 15t5.5 9q30 11 64 20t67 9q11 0 21 -1t21 -4zM306 434q-13 -1 -25.5 -1t-24.5 -2t-23.5 -5l-22.5 -6q-29 -69 -51 -136q17 11 40 28t45.5 37t39.5 42t22 43z" />
    <glyph glyph-name="uni0071" unicode="q" horiz-adv-x="389" 
d="M361 31q5 -6 0.5 -15t-13.5 -17t-21 -14t-21 -6q-8 0 -13 6l-13 16t-6.5 9t-6 9t-12.5 17q-23 -20 -48.5 -33t-52.5 -13q-14 0 -27.5 3.5t-27.5 11.5q-27 16 -44.5 39t-27 50t-12 56.5t-0.5 59.5q3 39 16 86t36.5 89t58.5 71t81 32q33 0 63.5 -7t56.5 -30q5 -3 8 -6.5
t5 -6.5q26 -31 34 -72t3 -84.5t-19.5 -85t-32.5 -73.5q-7 -13 -15 -23l15.5 -21.5l10 -13.5l10 -13.5zM136 50q20 8 38 21t34 30l-29.5 43l-28.5 43q-4 7 0.5 16t14 17t21 13.5t20.5 5.5t12 -6l20 -30.5t21 -30.5l10 21t9 21q11 26 17.5 53.5t8.5 56.5q1 11 1.5 25t0 28.5
t-3.5 28.5t-10 24q-5 2 -12 2.5t-15 0.5q-7 0 -10 -1q-24 -1 -42.5 -10.5t-33.5 -24.5t-26.5 -33t-22.5 -38q-21 -38 -31.5 -79t-13.5 -84q-1 -22 0.5 -44t7.5 -43q3 -8 6.5 -16.5t8.5 -15.5q14 1 28 6z" />
    <glyph glyph-name="uni0072" unicode="r" horiz-adv-x="405" 
d="M260 486q19 -1 41 -8t41.5 -20t32 -30.5t11.5 -40.5q-2 -23 -15.5 -40t-28.5 -32q-29 -31 -60 -59.5l-63 -55.5q60 -69 104 -144q5 -7 -0.5 -17t-15 -18t-22 -14t-21.5 -6q-8 0 -13 6q-22 38 -50 70l-56 65q-8 -6 -12 -8.5t-5.5 -4t-3 -2.5t-5.5 -4q-15 -69 -27 -138
q-1 -10 -14 -10q-9 0 -20 5t-20.5 12t-15.5 16t-5 16q17 94 36.5 187t41.5 187q-10 5 -20 12.5t-16.5 15.5t-8 14.5t5.5 9.5q51 19 100 27.5t104 8.5zM270 363l21 22t16 20.5t0.5 15.5t-26.5 6h-10q-23 -2 -44.5 -5.5t-43.5 -8.5l-19.5 -82.5l-18.5 -82.5q33 27 64 55.5
t61 59.5z" />
    <glyph glyph-name="uni0073" unicode="s" horiz-adv-x="306" 
d="M260 306q-1 -9 -11 -9q-7 0 -16.5 4.5t-18 11t-13 14t-3.5 14.5l4 22l4 22q-54 -51 -89 -120q-4 -8 -7.5 -14t0.5 -6l36 15t32 11q4 1 7 1.5t7 0.5q23 0 45.5 -14.5t25.5 -39.5q2 -17 -7.5 -31l-17.5 -26q-21 -31 -40 -54.5t-37 -43.5l-35.5 -38.5t-35.5 -41.5
q-5 -5 -12 -5q-8 0 -18 5.5t-18.5 13t-12.5 16.5t0 15q14 20 29.5 36l33.5 34t37 39.5t38 50.5q1 3 5 9q-8 -4 -13 -5q-16 -7 -34 -16t-35 -9h-5q-16 2 -33 14.5t-22 29.5q-4 14 2 31t10 30q26 71 74.5 126.5t111.5 88.5q4 2 7 2q8 0 17 -4t17 -10.5t13 -14.5t4 -15
q-7 -35 -13 -70t-13 -70z" />
    <glyph glyph-name="uni0074" unicode="t" horiz-adv-x="274" 
d="M308 508q10 0 24 -8.5t24 -19t12 -19.5t-11 -11q-88 -13 -172 -47q-26 -103 -45 -205.5t-32 -206.5q-1 -10 -13 -10q-8 0 -19.5 4.5t-21 12t-16 16t-5.5 15.5q10 83 24 164.5t32 162.5l-45 -28.5t-44 -31.5q-3 -3 -10 -3q-10 0 -22.5 7t-22 16t-13.5 19t4 16
q81 63 174.5 102.5t195.5 54.5h2z" />
    <glyph glyph-name="uni0075" unicode="u" horiz-adv-x="411" 
d="M55 471q3 11 17 11q9 0 21 -5t22 -12t16 -15.5t4 -15.5q-8 -31 -15.5 -68.5t-14.5 -76.5t-11.5 -77t-6.5 -70q-1 -14 -1 -29t2 -29q2 -10 5 -20.5t8 -12.5q7 -4 18 -4q19 0 39 10t33 19q22 17 38 40t27.5 49.5t18.5 54.5t12 54l9 52t7 44.5t4.5 44t2.5 52.5q0 11 13 11
q9 0 20.5 -4.5t22 -11.5t17.5 -15.5t7 -16.5q-1 -37 -3 -67t-6 -59t-10.5 -58.5t-16.5 -65.5q-8 -30 -20.5 -60.5t-31.5 -56t-44.5 -44t-59.5 -26.5q-13 -4 -32 -4q-28 0 -55 10t-49 27.5t-36.5 42t-18.5 53.5q-5 36 -1 74t9 73q3 21 7.5 47.5t10 54t11.5 54t11 46.5z" />
    <glyph glyph-name="uni0076" unicode="v" horiz-adv-x="432" 
d="M345 522q4 6 15 6t24 -6.5t23.5 -15.5t16 -19t-0.5 -17q-92 -118 -166.5 -245.5t-131.5 -265.5q-2 -6 -11 -6q-10 0 -21.5 4.5t-21.5 12t-17 17t-9 19.5q-36 227 -30 455q0 10 13 10q9 0 20.5 -5t22.5 -12.5t18.5 -16.5t7.5 -18q-2 -70 0 -139.5t8 -138.5
q51 102 110.5 197t129.5 184z" />
    <glyph glyph-name="uni0077" unicode="w" horiz-adv-x="450" 
d="M359 476q3 6 10 6t17 -5t18.5 -13.5t14 -18t3.5 -18.5l-27.5 -131.5t-29 -126t-28.5 -103t-28 -62.5q-6 -7 -17 -7q-14 0 -29.5 9t-19.5 17q-23 52 -32.5 107t-17.5 109l-45 -119t-57 -112q-4 -6 -12 -6q-7 0 -15.5 5t-16.5 11.5t-13.5 14t-6.5 12.5q-33 212 -14 421
q1 10 12 10q7 0 16.5 -4.5t18 -12t14.5 -15.5t5 -16q-7 -71 -7.5 -141.5t5.5 -142.5q32 66 58 136.5l50 141.5q3 7 10 7t16.5 -5.5t18 -13.5t14.5 -16.5t6 -14.5q8 -48 11.5 -93.5t10.5 -93.5l4 -36t5 -36q11 31 17.5 70.5l14 85.5t18 96.5t28.5 103.5z" />
    <glyph glyph-name="uni0078" unicode="x" horiz-adv-x="426" 
d="M378 518q7 5 15 5q12 0 26.5 -7.5t25.5 -17.5t16.5 -20t-0.5 -16q-60 -56 -115.5 -114t-108.5 -121q15 -58 33 -114.5t38 -113.5q4 -11 -1.5 -14.5t-13.5 -3.5q-7 0 -17 2q-15 5 -30.5 17t-21.5 28l-22 65.5t-21 65.5q-29 -35 -56 -71.5l-53 -74.5q-4 -7 -15 -7t-25 7
t-25.5 16.5t-17 20.5t-0.5 19q75 107 159 207l-12.5 48l-15 57.5l-14.5 57.5t-11 49q-3 17 14 17q9 0 20.5 -4.5t22 -11.5t19 -15t9.5 -16q2 -8 5.5 -23.5t8 -33l8.5 -33l6 -23.5l83 88z" />
    <glyph glyph-name="uni0079" unicode="y" horiz-adv-x="251" 
d="M258 493q4 5 13 5q10 0 22 -6t21.5 -14t14.5 -17.5t0 -15.5l-57.5 -79.5l-57.5 -79.5l-27.5 -38l-27.5 -39q-8 -10 -17 -26t-21 -24q-11 -48 -19 -96.5t-13 -98.5q-1 -10 -13 -10q-8 0 -19 4.5t-20.5 12t-16 15.5t-5.5 16q9 95 30 188q-11 22 -10 46t-1 43l-12 193
q0 9 12 9q9 0 19.5 -4t20 -10.5t16 -15t6.5 -17.5l4 -65l4 -65q1 -5 1 -11v-12l76.5 105.5z" />
    <glyph glyph-name="uni007A" unicode="z" horiz-adv-x="465" 
d="M357 45q2 -3 4 -7.5t2.5 -9.5t-2 -8t-9.5 -3q-16 1 -30 1.5t-26 0.5q-28 0 -49.5 -2.5t-43.5 -8t-47.5 -13.5t-61.5 -18q-9 0 -19.5 5t-18 13t-10.5 17.5t3 17.5l56 81.5l61.5 90.5l62.5 90t59 80l-168 -45q-11 0 -24 8t-22.5 19t-12.5 22t5 16l292 79q9 0 21.5 -5
t23 -13.5t15 -17.5t-1.5 -17q-31 -38 -65 -84l-67.5 -94l-66 -94.5l-61.5 -86.5q19 5 33.5 9.5t28 8t28 5.5t33.5 2h16.5t19.5 -2q14 -1 24 -13t18 -24z" />
    <glyph glyph-name="uni007B" unicode="{" horiz-adv-x="212" 
d="M22 227q11 8 21 18t14 23q5 18 6 33t-1 33q-1 21 -1.5 42t0.5 42l2 40t3 40q2 17 4.5 34t10.5 33q5 9 14 18.5t21 17t26 12t27 4.5q16 0 30 -8q6 -4 6 -12t-4 -16.5t-10.5 -14.5t-12.5 -6q-7 3 -21.5 10t-18.5 8q-3 -2 -5 -5.5t-2 -4.5q-1 -5 -3 -13q-2 -17 -3.5 -33
t-3.5 -33q-3 -33 -3 -66.5t2 -67.5q1 -13 3 -27t2 -28t-3.5 -27t-13.5 -25q-14 -16 -32 -27.5t-32 -26.5q11 -5 23 -8t25 -5l6 -2t3 -5q-2 -45 -3 -90.5t-3 -90.5q-1 -17 1 -35t20 -29q8 -5 19 -7t22 -2t21 1t20 3h4q16 0 8 -15q-6 -9 -17 -14t-23.5 -8t-25.5 -3.5t-23 -0.5
q-16 0 -30.5 2.5t-26 9.5t-18.5 19t-9 31q-2 24 0 48t3 48l3 104q-53 11 -58 30.5t37 51.5z" />
    <glyph glyph-name="uni007C" unicode="|" horiz-adv-x="265" 
d="M117 548q0 8 12 8q8 0 17.5 -3.5t18 -9.5t14.5 -14t5 -16q-3 -38 -6 -88.5t-6 -107.5t-5 -117t-3 -117.5t-1.5 -108.5t0.5 -89q0 -13 -15 -13q-7 0 -16.5 3t-17.5 8.5t-13.5 12t-5.5 13.5q-1 39 -0.5 91t1.5 110t3 119t5 119t6.5 109.5t6.5 90.5z" />
    <glyph glyph-name="uni007D" unicode="}" horiz-adv-x="212" 
d="M175 227q42 -32 37.5 -51.5t-57.5 -30.5q1 -26 1.5 -52t1.5 -52q1 -24 3 -48t0 -48q-1 -19 -8.5 -31t-19 -19t-26 -9.5t-30.5 -2.5q-10 0 -22.5 0.5t-25.5 3.5t-24 8t-17 14q-5 7 -2.5 11t10.5 4h4q9 -2 19.5 -3t21.5 -1t21.5 2t19.5 7q18 11 20 29t1 35q-2 45 -3 90.5
t-3 90.5q0 4 3 5l6 2q13 2 24.5 5t23.5 8q-14 15 -32.5 26.5t-31.5 27.5q-10 12 -13.5 25t-3.5 27t2 28t3 27q2 34 1.5 67.5t-2.5 66.5q-2 17 -3.5 33t-3.5 33q-2 8 -3 13q0 1 -1.5 4.5t-1.5 5.5q-7 -1 -21.5 -7.5t-17.5 -8.5q-8 -1 -15.5 5t-12 14t-5 16t6.5 12q14 8 30 8
q27 0 52.5 -17t35.5 -35q6 -11 9.5 -30.5t6 -41t3.5 -42t1 -33.5q1 -21 0.5 -42t-1.5 -42q-2 -18 -1 -33t6 -33q4 -13 13.5 -23t20.5 -18z" />
    <glyph glyph-name="uni007E" unicode="~" horiz-adv-x="291" 
d="M60 158q-3 -7 -12 -7q-7 0 -16 3.5t-16.5 8t-12.5 10.5t-3 10q12 50 45 92q7 8 14 14t19 6q28 0 51 -21q2 -2 8 -10t13.5 -19l15.5 -22.5l14 -20.5q15 14 26 34t19 38q3 4 9 4q7 0 16 -3.5t17.5 -9t13 -11.5t2.5 -12l-12 -25.5t-16.5 -28t-22 -23t-29.5 -9.5
q-3 0 -6.5 0.5t-8.5 1.5q-20 6 -33 18t-23 27q-6 8 -11.5 17t-11.5 17q-4 6 -5 9q-8 -8 -13.5 -17.5t-7.5 -14.5q-15 -25 -23 -56z" />
    <glyph glyph-name="uniF700" unicode="&#xf700;" horiz-adv-x="356" 
d="M82 283q-5 -2 -18.5 -5.5t-25.5 -3.5q-6 0 -10.5 1t-6.5 6q-9 31 -0.5 56.5t27.5 43.5t45 28t50 10q13 0 25 -3q18 -5 42 -15t41 -10q10 0 15 5l3 3t2 3.5t3.5 6.5t7.5 13q2 3 8 3t14 -3t14.5 -7t11 -9t2.5 -9q-2 -3 -5.5 -7.5t-14.5 -21.5q-10 -15 -20 -25.5t-25 -10.5
q-3 0 -11 2q-14 4 -26.5 11l-24.5 13.5t-25 11t-28 4.5q-13 0 -27.5 -2.5t-26 -8.5t-18.5 -15.5t-5 -22.5q33 11 62 11q31 0 57 -14t43 -46q14 -27 16 -59.5t-3 -65.5t-14.5 -65t-18.5 -58q-3 -7 -20.5 -15.5t-31.5 -8.5q-11 0 -14 7q-8 31 -13.5 63.5t-13.5 64.5
q-3 10 -5.5 22t-5.5 23t-6 18.5t-5 7.5q-5 -8 -9.5 -14l-8.5 -11h-3q-12 0 -23 6.5t-9 11.5q11 23 24.5 36t39.5 13q15 -1 27.5 -16.5t22.5 -35.5t17 -41t10 -34q5 18 5 36.5t-2 34.5q-2 17 -8.5 33.5t-17 29t-25.5 20t-35 7.5q-11 0 -25 -3z" />
    <glyph glyph-name="uniF701" unicode="&#xf701;" 
d="M-138 464q2 -4 -4 -7.5t-14.5 -5.5t-18 -3.5t-14.5 -1.5h-4q-15 4 -31.5 14.5t-32.5 23.5l-32 27t-31 24l-36.5 26.5t-36.5 21.5q0 -9 6 -24.5t17 -23.5q20 -23 53 -38.5t64 -28.5q4 -4 1 -8t-9 -6.5t-12.5 -4t-8.5 -1.5q-47 5 -91 23.5t-68 51.5q-8 12 -10 27t2 29
t14.5 26.5t28.5 18.5q11 4 24 4q29 0 61 -19t63.5 -45.5l62 -54.5t57.5 -45z" />
    <glyph glyph-name="uniF702" unicode="&#xf702;" 
d="M-179 575q-1 -21 -1.5 -30t-1 -15t-1 -13t-1.5 -24q-1 -9 -9.5 -12.5t-20.5 -3.5q-5 0 -10 0.5t-10 1.5q-15 3 -40.5 17t-51.5 30l-47.5 28.5t-29.5 12.5q-5 0 -3 -5q3 -15 19.5 -31.5t37.5 -30t42 -22t35 -8.5q6 0 15 -5t16 -11t8 -11.5t-11 -5.5q-47 0 -85.5 8.5
t-77.5 37.5q-12 9 -28.5 29.5t-19.5 51.5q-2 23 11.5 32t33.5 9q14 0 30 -4t29 -10l65 -31.5t52 -26.5q1 14 1.5 17.5t0.5 6t0.5 7t1.5 20.5q0 8 14 8q11 0 24 -5t13 -12z" />
    <glyph glyph-name="uniF703" unicode="&#xf703;" 
d="M-117 521q6 -18 7.5 -34.5t-12.5 -36.5q-10 -14 -23.5 -20.5t-28.5 -6.5q-17 0 -33.5 7.5t-26.5 18.5q-19 20 -43 41.5t-47 38.5t-42 28t-28 11q-6 0 -6 -4q0 -20 17 -39t40 -35.5t47.5 -29t39.5 -19.5q4 -4 1 -7.5t-9 -5.5t-12.5 -3.5t-9.5 -1.5q-39 5 -75.5 27
t-58.5 48q-13 15 -21 33t-9 34t6.5 29t24.5 19q11 4 24 4q24 0 48 -13t46 -31t41.5 -37t34.5 -31q7 18 19.5 34.5t34.5 16.5q20 0 35.5 -12.5t18.5 -22.5zM-157 474q0 3 1.5 3t4.5 16q2 6 -3.5 13t-12.5 7q-6 0 -10 -6q-15 -22 -16 -29.5t4 -12.5q3 -3 12 -3q5 0 11 2.5
t9 9.5z" />
    <glyph glyph-name="uniF704" unicode="&#xf704;" 
d="M-249 590q2 -9 2.5 -22t0.5 -26.5v-26v-21.5q0 -6 -8 -8t-18 -2q-6 0 -11 0.5t-8 0.5q-38 11 -70.5 30t-59.5 44q-8 7 -18.5 15t-21.5 12q0 -16 9 -29.5t23 -25t29.5 -19.5t29.5 -13q11 -4 5 -6.5t-10 -2.5q-35 0 -68.5 9t-53.5 36q-6 7 -10.5 17t-6 20.5t0.5 21t10 17.5
q17 14 42 14q29 0 55 -16q15 -8 28 -19l25.5 -22t26.5 -21t30 -16q0 10 1 27t1 27q2 6 10 8.5t16 2.5q16 0 19 -6zM-180 577q8 -38 0 -74q-2 -5 -10.5 -7.5t-17.5 -2.5q-8 0 -13 1.5t-5 4.5q0 20 2.5 38.5t2.5 39.5q0 4 5.5 5.5t13.5 1.5q7 0 13.5 -1.5t8.5 -5.5z" />
    <glyph glyph-name="uni2026" unicode="&#x2026;" horiz-adv-x="527" 
d="M98 68q11 -3 17 -12.5t1 -20.5q-3 -7 -11.5 -12.5t-16.5 -5.5q-5 0 -10 3q-12 7 -16 20q-2 5 -3 11t4 11q5 3 11.5 5.5t13.5 2.5q4 0 10 -2zM269 68q11 -3 17 -12.5t1 -20.5q-3 -7 -11.5 -12.5t-16.5 -5.5q-5 0 -10 3q-12 7 -16 20q-2 5 -3 11t4 11q5 3 11.5 5.5
t13.5 2.5q4 0 10 -2zM451 68q11 -3 17 -12.5t1 -20.5q-3 -7 -11.5 -12.5t-16.5 -5.5q-5 0 -10 3q-12 7 -16 20q-2 5 -3 11t4 11q5 3 11.5 5.5t13.5 2.5q4 0 10 -2z" />
    <glyph glyph-name="uniF705" unicode="&#xf705;" 
d="M-213 616q3 4 15 4q10 0 16 -2q10 -5 10.5 -10.5t0.5 -15.5q0 -29 -0.5 -47t-5.5 -47q-1 -5 -7 -6.5t-14 -1.5t-15.5 2.5t-7.5 7.5q1 30 0.5 57t7.5 59z" />
    <glyph glyph-name="uniF706" unicode="&#xf706;" 
d="M-143 558q4 0 6 -6.5t2 -14.5t-1.5 -15.5t-4.5 -9.5q-4 -2 -17.5 -7.5t-32.5 -11t-41.5 -10t-44.5 -4.5h-9.5t-9.5 1t-8 12t-1 14q12 17 22 27.5t20 30.5q5 10 4 19t-12 9h-3q-6 0 -9.5 -5t-5.5 -22q-6 0 -17.5 3.5t-13.5 10.5q-1 11 5 21t16.5 17.5t24 11.5t25.5 4
q11 0 19.5 -4t12.5 -13q14 -30 4.5 -51.5t-29.5 -41.5q15 3 31 8.5l30 10.5t24.5 9.5t13.5 6.5z" />
    <glyph glyph-name="uniF707" unicode="&#xf707;" 
d="M-137 600q1 3 13 3q9 0 18 -2t8 -5q-6 -51 -38 -85t-77 -45h-7q-8 0 -14 1.5t-5 6.5q5 22 11.5 48t2.5 50q-3 -4 -6.5 -10t-6.5 -13t-6 -12.5t-5 -8.5q-3 -3 -11 -3q-11 0 -18 8t-14.5 15.5t-15.5 16.5v2q-1 -3 -2 -5.5t-1 -4.5q-8 -25 -7 -45q0 -10 3 -18q11 6 14 14
q5 0 15 -2t13 -7q1 -8 -7 -17t-22 -13q-3 0 -5.5 -0.5t-5.5 -0.5q-14 0 -26.5 6t-15.5 23q-2 10 0 27.5t8 35t16 30.5t24 13q6 0 9 -1q10 -3 18.5 -15.5t18.5 -20.5q7 12 17 26.5t24 20.5q6 3 12 3q13 0 18.5 -12.5t6 -29.5t-2 -34t-5.5 -25q24 16 33.5 36.5t20.5 48.5z" />
    <glyph glyph-name="uniF708" unicode="&#xf708;" 
d="M-75 569q5 -3 3 -12.5t-4 -11.5q-5 -8 -14 -8h-43l-2 -24t-3 -24q-2 -5 -7.5 -7.5t-12.5 -2.5q-8 0 -13.5 2.5t-5.5 7.5q-2 13 -2 24.5v24.5q-14 0 -26 1t-26 4q-5 1 -7.5 6.5t-2.5 12t3 12t8 5.5q13 2 25.5 2.5t26.5 0.5q1 16 2.5 30.5t9.5 26.5q2 3 10.5 4.5t14.5 1.5
q6 -3 8 -7.5t2 -12t-1 -18t-1 -26.5q16 0 31 -2t27 -10z" />
    <glyph glyph-name="uniF709" unicode="&#xf709;" 
d="M-210 510q3 1 6.5 -2t7 -7.5t5.5 -9.5t1 -8q-5 -14 -17.5 -21t-26.5 -7q-10 0 -19.5 3t-16.5 9.5t-11.5 16t-3.5 21.5q2 25 20 38t41 17q6 2 18 4l25 4t25 4.5t20 4.5l17.5 4.5t17.5 2.5q16 0 20 -13q2 -8 0.5 -8.5t-5.5 -2.5q-32 -16 -60 -20t-64 -10q-9 -1 -20.5 -5.5
t-13.5 -15.5q-1 -5 1.5 -10.5t8.5 -5.5h2q4 1 8.5 3.5t13.5 13.5z" />
    <glyph glyph-name="uniF70A" unicode="&#xf70a;" 
d="M-56 616q3 4 15 4q10 0 16 -2q10 -5 10.5 -10.5t0.5 -15.5q0 -29 -0.5 -47t-5.5 -47q-1 -5 -7 -6.5t-14 -1.5t-15.5 2.5t-7.5 7.5q1 30 0.5 57t7.5 59z" />
    <glyph glyph-name="uniF70B" unicode="&#xf70b;" 
d="M7 558q5 0 6.5 -6.5t1.5 -14.5t-1.5 -15.5t-4.5 -9.5q-4 -2 -17.5 -7.5t-32.5 -11t-41.5 -10t-44.5 -4.5h-9.5t-9.5 1t-8 12t-1 14q12 17 22 27.5t20 30.5q5 10 4 19t-12 9h-3q-6 0 -9.5 -5t-5.5 -22q-6 0 -17.5 3.5t-13.5 10.5q-1 11 5 21t16.5 17.5t24 11.5t25.5 4
q11 0 19.5 -4t12.5 -13q14 -30 4.5 -51.5t-29.5 -41.5q15 3 31 8.5l30 10.5t24.5 9.5t13.5 6.5z" />
    <glyph glyph-name="uniF70C" unicode="&#xf70c;" 
d="M-17 600q1 3 13 3q9 0 18 -2t8 -5q-6 -51 -38 -85t-77 -45h-7q-8 0 -14 1.5t-5 6.5q5 22 11.5 48t2.5 50q-3 -4 -6.5 -10t-6.5 -13t-6 -12.5t-5 -8.5q-3 -3 -11 -3q-11 0 -18 8t-14.5 15.5t-15.5 16.5v2q-1 -3 -2 -5.5t-1 -4.5q-8 -25 -7 -45q0 -10 3 -18q11 6 14 14
q5 0 15 -2t13 -7q1 -8 -7 -17t-22 -13q-3 0 -5.5 -0.5t-5.5 -0.5q-14 0 -26.5 6t-15.5 23q-2 10 0 27.5t8 35t16 30.5t24 13q6 0 9 -1q10 -3 18.5 -15.5t18.5 -20.5q7 12 17 26.5t24 20.5q6 3 12 3q13 0 18.5 -12.5t6 -29.5t-2 -34t-5.5 -25q24 16 33.5 36.5t20.5 48.5z" />
    <glyph glyph-name="uniF70D" unicode="&#xf70d;" 
d="M12 569q5 -3 3 -12.5t-4 -11.5q-5 -8 -14 -8h-43l-2 -24t-3 -24q-2 -5 -7.5 -7.5t-12.5 -2.5q-8 0 -13.5 2.5t-5.5 7.5q-2 13 -2 24.5v24.5q-14 0 -26 1t-26 4q-5 1 -7.5 6.5t-2.5 12t3 12t8 5.5q13 2 25.5 2.5t26.5 0.5q1 16 2.5 30.5t9.5 26.5q2 3 10.5 4.5t14.5 1.5
q6 -3 8 -7.5t2 -12t-1 -18t-1 -26.5q16 0 31 -2t27 -10z" />
    <glyph glyph-name="uniF70E" unicode="&#xf70e;" 
d="M-69 510q3 1 6.5 -2t7 -7.5t5.5 -9.5t1 -8q-5 -14 -17.5 -21t-26.5 -7q-10 0 -19.5 3t-16.5 9.5t-11.5 16t-3.5 21.5q2 25 20 38t41 17q6 2 18 4l25 4t25 4.5t20 4.5l17.5 4.5t17.5 2.5q16 0 20 -13q2 -8 0.5 -8.5t-5.5 -2.5q-32 -16 -60 -20t-64 -10q-9 -1 -20.5 -5.5
t-13.5 -15.5q-1 -5 1.5 -10.5t8.5 -5.5h2q4 1 8.5 3.5t13.5 13.5z" />
    <glyph glyph-name="uniF70F" unicode="&#xf70f;" horiz-adv-x="415" 
d="M393 427q1 -28 0 -64.5t-2.5 -74.5t-3.5 -74.5t-4 -64.5q-2 -43 -16.5 -68.5t-56.5 -43.5q-13 -6 -32 -6t-40.5 9.5t-41.5 33.5q-15 18 -17.5 42t1 50t10 51.5t9.5 47.5q3 17 3 37.5t-5.5 38.5t-17.5 30.5t-34 12.5h-8q-17 -2 -34.5 -10t-30.5 -25q-8 -10 -9.5 -14.5
t2 -6.5t11 -4t16.5 -7q8 -4 6.5 -21.5t-7.5 -42t-14 -53t-14 -53.5t-7 -44t7 -25q17 0 29 15q6 1 12.5 -4.5t10.5 -14t4.5 -16.5t-5.5 -13q-26 -22 -53 -22q-24 0 -40 16q-12 12 -14.5 34t1 48t10.5 54l13 51t9 39.5t-2 19.5l-16.5 10t-10 8.5t-3.5 11t4 16.5q7 19 21 36
t32 30t39 21.5t40 9.5q4 0 7 0.5t7 0.5q37 0 63.5 -19t31.5 -60q3 -26 1 -52t-7 -51.5l-10.5 -51.5t-8.5 -52q-2 -23 9.5 -40t35.5 -17q26 0 35.5 19t9.5 42q4 67 9.5 127t6.5 122q0 5 6.5 10.5t15 11t17.5 9t14 3.5q6 0 6 -3z" />
    <glyph glyph-name="uni2018" unicode="&#x2018;" horiz-adv-x="115" 
d="M21 416q-11 11 -8 28.5t8 29.5q6 17 13 33t18 30q2 7 9.5 9.5t13.5 3.5h4.5t7 -1t5.5 -2.5t0 -4.5t-5.5 -10l-8 -16.5t-8.5 -20t-7 -19.5q11 -2 19.5 -5.5t10.5 -14.5q2 -14 -8 -24.5t-18 -15.5q-10 -5 -26 -5q-14 0 -20 5z" />
    <glyph glyph-name="uni2019" unicode="&#x2019;" horiz-adv-x="109" 
d="M85 549q10 -11 7 -28t-7 -29q-6 -17 -13 -34t-16 -31q-2 -7 -9 -9.5t-13 -3.5h-4t-6 1t-5 2.5t0 4.5q1 3 4.5 10t7 17l7.5 20.5t6 20.5q-9 2 -16.5 5.5t-9.5 14.5q-2 14 7 24.5t17 15.5q7 5 23 5q5 0 10.5 -1t9.5 -5z" />
    <glyph glyph-name="uni2022" unicode="&#x2022;" horiz-adv-x="343" 
d="M171 65q-25 0 -48 10t-40 27.5t-27 40t-10 47.5t10 47.5t27.5 40t40 27.5t47.5 10q26 0 48.5 -10t39.5 -27.5t27 -40t10 -47.5t-10 -47.5t-27.5 -40t-40 -27.5t-47.5 -10z" />
    <glyph glyph-name="uni2013" unicode="&#x2013;" horiz-adv-x="421" 
d="M9 211q-7 0 -9 6.5t-1 14t5.5 13.5t11.5 6q83 9 165.5 11t165.5 2q36 0 73 -3q7 0 11 -6.5t5 -13.5t-2 -13.5t-10 -6.5q-43 -2 -78 -4.5t-68 -4t-68 -2.5t-78 -1q-26 0 -56.5 0.5t-66.5 1.5z" />
    <glyph glyph-name="uni2014" unicode="&#x2014;" horiz-adv-x="568" 
d="M9 211q-7 0 -9 6.5t-1 14t5.5 13.5t11.5 6q116 12 234 12q36 0 86 0.5t98 0.5q32 0 60 -0.5t47 -2.5q7 0 11 -6.5t5 -13.5t-2 -13.5t-10 -6.5q-88 -5 -186 -8.5t-210 -3.5q-34 0 -69 0.5t-71 1.5z" />
    <glyph glyph-name="uniF710" unicode="&#xf710;" 
d="M-405 550q2 4 9.5 5.5t15.5 1.5q12 0 21 -2.5t6 -7.5q-5 -6 -9.5 -15t-6 -17.5t1 -15t11.5 -6.5q6 0 10 1q12 3 33.5 11t43 17l40 16.5t24.5 10.5q7 0 12 -3.5t7.5 -9.5t1.5 -12.5t-7 -11.5q-8 -7 -31.5 -19t-51 -23.5t-54 -20t-39.5 -8.5q-14 0 -26 4.5t-20 14.5
q-9 10 -11 22t0 24t7 23.5t12 20.5z" />
    <glyph glyph-name="uniF711" unicode="&#xf711;" 
d="M-104 570q17 -4 27.5 -20.5t4.5 -36.5q-5 -16 -19 -27t-31 -11q-22 0 -31.5 14t-13.5 33q-5 27 9.5 38.5t34.5 11.5h9.5t9.5 -2zM-121 503q12 0 15.5 2.5t6.5 13.5q4 10 -3 19.5t-18 9.5q-11 -3 -15.5 -10t-4 -14.5t5.5 -13.5t13 -7z" />
    <glyph glyph-name="uniF712" unicode="&#xf712;" 
d="M-274 585q-17 -16 -22.5 -36.5t-0.5 -41.5q4 18 24 18t52 -19q3 -2 4.5 -3.5t2.5 -1.5q3 16 2.5 28.5t0.5 26.5q0 4 8 4t17.5 -3.5t11.5 -8.5q6 -14 10.5 -33t0.5 -35q-4 -9 -15 -13.5t-22 -4.5q-7 0 -10 1q-8 0 -16 3.5t-16 8t-16 8.5t-16 5q-3 -3 -5 -7.5t-5 -9.5
t-14.5 -9t-22.5 -4q-12 0 -16 6q-26 43 -6 102q11 33 35 47t53 14q18 0 37 -4.5t38 -12.5q5 12 4.5 25t1.5 27q1 5 8 7t16 2q8 0 15.5 -2t7.5 -7q0 -50 -14.5 -69t-34.5 -19q-16 0 -36 10l-19.5 9t-16.5 4q-13 0 -26 -12z" />
    <glyph glyph-name="uniF713" unicode="&#xf713;" 
d="M-193 725q3 4 15 4q10 0 16 -2q10 -5 10.5 -10.5t0.5 -15.5q0 -29 -0.5 -47t-5.5 -47q-1 -5 -7 -6.5t-14 -1.5t-15.5 2.5t-7.5 7.5q1 30 0.5 57t7.5 59z" />
    <glyph glyph-name="uniF714" unicode="&#xf714;" 
d="M-143 665q4 0 6 -6.5t2 -14.5t-1.5 -15.5t-4.5 -9.5q-4 -2 -17.5 -7.5t-32.5 -11t-41.5 -10t-44.5 -4.5h-9.5t-9.5 1t-8 12t-1 14q12 17 22 27.5t20 30.5q5 10 4 19t-12 9h-3q-6 0 -9.5 -5t-5.5 -22q-6 0 -17.5 3.5t-13.5 10.5q-1 11 5 21t16.5 17.5t24 11.5t25.5 4
q11 0 19.5 -4t12.5 -13q14 -30 4.5 -51.5t-29.5 -41.5q15 3 31 8.5l30 10.5t24.5 9.5t13.5 6.5z" />
    <glyph glyph-name="uniF715" unicode="&#xf715;" 
d="M-137 721q1 3 13 3q9 0 18 -2t8 -5q-6 -51 -38 -85t-77 -45h-7q-8 0 -14 1.5t-5 6.5q5 22 11.5 48t2.5 50q-3 -4 -6.5 -10t-6.5 -13t-6 -12.5t-5 -8.5q-3 -3 -11 -3q-11 0 -18 8t-14.5 15.5t-15.5 16.5v2q-1 -3 -2 -5.5t-1 -4.5q-8 -25 -7 -45q0 -10 3 -18q11 6 14 14
q5 0 15 -2t13 -7q1 -8 -7 -17t-22 -13q-3 0 -5.5 -0.5t-5.5 -0.5q-14 0 -26.5 6t-15.5 23q-2 10 0 27.5t8 35t16 30.5t24 13q6 0 9 -1q10 -3 18.5 -15.5t18.5 -20.5q7 12 17 26.5t24 20.5q6 3 12 3q13 0 18.5 -12.5t6 -29.5t-2 -34t-5.5 -25q24 16 33.5 36.5t20.5 48.5z" />
    <glyph glyph-name="uniF716" unicode="&#xf716;" 
d="M-75 675q5 -3 3 -12.5t-4 -11.5q-5 -8 -14 -8h-43l-2 -24t-3 -24q-2 -5 -7.5 -7.5t-12.5 -2.5q-8 0 -13.5 2.5t-5.5 7.5q-2 13 -2 24.5v24.5q-14 0 -26 1t-26 4q-5 1 -7.5 6.5t-2.5 12t3 12t8 5.5q13 2 25.5 2.5t26.5 0.5q1 16 2.5 30.5t9.5 26.5q2 3 10.5 4.5t14.5 1.5
q6 -3 8 -7.5t2 -12t-1 -18t-1 -26.5q16 0 31 -2t27 -10z" />
    <glyph glyph-name="uniF717" unicode="&#xf717;" 
d="M-210 629q3 1 6.5 -2t7 -7.5t5.5 -9.5t1 -8q-5 -14 -17.5 -21t-26.5 -7q-10 0 -19.5 3t-16.5 9.5t-11.5 16t-3.5 21.5q2 25 20 38t41 17q6 2 18 4l25 4t25 4.5t20 4.5l17.5 4.5t17.5 2.5q16 0 20 -13q2 -8 0.5 -8.5t-5.5 -2.5q-32 -16 -60 -20t-64 -10q-9 -1 -20.5 -5.5
t-13.5 -15.5q-1 -5 1.5 -10.5t8.5 -5.5h2q4 1 8.5 3.5t13.5 13.5z" />
    <glyph glyph-name="uni00A0" unicode="&#xa0;" horiz-adv-x="11140" 
 />
    <glyph glyph-name="uni0E01" unicode="&#xe01;" horiz-adv-x="260" 
d="M70 21q2 -7 -5.5 -9.5t-18.5 -2.5q-8 0 -15.5 1.5t-9.5 4.5q-12 15 -14 41.5t1.5 55.5t11 56t14.5 42q4 10 7.5 17l6.5 13l6.5 13t7.5 16q0 1 -6.5 7l-15 14t-15 17t-6.5 16q0 21 10.5 40t28 32.5t38.5 21.5t41 8q30 0 60 -15q20 -10 31.5 -29t17 -42t6 -47t-1.5 -45
q-2 -56 -8 -106t-11 -104q-2 -14 -18.5 -24.5t-29.5 -10.5q-14 0 -14 13q2 33 6.5 65.5t8 65t6 65t0.5 64.5q-2 25 -5.5 45t-22.5 40q-3 3 -10 8.5t-18 5.5q-8 0 -19 -6q-8 -4 -14 -9.5t-7.5 -12.5t3.5 -17t20 -24q2 -2 6 -7t1 -16q-10 -30 -22.5 -61t-22 -64t-13 -67
t3.5 -69z" />
    <glyph glyph-name="uni0E02" unicode="&#xe02;" horiz-adv-x="263" 
d="M248 402q4 -25 7.5 -64t4 -84t-3 -90t-14.5 -81t-30.5 -59t-51.5 -23q-9 0 -21 3q-27 6 -43.5 27t-25.5 48.5t-12 58t-2 55.5q2 39 8 75.5t15 73.5q2 8 2.5 17t-3.5 9t-9 -9q-5 -13 -9.5 -26.5t-6.5 -25.5q-2 -5 -13 -5q-10 0 -20.5 4t-10.5 10q2 17 6 40t18 35
q9 9 23.5 13t28.5 4h10t9 -2q19 -2 28 -16.5t7 -34.5q-4 -36 -8.5 -69t-6.5 -64t-1.5 -61t6.5 -60q3 -15 11 -27.5t16 -12.5q6 0 11 6.5t9 23.5q9 37 10.5 72.5t0 71.5l-3 73t1.5 76q0 4 5.5 8t13.5 7.5t16.5 5.5t15.5 2q11 0 12 -5z" />
    <glyph glyph-name="uni0E03" unicode="&#xe03;" horiz-adv-x="294" 
d="M280 385l-4 -126t-7 -126q-2 -24 -6 -47.5t-14 -43t-27.5 -31.5t-47.5 -12q-20 0 -35.5 9.5t-26.5 24.5t-18 34.5t-10 39.5q-4 44 1.5 85.5t14.5 83.5q-5 -2 -12.5 -8t-16.5 -6q-22 0 -34 9t-16.5 24t-3 34t5.5 38q0 5 9 7.5t19 2.5q8 0 13.5 -1.5t5.5 -4.5
q-1 -7 -2 -17.5t-0.5 -20t3.5 -16t11 -7.5q7 -1 12 6.5t9.5 17t7.5 20t5 15.5q4 4 18.5 8t26.5 4q8 0 13 -2t5 -7q-2 -31 -11.5 -71t-17 -81.5t-8 -81.5t15.5 -70q7 -13 16 -13q12 0 19 15t10.5 34t5 37.5t1.5 25.5q2 49 3 101.5t6 103.5q1 8 16 14t29 6q15 0 16 -7z" />
    <glyph glyph-name="uni0E04" unicode="&#xe04;" horiz-adv-x="312" 
d="M293 29q-2 -10 -20 -16t-32 -6q-15 0 -15 6q5 37 9 79.5t4 81.5q0 20 -0.5 42t-3.5 43.5t-9.5 41.5t-17.5 37q-7 9 -15 15t-18 6q-5 0 -13 -3q-7 -1 -15.5 -11.5t-16 -24t-13.5 -27t-8 -22.5q-11 -32 -17 -67.5t-6 -73.5q7 15 13.5 35t22.5 47q12 21 26 32t39 11
q17 0 25 -8t10.5 -20t1 -27t-4.5 -29q0 -9 -11 -9q-14 0 -28 12q-2 2 -2 11.5v17.5q-8 -9 -13.5 -21l-13.5 -29q-6 -13 -12.5 -31l-14 -37t-15.5 -36t-17 -28q-2 -6 -15.5 -13.5t-24.5 -7.5q-13 0 -17 10q-12 34 -15 71.5t0.5 75.5t13 74t22.5 66q9 20 23 40t32 36t38 25.5
t40 9.5q25 0 44 -15q25 -18 39 -49.5t21 -68.5t8 -76t-0.5 -73t-4 -60z" />
    <glyph glyph-name="uni0E05" unicode="&#xe05;" horiz-adv-x="320" 
d="M293 29q-2 -10 -20 -16t-32 -6q-15 0 -15 6q2 18 4.5 34.5t4.5 34.5l4.5 40t4.5 52q3 38 3.5 82t-15.5 82q-3 1 -8.5 -5l-12 -13.5t-14 -13.5t-14.5 -6q-5 0 -8.5 8t-6.5 17t-6 16t-6 6q-7 -1 -14.5 -10t-14 -21t-11.5 -24t-7 -21q-11 -32 -17 -67.5t-6 -73.5
q7 15 13.5 35t22.5 47q12 21 26 32t39 11q17 0 25 -8t10.5 -20t1 -27t-4.5 -29q0 -9 -11 -9q-14 0 -28 12q-2 2 -2 11.5v17.5q-8 -9 -13.5 -21l-13.5 -29q-6 -13 -12.5 -31l-14 -37t-15.5 -36t-17 -28q-2 -6 -15.5 -13.5t-24.5 -7.5q-13 0 -17 10q-12 34 -15 71.5t0.5 75.5
t13 74t22.5 66q14 32 41 61t57 43q6 3 11 3q9 0 15 -6t9.5 -13.5t5 -14t2.5 -7.5l5 5l12 11.5t15.5 12t15.5 5.5q6 0 10 -4q22 -20 33 -52.5t15 -69t3 -75.5t-4 -72.5t-6 -59t-3 -35.5z" />
    <glyph glyph-name="uni0E06" unicode="&#xe06;" horiz-adv-x="320" 
d="M257 395q0 6 12.5 9.5t26.5 3.5q11 0 18.5 -2t5.5 -7q-7 -40 -14.5 -87.5t-14.5 -96.5t-11.5 -96.5t-4.5 -88.5q0 -11 -13 -16t-27 -5q-9 0 -15.5 2t-7.5 7q-3 35 -15 67.5t-32 61.5q-1 -7 -5 -25t-12 -39.5t-21 -41.5t-33 -32q-4 -3 -20 -3q-13 0 -26.5 4.5t-18.5 15.5
q-9 26 -10.5 61.5t5.5 67.5t23 55t43 23q9 0 24 -5v16v58t-5 38q-1 1 -4.5 -4.5l-9 -13.5t-13.5 -17t-19 -17q-9 -6 -19 -6q-16 0 -21 10q-14 26 -15 49t3 51q0 3 5.5 4t13.5 1t15 -0.5t9 -2.5q3 -2 3.5 -8.5t0.5 -14v-14.5t2 -10q13 20 25.5 35t31.5 15q10 0 15 -2
q23 -11 31.5 -38.5t8.5 -56.5q0 -10 -0.5 -22.5l-1 -25t-1 -23.5t-0.5 -19q18 -11 31 -23t27 -29q0 27 2.5 57.5t7 61.5t9.5 61.5t11 56.5zM104 161q1 9 1.5 18.5t-6.5 9.5q-9 -2 -15.5 -21.5t-10 -41.5t-3.5 -39.5t3 -16.5h2q11 0 16 26.5t13 64.5z" />
    <glyph glyph-name="uni0E07" unicode="&#xe07;" horiz-adv-x="238" 
d="M202 389q17 -32 22 -80t0.5 -98t-18.5 -94.5t-36 -68.5q-9 -10 -22 -16.5t-27 -6.5q-22 0 -38 15q-18 17 -31 47.5t-21 64.5t-10.5 67t-1.5 56q1 4 7.5 9.5t14.5 10.5t16.5 8.5t12.5 3.5l8.5 -54.5t10.5 -58.5t15 -56t22 -48q18 35 27 72t10.5 73.5t-4 71t-16.5 63.5
q-2 0 -5 -3.5t-6 -8.5t-5.5 -10t-3.5 -8q-3 -3 -14 -3q-12 0 -24.5 3.5t-10.5 9.5q11 32 35.5 48.5t57.5 16.5q12 0 19.5 -6t15.5 -20z" />
    <glyph glyph-name="uni0E08" unicode="&#xe08;" horiz-adv-x="218" 
d="M193 383q15 -36 18 -79.5t-2.5 -88t-18 -86.5t-27.5 -77q-2 -6 -17.5 -16t-26.5 -10q-8 0 -8 6q-2 30 -7 65t-12 65.5t-14.5 51t-14.5 20.5q-6 -5 -9 -14t-5 -13q-5 -8 -19 -8q-10 0 -17.5 4t-5.5 12q6 24 25 39.5t41 15.5q14 0 27 -7.5t23 -25.5q3 -6 7 -16t7.5 -22
l7 -23t5.5 -18q7 31 9 69t-3 67q-1 10 -3 23.5t-5.5 26t-9.5 21t-16 8.5q-3 0 -9 -2q-8 -3 -16 -12.5t-15.5 -22.5t-13.5 -26l-11 -23q-1 -3 -6 -3q-4 0 -10.5 3t-12 6.5t-9.5 7.5t-3 7q5 20 15 41t24.5 38t33.5 28.5t42 11.5q19 0 35.5 -10.5t26.5 -33.5z" />
    <glyph glyph-name="uni0E09" unicode="&#xe09;" horiz-adv-x="306" 
d="M278 169q9 -11 10.5 -29.5t-2.5 -37.5t-11.5 -35.5t-15.5 -24.5q-14 -12 -25.5 -20.5t-26.5 -8.5q-14 0 -32 9q-9 5 -14 15.5t-7 22t-1.5 21.5t1.5 15q-9 -6 -20 -16.5l-22 -22l-21 -22.5t-18 -18q-4 -2 -11 -2q-11 0 -24 5t-12 16q0 14 8.5 42l16.5 55.5t12.5 47
t-1.5 16.5q-8 -6 -9.5 -13t-9.5 -9h-3q-10 0 -20.5 5.5t-8.5 13.5q5 18 14 28.5t26 15.5q5 1 8.5 1.5t8.5 0.5q19 0 33.5 -9t14.5 -24q0 -27 -6 -48t-8 -46q6 4 14 11.5l16.5 15.5l16.5 15t14 10q-1 1 1 14l5 33t6 44t3.5 46t-1.5 40t-10 26q-9 9 -19 9q-12 0 -24.5 -10
t-22.5 -24.5t-17 -31t-8 -28.5q0 -6 -8 -6q-5 0 -12.5 3.5t-14 8t-10 10.5t-2.5 10q10 30 25 52t32.5 37t36 22t36.5 7q23 0 41 -12q22 -15 29 -42.5t6 -59t-5 -63t-3 -55.5q21 -3 32 -9.5t19 -16.5zM242 116q2 11 -4.5 21t-19.5 12q-2 -17 -3 -27.5t-3 -27.5q0 -3 -1 -8.5
t-1 -11t0.5 -10t3.5 -4.5q5 0 9.5 7.5t8.5 17t6.5 18.5t3.5 13z" />
    <glyph glyph-name="uni0E0A" unicode="&#xe0a;" horiz-adv-x="317" 
d="M418 555q11 0 21.5 -2.5t16 -7t3.5 -11t-17 -13.5q-42 -20 -69.5 -40t-49 -41.5t-41.5 -45.5l-46 -53q27 -19 43.5 -49.5t22 -64.5t0.5 -70t-21 -67t-42.5 -53.5t-63.5 -31.5q-6 -1 -11.5 -1.5t-10.5 -0.5q-33 0 -50.5 19.5t-24 50.5t-5 69t5.5 75.5t8 69.5t2 51l-19 -29
t-16 -28q-5 -12 -18 -12q-9 0 -16.5 6t-7.5 13q2 12 14.5 32t29.5 39t36 32.5t34 13.5q12 0 20 -12t8 -41q0 -28 -4 -67t-7 -78.5t-1.5 -75t11.5 -57.5q9 -20 20 -20q9 0 22 13q10 9 18 21.5t14 27t9 30t3 29.5q0 42 -14 79t-56 58q-4 0 -4 11q1 4 2 10q40 75 105 132.5
t146 89.5z" />
    <glyph glyph-name="uni0E0B" unicode="&#xe0b;" horiz-adv-x="340" 
d="M365 485q3 5 10.5 6.5t15.5 1.5q17 0 30.5 -5.5t5.5 -14.5q-16 -18 -36 -34.5l-41.5 -34l-44 -37t-43.5 -43.5q25 -6 40 -21t21.5 -35.5t5.5 -44.5t-9 -48q-7 -26 -18 -52t-27 -48t-38 -38.5t-50 -24.5q-18 -5 -30 -5q-35 0 -50.5 29.5t-19 74t2 95t11.5 92.5
q-8 -5 -15 -7t-15 -4q-3 -1 -6.5 -1h-5.5q-19 0 -29.5 9t-15 23.5t-4 32.5t2.5 35q1 5 12 5q9 0 19.5 -3.5t10.5 -8.5q3 -14 4.5 -30t8.5 -29q12 13 23 27.5t22 27.5q3 5 20.5 10.5t31.5 5.5t14 -7q-4 -47 -11.5 -91.5t-11.5 -89.5q0 -12 -1.5 -36t0 -49t8 -47t22.5 -31
q0 5 4 5l13.5 15t11.5 18q11 20 21.5 41.5t16.5 46.5q6 19 8 41.5t-3.5 42t-19.5 33.5t-41 15q-5 0 -9.5 4t0.5 9l32.5 35.5l22 24t18.5 19.5t22.5 21l33 29.5z" />
    <glyph glyph-name="uni0E0C" unicode="&#xe0c;" horiz-adv-x="401" 
d="M375 204q0 -19 -1.5 -40.5t-3.5 -43t-5.5 -41.5t-7.5 -35q-1 -3 -5.5 -7.5t-11.5 -8.5t-14 -6.5t-13 -2.5q-8 0 -10 6t-5.5 17.5t-8.5 25t-11.5 26t-14.5 20.5q2 -10 -2.5 -26.5t-14 -32t-24 -27t-33.5 -11.5q-14 0 -32 9q-13 7 -21 26.5t-10.5 42.5t0 46t11.5 37
q17 25 34.5 30.5t45.5 5.5q2 23 3 50.5t-2 51t-13 39.5t-32 16q-5 0 -10.5 -1t-11.5 -3q-11 -3 -25 -10.5t-22.5 -16.5t-7.5 -18t21 -15q3 -1 5.5 -3.5t-1.5 -15.5l-17.5 -52.5t-18 -56.5t-13.5 -59t-3 -62q11 14 25 14q11 0 18.5 -8t3.5 -17q-8 -17 -25 -27.5t-34 -10.5
q-15 0 -27 9.5t-14 31.5q-3 27 2 56.5t13 59t17.5 58.5t14.5 54q-5 -1 -8.5 -1h-6.5q-20 0 -24.5 10.5t9.5 34.5q9 15 27 32t40.5 31.5t47.5 23.5t48 9q18 0 33.5 -7t25.5 -24q13 -22 17 -55.5t3.5 -65.5t-2 -56t0.5 -27q12 -13 24.5 -28.5t20.5 -41.5v27.5v38.5v38v25
q1 26 1 43.5t0.5 33.5t1.5 32.5t4 40.5q1 10 16 16t28 6q14 0 14 -7l-6 -101t-3 -102zM189 159q-8 0 -11.5 -15t-2.5 -33t5 -33.5t11 -15.5h2q6 -2 10 12.5t4.5 33t-3.5 34.5t-15 17z" />
    <glyph glyph-name="uni0E0D" unicode="&#xe0d;" horiz-adv-x="416" 
d="M393 427q1 -28 0 -64.5t-2.5 -74.5t-3.5 -74.5t-4 -64.5q-2 -43 -16.5 -68.5t-56.5 -43.5q-13 -6 -32 -6t-40.5 9.5t-41.5 33.5q-15 18 -17.5 42t1 50t10 51.5t9.5 47.5q3 17 3 37.5t-5.5 38.5t-17.5 30.5t-34 12.5h-8q-17 -2 -34.5 -10t-30.5 -25q-8 -10 -9.5 -14.5
t2 -6.5t11 -4t16.5 -7q8 -4 6.5 -21.5t-7.5 -42t-14 -53t-14 -53.5t-7 -44t7 -25q17 0 29 15q6 1 12.5 -4.5t10.5 -14t4.5 -16.5t-5.5 -13q-26 -22 -53 -22q-24 0 -40 16q-12 12 -14.5 34t1 48t10.5 54l13 51t9 39.5t-2 19.5l-16.5 10t-10 8.5t-3.5 11t4 16.5q7 19 21 36
t32 30t39 21.5t40 9.5q4 0 7 0.5t7 0.5q37 0 63.5 -19t31.5 -60q3 -26 1 -52t-7 -51.5l-10.5 -51.5t-8.5 -52q-2 -23 9.5 -40t35.5 -17q26 0 35.5 19t9.5 42q4 67 9.5 127t6.5 122q0 5 6.5 10.5t15 11t17.5 9t14 3.5q6 0 6 -3zM366 28q8 -1 12.5 -10t-6.5 -14
q-6 -2 -22 -20.5t-37 -39.5t-45 -38t-48 -17q-27 0 -47 28q-6 9 -7.5 20.5t1 23.5t8 23t11.5 19q3 5 16 5q9 0 19 -2.5t14 -4.5t1 -8t-7.5 -13.5t-7.5 -15.5t0 -14q5 -10 18 -10q7 0 12 5q18 18 35.5 37.5t39.5 35.5q6 5 15.5 8t17.5 3q2 0 3.5 -0.5t3.5 -0.5z" />
    <glyph glyph-name="uni0E0E" unicode="&#xe0e;" horiz-adv-x="366" 
d="M311 391q20 -19 28.5 -67.5t9.5 -110.5t-3 -129.5t-9 -123.5t-9 -93.5t-4 -39.5q2 -5 -9.5 -8.5t-23.5 -3.5q-8 0 -13.5 1.5t-5.5 5.5q0 11 -1 22.5t-3 22.5q-16 26 -36.5 47t-42.5 41q-13 -38 -42.5 -67t-72.5 -29q-26 0 -44 15q-20 16 -22 42t11 49q20 35 50 51t65 16
h10t10 -1l4 16.5t5 16.5q2 8 20 15t31 7q12 0 10 -6q-4 -15 -10.5 -32.5t-9.5 -33.5q2 -1 5.5 -2.5t5.5 -3.5q16 -11 31.5 -24t30.5 -29q3 5 7 35t7 73t3.5 93t-4.5 95t-16.5 79t-32.5 44q-5 2 -13.5 4t-18.5 2q-20 0 -44.5 -8t-47.5 -31q-8 -8 -13 -17t9 -11q4 -1 10.5 -1
t12.5 -1.5t11 -4t6 -7.5q10 -34 8 -76.5t-12 -81t-26 -67t-35 -34.5q-13 -5 -28 -5q-10 0 -18 3t-13 12q-8 14 -9.5 26t0.5 29q1 5 9 8t16 3q10 0 12 -5q3 -10 3 -16.5t10 -11.5q5 -1 11.5 15t12.5 39.5t10 50t2 46.5q0 3 -0.5 9.5l-1 12.5t-3 11t-7.5 6t-11.5 1.5
t-17.5 2.5q-10 2 -14 8.5t-4 15.5t2.5 19t5.5 18q9 19 25.5 35.5t36.5 29t42.5 20t43.5 7.5q30 0 60.5 -11t47.5 -28zM111 -79q5 5 10.5 14.5t9 19t3 18.5t-6.5 14q-5 4 -12 4q-8 0 -14 -3.5t-11 -8.5q-14 -15 -20 -29.5t4 -31.5q6 -10 15 -10q12 0 22 13z" />
    <glyph glyph-name="uni0E0F" unicode="&#xe0f;" horiz-adv-x="347" 
d="M300 380q16 -29 24 -70.5t10 -91t-0.5 -103t-7.5 -106.5t-12 -102l-13 -89q-1 -6 -8 -9t-17 -3q-9 0 -18 3t-14 9q-6 8 -12.5 23.5t-12 33.5l-11 34.5t-10.5 27.5q-5 -23 -9.5 -46.5t-7.5 -47.5q-1 -7 -10.5 -12t-18.5 -5q-11 0 -12 7q-5 24 -9 50.5t-10 52.5
q-4 -5 -10.5 -18.5t-19.5 -26.5q-6 -6 -17 -12.5t-23 -6.5q-11 0 -20 7t-15 24q-8 26 -5.5 56.5t20.5 50.5q11 12 26.5 19.5t31.5 7.5q11 0 24 -5q5 -2 9 -6l9 -9q4 6 9 15.5t10 20l9.5 19.5t7.5 12q5 0 10.5 -4.5t9 -10.5t5.5 -12.5t-1 -9.5q-9 -12 -18.5 -30t-23.5 -34
q4 -13 5.5 -30.5t6.5 -35.5q2 11 4.5 32.5t8.5 29.5q5 6 15 12.5t18 6.5q6 0 9 -4q15 -14 24.5 -36.5t16.5 -44.5l3 -3q4 14 8.5 51t7 84.5t2.5 100.5t-5 100t-16.5 82t-30.5 47q-5 3 -14.5 5.5t-21.5 2.5q-19 0 -41 -7t-43 -26q-7 -7 -12.5 -16.5t7.5 -12.5q4 -1 11 -1.5
t13.5 -2t12 -4.5t6.5 -9q6 -64 3 -109.5t-11.5 -76.5t-21.5 -47.5t-28 -22.5q-5 -2 -10.5 -3t-12.5 -1q-10 0 -18.5 3.5t-13.5 14.5q-7 15 -7.5 27.5t1.5 29.5q1 4 7.5 6t14.5 2q5 0 9.5 -1t5.5 -4q2 -10 2 -20t9 -15q12 29 18 71.5t6 83.5v9t-1 12.5t-3 11.5t-6 6l-34 7
q-9 2 -12.5 9t-3.5 16.5t3 19.5t7 18q9 16 23.5 30t32.5 25t37 18.5t36 9.5q3 0 6 0.5t6 0.5q31 0 64 -14t48 -41zM95 -8q-4 2 -7.5 4.5t-8.5 2.5t-9 -4q-6 -5 -8 -8.5t-7 -16.5q-8 -20 -4 -31.5t12 -11.5q4 0 7 3q8 9 14.5 19t10 19t4.5 15.5t-4 8.5z" />
    <glyph glyph-name="uni0E10" unicode="&#xe10;" horiz-adv-x="346" 
d="M82 283q-5 -2 -18.5 -5.5t-25.5 -3.5q-6 0 -10.5 1t-6.5 6q-9 31 -0.5 56.5t27.5 43.5t45 28t50 10q13 0 25 -3q18 -5 42 -15t41 -10q10 0 15 5l3 3t2 3.5t3.5 6.5t7.5 13q2 3 8 3t14 -3t14.5 -7t11 -9t2.5 -9q-2 -3 -5.5 -7.5t-14.5 -21.5q-10 -15 -20 -25.5t-25 -10.5
q-3 0 -11 2q-14 4 -26.5 11l-24.5 13.5t-25 11t-28 4.5q-13 0 -27.5 -2.5t-26 -8.5t-18.5 -15.5t-5 -22.5q33 11 62 11q31 0 57 -14t43 -46q14 -27 16 -59.5t-3 -65.5t-14.5 -65t-18.5 -58q-3 -7 -20.5 -15.5t-31.5 -8.5q-11 0 -14 7q-8 31 -13.5 63.5t-13.5 64.5
q-3 10 -5.5 22t-5.5 23t-6 18.5t-5 7.5q-5 -8 -9.5 -14l-8.5 -11h-3q-12 0 -23 6.5t-9 11.5q11 23 24.5 36t39.5 13q15 -1 27.5 -16.5t22.5 -35.5t17 -41t10 -34q5 18 5 36.5t-2 34.5q-2 17 -8.5 33.5t-17 29t-25.5 20t-35 7.5q-11 0 -25 -3zM252 -5q13 -7 19.5 -19.5
t9 -27.5t2 -31.5t-3.5 -29.5q-4 -17 -17 -25t-28 -8q-10 0 -18 3q-11 2 -19.5 7l-17.5 10q-11 -17 -13 -37q-2 -6 -12.5 -9t-21.5 -3q-8 0 -13.5 1.5t-5.5 5.5q3 11 0.5 28.5t-9.5 35.5q-11 -11 -25 -15t-29 -4q-17 0 -26.5 9.5t-12 23t3 29t17.5 26.5q16 17 41 17
q22 0 39 -13q4 5 7.5 10t7.5 10q5 5 18 5q11 0 21 -3t6 -7q-11 -12 -18 -23l-15 -24q4 -6 7.5 -12t7.5 -14q8 2 16 8.5t12 4.5q14 -6 24 -17.5t24 -20.5q2 10 3 23.5t1 25t-1 19.5t-3 8l-3.5 -10.5t-4.5 -9.5q-2 -5 -10 -5t-17 4.5t-7 10.5q5 24 18.5 36.5t27.5 12.5
q9 0 18 -6zM56 -56q-12 -14 -6.5 -24t14.5 -10q5 0 9 3.5t5 12.5q2 8 -1 17t-9 9q-4 0 -12 -8z" />
    <glyph glyph-name="uni0E11" unicode="&#xe11;" horiz-adv-x="358" 
d="M270 409q3 1 9 1q21 0 32 -25t15.5 -64t4 -85.5t-3 -88.5t-5.5 -74.5t-3 -42.5q0 -5 -6 -10t-14 -9t-17.5 -6.5t-16.5 -2.5q-11 0 -12 7q-1 9 2 35l7 61.5l8 74.5t5.5 72.5t-1 57.5t-11.5 28q-8 0 -22.5 -13.5t-29.5 -34t-28 -44t-18 -42.5t-7 -40t-3 -42t-1.5 -41
t-2.5 -38q-1 -6 -6.5 -12.5t-13 -12t-16 -9t-14.5 -3.5q-10 0 -10 9q1 76 8.5 145t9.5 141q-8 -8 -16.5 -11t-21.5 -3h-8q-18 1 -27.5 12t-13.5 27t-4.5 34.5t0.5 33.5q0 5 5 6.5t12 1.5q11 0 21.5 -4t9.5 -10q-2 -19 1.5 -37t14.5 -16q8 2 11.5 8t4.5 13.5t1.5 16.5t3.5 18
q2 7 15.5 12t26.5 5q8 0 13.5 -2.5t5.5 -9.5q1 -14 1.5 -22.5t0.5 -16t-0.5 -16.5t-0.5 -24q17 34 44 58.5t61 33.5z" />
    <glyph glyph-name="uni0E12" unicode="&#xe12;" horiz-adv-x="533" 
d="M460 271v-48.5t-1 -53.5t-3 -52.5t-6 -47.5q-4 -23 -13 -38.5t-22 -15.5q-7 0 -16 6q-6 5 -13.5 15l-16 22l-16 22.5t-12.5 14.5q0 -13 -6 -30.5t-16.5 -33t-24.5 -26t-30 -10.5q-4 0 -8 1t-9 3q-22 9 -32.5 35.5t-12 56.5t5.5 58.5t20 41.5q8 11 22 22.5t29 11.5
q8 0 15 -4q-2 16 -3 30.5l-2 29t-3.5 29t-8.5 31.5q-2 5 -5 5q-6 0 -14.5 -9t-16.5 -20.5l-15 -22.5t-10 -15q-5 -6 -17.5 -12.5t-23.5 -6.5q-10 0 -13 7q-12 27 -26.5 50t-23.5 23q-3 0 -6 -5q-7 -13 -12 -24t-8.5 -21.5t-6.5 -22.5t-5 -27q21 0 38.5 -10t31 -25.5
t22.5 -34.5t12 -38q7 -40 -9 -77t-48 -55q-16 -7 -28 -7q-16 0 -29.5 9t-21.5 26q-12 24 -17.5 50.5t-7.5 52.5q-2 25 -2 53.5t4 56.5t12.5 54t23.5 46q11 16 33 31t45 15q12 0 22 -6q14 -11 22.5 -23.5t16.5 -26.5q12 19 29 36t35 27q8 4 18 7.5t20 3.5q19 0 27 -15
q11 -19 14 -40l6 -41q3 -22 4.5 -39.5t1.5 -33v-32.5v-39q0 -3 6 -13.5t14.5 -22.5t17.5 -23.5t15 -16.5q2 10 3 31.5t1.5 49.5t0 60t-1.5 62.5t-2.5 57.5t-4.5 45q0 5 4.5 10t11 8.5t14 5.5t13.5 2q9 0 10 -4q5 -38 6 -74.5t3 -71.5zM118 136q-8 29 -17.5 44.5t-29.5 21.5
q-2 -13 0 -40.5t7.5 -55t12.5 -48.5t14 -21q17 20 18 47.5t-5 51.5zM281 71q8 31 10 61t0 44q-3 5 -7 5t-8 -4.5t-7.5 -10.5t-5.5 -11t-3 -7q-8 -21 -10.5 -41.5t-1.5 -27.5q1 -25 14 -25q11 0 19 17z" />
    <glyph glyph-name="uni0E13" unicode="&#xe13;" horiz-adv-x="469" 
d="M475 162q5 -29 -2.5 -54.5t-24.5 -45.5q-13 -14 -34.5 -29.5t-42.5 -15.5q-15 0 -25 9.5t-16 23.5t-9 29.5l-5 26.5q-5 -4 -18 -19.5l-28 -32.5t-30 -30t-24 -13q-8 0 -9 12q-7 71 -3 145.5t2 145.5q0 10 -3.5 21t-10 20t-15 15t-19.5 6q-10 -2 -31 -13t-36 -23.5
t-17.5 -22t22.5 -9.5q9 0 11.5 -14t2 -35.5t-4 -47.5t-7 -49t-7 -40t-3.5 -21q-2 -14 -1 -24.5t8 -10.5q5 0 16 8h2q7 0 12.5 -4t8.5 -9.5t3.5 -11.5t-3.5 -9q-19 -16 -33 -22t-40 -6q-12 1 -18 11.5t-8 25.5t-1 31t2 27l6 42t7 56t2.5 49t-8.5 22q-4 0 -10 0.5t-12 1.5
t-10.5 3.5t-5.5 7.5q-4 14 3.5 28t16.5 26q26 35 64 59.5t83 24.5q30 0 49 -11t29.5 -29.5t14.5 -42.5t4 -50q-1 -46 -0.5 -81.5t0.5 -81.5q9 11 21.5 24t23.5 23q2 28 3 54t2.5 53t3.5 55t5 60q0 7 6.5 14t15.5 13t18.5 9.5t15.5 3.5q12 0 10 -9q-5 -56 -11 -114t-4 -112
q19 11 41 11q20 0 35.5 -12.5t19.5 -41.5zM420 124q2 17 -5.5 31.5t-27.5 14.5q-6 0 -9 -1q-6 -1 -8.5 -12t-1.5 -26t5.5 -31t13.5 -27q2 -2 7 2t10.5 12t10 18t5.5 19z" />
    <glyph glyph-name="uni0E14" unicode="&#xe14;" horiz-adv-x="291" 
d="M269 353q8 -36 9 -76.5t-3 -81.5t-10.5 -81t-14.5 -76q-2 -11 -20 -18t-31 -7q-14 0 -11 7q7 35 12 67l10 67q4 40 4 80.5t-7 83.5q-6 37 -32 40q-13 0 -26 -8.5t-24 -20.5t-19.5 -26t-12.5 -25q5 1 9.5 1.5t8.5 0.5q21 0 32 -14q23 -26 31.5 -64t7.5 -83
q-1 -23 -6.5 -47t-20.5 -40q-14 -13 -32.5 -22t-36.5 -9t-29 10q-32 29 -41.5 72t-5 88t19.5 86t32 66q23 35 58 59.5t73 24.5q31 0 49 -10t27 -44zM112 198q-2 7 -5 16t-6 17t-6.5 13.5t-6.5 5.5q-5 -10 -9 -27.5t-6 -36t-2 -35t1 -24.5q6 -34 15.5 -54t17.5 -20q4 0 6 5
q9 22 12 56t-11 84z" />
    <glyph glyph-name="uni0E15" unicode="&#xe15;" horiz-adv-x="305" 
d="M286 376q8 -29 9 -64.5t-1 -68.5q-4 -51 -11.5 -102t-19.5 -102q-2 -11 -20 -19t-32 -8q-6 0 -10 1.5t-2 6.5q8 37 15.5 75.5t13 77.5t6 78t-5.5 77q-1 6 -5 6q-3 0 -9 -6l-13 -12.5t-15 -12.5t-16 -6q-8 2 -13 10.5t-8 17.5t-5 16.5t-5 7.5q-26 -29 -37 -60
q35 0 53 -16.5t25 -51.5q5 -23 8 -50.5t1.5 -54.5t-8.5 -50t-22 -37q-13 -11 -30 -18.5t-34 -7.5q-21 0 -36 11q-19 13 -30.5 32t-16.5 41.5t-4.5 47.5t4.5 50q10 53 31.5 106t60.5 88q10 9 26 19.5t31 10.5q10 0 17 -6q2 -1 4 -7t3.5 -13l3 -13.5t2.5 -9.5l4.5 5l10 11.5
l11 12.5t7.5 7q16 11 30 11q10 0 18.5 -7t13.5 -24zM121 196q-1 8 -3.5 18t-5.5 18.5t-7 14t-9 5.5q-4 0 -7 -3q-6 -21 -8.5 -40.5t-2.5 -39.5q0 -18 2.5 -38.5t6.5 -38.5t9.5 -30t11.5 -12t10 9q13 32 10.5 65.5t-7.5 71.5z" />
    <glyph glyph-name="uni0E16" unicode="&#xe16;" horiz-adv-x="308" 
d="M270 408q21 -37 25.5 -79t1.5 -88.5t-8.5 -95.5t-4.5 -100q0 -4 -6 -10t-15 -11t-18.5 -8.5t-16.5 -3.5q-10 0 -11 7q-2 14 1.5 47t8.5 75t8 87.5t-1.5 83t-18 62t-42.5 24.5q-22 0 -53 -16q-24 -13 -33 -21.5t-8.5 -13.5t8 -8.5t17 -7t18.5 -7.5t12 -11t-0.5 -28.5
t-9.5 -48.5l-13 -57t-10 -55t-0.5 -41.5t14.5 -17.5q3 3 6 6.5t6 9.5h4q11 0 22.5 -8t9.5 -17q-5 -26 -25 -37.5t-44 -11.5q-18 2 -28.5 10t-16 21t-7 29t-1.5 34q0 50 10.5 93t23.5 88q-10 4 -24.5 5.5t-25.5 5.5t-16.5 12t1.5 25q10 22 30 43t44.5 37.5t52 27t52.5 10.5
q24 0 45.5 -9.5t35.5 -30.5z" />
    <glyph glyph-name="uni0E17" unicode="&#xe17;" horiz-adv-x="347" 
d="M265 405q22 -3 33 -27.5t16 -55.5t5 -62t-1 -49q-1 -29 -2 -49t-2.5 -38t-3.5 -37.5l-5 -48.5q-1 -6 -7 -11t-14 -9.5t-16.5 -7t-14.5 -2.5q-9 0 -9 5q1 45 5.5 90t8 86t4 77.5t-7.5 63.5q-3 10 -12 10q-13 0 -27 -16t-26 -38t-21 -43t-12 -32q-7 -22 -10.5 -41t-5 -37.5
t-2.5 -38.5t-4 -44q0 -6 -6.5 -12.5t-14.5 -11.5t-17.5 -8.5t-15.5 -3.5q-9 0 -9 8q2 37 5 73.5t5.5 72.5t3 72.5t-3.5 73.5l-2 22t-5 21q-3 2 -6 -5.5t-7 -29.5q-1 -6 -9 -6q-9 0 -20 8t-10 18q4 29 18 49.5t46 20.5q12 0 23 -4t17 -15q12 -18 16.5 -37t5.5 -47
q16 42 40 69.5t61 27.5h7.5t8.5 -1z" />
    <glyph glyph-name="uni0E18" unicode="&#xe18;" horiz-adv-x="280" 
d="M177 333l-24 14q-11 6 -22.5 11.5t-21.5 8.5q-2 1 -7 1q-8 0 -15.5 -5.5t-6.5 -7.5q43 -14 81 -40t56 -68q9 -19 14.5 -42t6.5 -47t-2.5 -47t-12.5 -43q-12 -26 -40 -44.5t-60 -18.5q-23 0 -41 10t-30.5 26.5t-19 37t-8.5 41.5q-2 33 -2 61.5t2 61.5q0 4 6 8t14.5 7.5
t17 5.5t14.5 2t6 -3q0 -12 -0.5 -36t1 -51.5t6.5 -54t15 -44.5q5 -9 13 -16.5t19 -9.5q18 18 27 44t9 53.5t-8 54.5t-25 48q-24 27 -51 40.5t-59 26.5q-8 3 -10.5 11.5t-2.5 10.5q2 14 7.5 28t15 25.5t25.5 19t39 8.5q10 0 23 -3t26.5 -8t26 -10.5t21.5 -10.5q2 4 3 8.5
t3 9.5q1 4 6.5 8t13 7t16 5t14.5 2q12 0 11 -7q-2 -18 -11.5 -35t-19.5 -31q-6 -7 -20 -16.5t-28 -9.5q-6 0 -11 3z" />
    <glyph glyph-name="uni0E19" unicode="&#xe19;" horiz-adv-x="358" 
d="M333 215q21 -25 16.5 -58t-22 -64t-42.5 -55t-46 -32q-5 -2 -9 -2h-8q-22 0 -31.5 17t-12 40.5t-0.5 48t3 39.5q-9 -5 -22 -22.5t-25.5 -37.5t-22.5 -38.5t-13 -24.5q-1 -2 -8 -3t-15 -1q-11 0 -21 2.5t-9 7.5q3 30 8 65.5t9.5 71.5l8.5 71t4 65q0 26 -3 36.5t-8 10.5
t-12 -9.5t-13 -25.5q-4 0 -10.5 4t-12 10.5t-9 13.5t-1.5 11q5 9 13.5 18.5t19 18t22.5 13.5t22 5q9 0 17 -4t13 -15q8 -14 10.5 -35.5t2.5 -46t-2.5 -49t-4 -44t-1.5 -32t4 -12.5q17 14 32.5 23.5t29.5 16.5q5 48 9.5 96.5t14.5 93.5q3 8 20 13.5t30 5.5q12 0 12 -5
q-6 -45 -10 -90.5t-9 -96.5q18 6 34 6q27 0 48 -21zM246 71q6 0 13.5 10.5t13.5 27t8.5 35.5t-0.5 34q-3 10 -8 10q-7 0 -15 -13.5t-11 -25.5q-1 -4 -2.5 -15.5t-2.5 -23.5t-0.5 -23t4.5 -16z" />
    <glyph glyph-name="uni0E1A" unicode="&#xe1a;" horiz-adv-x="343" 
d="M318 135q0 -58 -25.5 -94t-89.5 -41q-42 0 -69 12t-42 34.5t-20.5 53.5t-5.5 68q0 34 2.5 69t2.5 69v28t-5 25q-5 -5 -7 -14.5t-7 -16.5q-1 -3 -6 -4.5t-11 -1.5q-11 0 -21 3t-8 6q5 16 10.5 29t13.5 22t20.5 14t31.5 5q17 -1 27.5 -12t16 -26t7 -31.5t1.5 -28.5
q-1 -27 -4 -60t-2.5 -66t9 -63.5t31.5 -51.5q14 -14 29 -14t36 -2q22 1 22 31q1 48 0.5 77.5t-0.5 49.5t-0.5 34.5t-1 33t-1 44.5t-0.5 69q0 4 5 7.5t12 6.5t15.5 4.5t15.5 1.5q15 0 16 -7q2 -22 2 -46v-45v-172z" />
    <glyph glyph-name="uni0E1B" unicode="&#xe1b;" horiz-adv-x="353" 
d="M318 135q0 -58 -25.5 -94t-89.5 -41q-42 0 -69 12t-42 34.5t-20.5 53.5t-5.5 68q0 34 2.5 69t2.5 69v28t-5 25q-5 -5 -7 -14.5t-7 -16.5q-1 -3 -6 -4.5t-11 -1.5q-11 0 -21 3t-8 6q5 16 10.5 29t13.5 22t20.5 14t31.5 5q17 -1 27.5 -12t16 -26t7 -31.5t1.5 -28.5
q-1 -27 -4 -60t-2.5 -66t9 -63.5t31.5 -51.5q14 -14 29 -14t36 -2q21 1 22 31q8 146 3.5 284t-6.5 267q0 4 5 7.5t12 6.5t15.5 4.5t15.5 1.5q15 0 16 -7q2 -22 2 -46v-45v-415z" />
    <glyph glyph-name="uni0E1C" unicode="&#xe1c;" horiz-adv-x="313" 
d="M299 176q0 -23 1 -53t-3.5 -57t-17 -45.5t-39.5 -18.5h-5h-13.5t-13.5 2.5t-13.5 9t-13.5 19.5q-5 9 -8.5 30t-6 45t-4 46.5t-2.5 34.5q-3 -8 -7 -33t-10.5 -53.5t-15.5 -54.5t-22 -38q-5 -5 -14 -7.5t-20 -2.5t-20 3.5t-13 13.5q-9 18 -15 50.5t-8.5 67.5t-2.5 68.5
t3 53.5q3 19 5.5 41t7.5 42.5t13 36t22 20.5q8 3 15 3q17 0 28.5 -9.5t17.5 -17.5q4 -4 3 -11t-4 -13t-8 -10.5t-9 -4.5q-1 0 -5.5 2.5t-9.5 5l-9 4.5t-4 1q-4 -23 -6.5 -52t-4 -60t-1.5 -60.5t1.5 -52t5 -36.5t8.5 -13q4 1 9.5 23.5t12 52.5l13.5 62t13 53q2 5 17 11t28 6
q12 0 15 -7q9 -28 13.5 -64t8 -67.5t7.5 -52t11 -19.5q6 0 8.5 15.5t3.5 41.5t0 58.5t-2.5 66l-3 64.5t-2.5 54q0 6 6 11t14 8.5t17 5.5t13 2q5 -7 7.5 -38t4 -67.5t2.5 -70.5t2 -46z" />
    <glyph glyph-name="uni0E1D" unicode="&#xe1d;" horiz-adv-x="310" 
d="M299 176q0 -23 1 -53t-3.5 -57t-17 -45.5t-39.5 -18.5h-5h-13.5t-13.5 2.5t-13.5 9t-13.5 19.5q-5 9 -8.5 30t-6 45t-4 46.5t-2.5 34.5q-3 -8 -7 -33t-10.5 -53.5t-15.5 -54.5t-22 -38q-5 -5 -14 -7.5t-20 -2.5t-20 3.5t-13 13.5q-9 18 -15 50.5t-8.5 67.5t-2.5 68.5
t3 53.5q3 19 5.5 41t7.5 42.5t13 36t22 20.5q8 3 15 3q17 0 28.5 -9.5t17.5 -17.5q4 -4 3 -11t-4 -13t-8 -10.5t-9 -4.5q-1 0 -5.5 2.5t-9.5 5l-9 4.5t-4 1q-4 -23 -6.5 -52t-4 -60t-1.5 -60.5t1.5 -52t5 -36.5t8.5 -13q4 1 9.5 23.5t12 52.5l13.5 62t13 53q2 5 17 11t28 6
q12 0 15 -7q9 -28 13.5 -64t8 -67.5t7.5 -52t11 -19.5q6 -4 9 21.5t3.5 68.5t-0.5 97t-2.5 107t-3 97.5t-2.5 68.5q0 6 6 11t14 8.5t17 5.5t13 2q3 -5 5.5 -32.5t4 -67.5t2.5 -86t1.5 -86.5t1 -71t1.5 -38.5z" />
    <glyph glyph-name="uni0E1E" unicode="&#xe1e;" horiz-adv-x="346" 
d="M330 399q0 -50 0.5 -94t-0.5 -86.5t-5 -86t-12 -91.5q-1 -6 -6.5 -11.5t-13 -10t-16 -7t-15.5 -2.5q-13 0 -16 10q-13 48 -26 105t-28 105q-14 -51 -27 -105t-31 -99q-4 -8 -20.5 -15t-29.5 -7q-14 0 -14 9q2 85 4.5 169.5t-0.5 169.5q-2 2 -10 -5.5t-18 -21.5h-2
q-7 0 -14.5 3.5t-13 8t-8 10t0.5 8.5q13 15 21.5 26t17 18.5t17 11.5t21.5 4q24 1 32 -19t8 -50v-34.5v-52t-0.5 -52t-2.5 -34.5q3 8 8.5 28l11.5 42.5t12.5 42t10.5 25.5q5 8 17.5 14.5t24.5 6.5q14 0 19 -11q5 -10 11 -37l12.5 -58t12 -60.5t8.5 -43.5q1 27 0.5 60.5
t-2 68.5l-3 68.5t-1.5 59.5q0 6 5 11.5t12 9.5t15.5 6t15.5 2q16 0 17 -9z" />
    <glyph glyph-name="uni0E1F" unicode="&#xe1f;" horiz-adv-x="343" 
d="M330 575q0 -50 0.5 -121.5t-0.5 -147t-5 -146.5t-12 -119q-1 -6 -6.5 -11.5t-13 -10t-16 -7t-15.5 -2.5q-13 0 -16 10q-13 48 -26 105t-28 105q-14 -51 -27 -105t-31 -99q-4 -8 -20.5 -15t-29.5 -7q-14 0 -14 9q2 85 4.5 169.5t-0.5 169.5q-2 2 -10 -5.5t-18 -21.5h-2
q-7 0 -14.5 3.5t-13 8t-8 10t0.5 8.5q13 15 21.5 26t17 18.5t17 11.5t21.5 4q24 1 32 -19t8 -50v-34.5v-52t-0.5 -52t-2.5 -34.5q3 8 8.5 28l11.5 42.5t12.5 42t10.5 25.5q5 8 17.5 14.5t24.5 6.5q14 0 19 -11q5 -10 11 -37l12.5 -58t12 -60.5t8.5 -43.5q1 18 0.5 52
t-1 76.5t-1.5 89t-2 88.5t-1.5 76t-0.5 51q0 6 5 11.5t12 9.5t15.5 6t15.5 2q16 0 17 -9z" />
    <glyph glyph-name="uni0E20" unicode="&#xe20;" horiz-adv-x="319" 
d="M304 169q-1 -37 -3.5 -62.5t-5 -41.5t-4.5 -25t-2 -13q-1 -8 -17.5 -15.5t-29.5 -7.5q-9 0 -12 5q0 1 3 20t7 48.5t6.5 66.5t1 72.5t-9 66t-23.5 48.5q-11 12 -22.5 17t-22.5 5q-19 0 -36.5 -11.5t-27 -25t-9 -25t16.5 -11.5q20 0 24.5 -26t1 -59.5t-10 -64.5t-9.5 -41
q-3 -16 -8.5 -31.5t-14.5 -27.5t-22.5 -19.5t-32.5 -7.5q-22 2 -31 14.5t-14 46.5q-1 5 10.5 9.5t22.5 4.5t11 -5q1 -9 3.5 -12.5t10.5 -3.5q3 3 7.5 17.5t9.5 34.5t9 42.5t5 41.5t-2.5 31.5t-13.5 11.5q-6 0 -13.5 0.5t-14.5 3.5t-11.5 8.5t-3.5 14.5q2 27 14.5 53t32 46.5
t45 33t53.5 12.5q29 0 58 -16t53 -52q12 -17 17 -38t6 -43.5t0 -45.5z" />
    <glyph glyph-name="uni0E21" unicode="&#xe21;" horiz-adv-x="305" 
d="M232 409q0 3 4 6.5t11 5.5t14.5 3.5t14.5 1.5q17 0 16 -7q-3 -40 -6 -87t-4.5 -95.5t-1 -95t3.5 -86.5q1 -12 -14 -18.5t-29 -6.5q-16 0 -17 7q-5 34 -20 65t-38 57q0 -7 -2 -25.5t-7.5 -40t-16.5 -42.5t-30 -34q-7 -5 -28 -5q-11 0 -21.5 3t-14.5 12q-12 24 -17.5 59.5
t-1.5 68.5t19.5 56t43.5 23h8.5t9.5 -2l-1 15q-1 18 -3 36t-4 32.5t-5 23.5t-8 9q-8 -10 -10.5 -17.5t-7.5 -14.5q-6 -1 -13 2.5t-13 8.5t-9.5 9.5t-2.5 6.5q11 28 24 39t33 11h10t11 -2q24 -8 35 -31t14 -51q2 -20 3 -47t2 -42q19 -9 33 -19t30 -25q-1 6 -2 16t-1.5 22
t-0.5 23.5v20.5q1 22 1.5 40t1.5 35t2.5 35.5t4.5 40.5zM84 74q11 -2 14 25l7 66q0 10 -1 19t-7 8q-9 -3 -13 -22.5t-5.5 -41.5t0.5 -38.5t5 -15.5z" />
    <glyph glyph-name="uni0E22" unicode="&#xe22;" horiz-adv-x="274" 
d="M253 417q7 -24 8 -51.5l2 -52.5q0 -37 0.5 -82t-6 -87.5t-24.5 -77.5t-55 -52q-9 -4 -23 -6.5t-29 -2.5t-28.5 3t-21.5 11q-12 12 -17.5 31.5t-4.5 36.5q2 32 11 55t26 45q-35 0 -62 29q-19 26 -21.5 57t11.5 56q17 32 40 52.5t61 20.5q13 0 20.5 -7t11 -17t3 -22
t-3.5 -23q-1 -4 -5.5 -5.5t-10.5 -1.5q-8 0 -14.5 2.5t-7.5 7.5q-2 8 -2 16.5t-9 13.5q-9 1 -16 -4.5t-9 -10.5q-8 -13 -14 -32.5t-1 -36.5q8 -27 29.5 -39t47.5 -12h9t9 1q9 1 12 -8t-2 -19q-5 -8 -14 -10t-20 -7q-4 -2 -8.5 -17.5t-7.5 -34t-3.5 -36.5t2.5 -25
q3 -18 19 -18q13 0 28 11.5t21 27.5q14 34 18.5 68.5t4.5 70.5t-2 73.5t-2 77.5q0 5 5 11t12 11.5t14.5 9t12.5 3.5t6 -4z" />
    <glyph glyph-name="uni0E23" unicode="&#xe23;" horiz-adv-x="203" 
d="M116 197q8 -21 19 -46t17.5 -50t5 -47.5t-16.5 -38.5q-10 -13 -26.5 -15.5t-31.5 -2.5q-11 1 -23.5 8.5t-23.5 18t-19.5 22t-11.5 20.5q-1 4 2.5 10t9 11t12.5 8.5t11 2.5l21.5 -23t18.5 -12q9 -1 14 15q3 14 -15 63q-11 27 -25.5 53l-27.5 51.5t-20.5 53t-3.5 57.5
q4 26 23 38.5t43 12.5q11 -2 19.5 -6t18.5 -11q4 -3 8 -8l8 -10.5l7.5 -10t6.5 -4.5l14.5 17.5t6.5 14.5q3 5 13 5h5q10 -1 17.5 -5.5t5.5 -9.5q-5 -14 -13.5 -30.5t-13.5 -24.5q-7 -13 -15.5 -20t-23.5 -7q-21 1 -37 26q-4 5 -13.5 15.5t-13.5 15.5q-8 -15 -4 -36t13 -43
t20.5 -42.5t18.5 -35.5z" />
    <glyph glyph-name="uni0E24" unicode="&#xe24;" horiz-adv-x="332" 
d="M270 408q14 -24 20.5 -63t7.5 -86t-1 -98.5t-5.5 -101t-6 -94.5t-1.5 -79q0 -5 -6 -10.5t-15 -10.5t-18.5 -8.5t-16.5 -3.5q-10 0 -11 7q-2 14 2 59l9 104.5t7.5 124.5t-3 120t-22 90.5t-49.5 35.5q-17 0 -41 -12q-24 -13 -33 -21.5t-8.5 -13.5t8 -8.5t17 -7t18.5 -7.5
t12 -11t-0.5 -28.5t-9.5 -48.5l-13 -57t-10 -55t-0.5 -41.5t14.5 -17.5q3 3 6 6.5t6 9.5h4q11 0 22.5 -8t9.5 -17q-5 -26 -25 -37.5t-44 -11.5q-18 2 -28.5 10t-16 21t-7 29t-1.5 34q0 50 10.5 93t23.5 88q-10 4 -24.5 5.5t-25.5 5.5t-16.5 12t1.5 25q10 22 30 43t44.5 37.5
t52 27t52.5 10.5q24 0 45.5 -9.5t35.5 -30.5z" />
    <glyph glyph-name="uni0E25" unicode="&#xe25;" horiz-adv-x="282" 
d="M225 403q15 -14 23.5 -33t13 -39t6 -39.5t1.5 -35.5q0 -54 -6 -101.5t-11 -102.5q-1 -9 -6 -17t-12 -14t-15.5 -9t-15.5 -3q-8 0 -13 4t-5 13q0 24 2 44t5 40t6.5 40.5t5.5 44.5h-3q-15 0 -41.5 -11.5t-49.5 -30t-36 -41.5t0 -45q6 -9 14 -9t20 10q7 5 12 5q6 0 12 -3.5
t9.5 -9t3 -11.5t-6.5 -12q-7 -7 -15 -12.5t-26 -11.5q-9 -4 -25 -4q-20 0 -40.5 11t-22.5 39q-3 41 16 74.5t49 59t66 42.5t66 25q-2 17 -3.5 35t-8.5 36q-10 28 -30 28q-15 0 -32.5 -14t-32.5 -32.5t-26.5 -37.5t-15.5 -29q-4 -11 -11 -11q-5 0 -10.5 6.5t-9.5 15t-6 17
t-1 11.5q15 39 34.5 65t40 41t41 21t38.5 6q17 0 30.5 -4.5t21.5 -10.5z" />
    <glyph glyph-name="uni0E26" unicode="&#xe26;" horiz-adv-x="612" 
d="M318 209q1 -16 1 -44t-0.5 -62l-1 -70.5t-1.5 -70.5t-2.5 -61.5t-3.5 -44.5q-1 -4 -6.5 -8t-13 -7.5t-16 -5.5t-15.5 -2q-9 0 -12 5l1 21t3 55t3.5 78t1.5 91t-2 94.5t-6.5 88t-13 70.5t-21.5 43q-11 11 -23 18.5t-27 7.5q-18 0 -39 -11q-7 -4 -20.5 -15.5t-21.5 -24.5
t-7 -23t22 -10h7q14 1 22 -14t11 -38.5t3 -51.5t-2 -54.5t-4.5 -46.5t-4.5 -27q-7 -35 -25.5 -60.5t-58.5 -25.5q-23 2 -33 14.5t-15 46.5q-1 5 11.5 9.5t23.5 4.5q12 0 12 -5q1 -16 15 -16q3 3 6.5 20.5t7 42t5.5 52.5t0.5 51.5t-6.5 39t-16 14.5q-6 0 -14.5 -1.5
t-16.5 -1.5t-13.5 3t-4.5 13q3 33 17 62t36.5 51.5t52 35.5t63.5 13q31 0 60 -14.5t50 -49.5q11 -18 17.5 -40.5t9.5 -46t3.5 -47.5t1.5 -45z" />
    <glyph glyph-name="uni0E27" unicode="&#xe27;" horiz-adv-x="247" 
d="M231 305q11 -77 2.5 -142.5t-37.5 -105.5q-20 -27 -42.5 -42.5t-51.5 -15.5q-34 0 -50.5 19.5t-21.5 51.5q-2 7 8 10t21 3q9 0 16.5 -2t9.5 -7q4 -10 11 -17t15 -7q5 0 9 3q20 16 32 44t17.5 62t4.5 69t-6.5 63.5t-15 46.5t-21.5 18q-9 0 -18 -11q-18 -27 -22.5 -59.5
t-6.5 -67.5q0 -11 -16 -11q-13 0 -26.5 7.5t-12.5 16.5l5.5 53t7.5 42t14.5 35t26.5 32q11 11 26.5 17t32.5 6q19 0 34.5 -11.5t26.5 -28t18 -36t10 -35.5z" />
    <glyph glyph-name="uni0E28" unicode="&#xe28;" horiz-adv-x="339" 
d="M310 414q6 8 14.5 10.5t17.5 2.5q14 0 25 -4.5t8 -9.5l-38.5 -54.5t-43.5 -48.5q2 -14 5.5 -31t5.5 -33q2 -29 4.5 -56t3.5 -53t-1 -52.5t-8 -53.5q-1 -5 -7.5 -10t-15.5 -8.5t-18 -6t-16 -2.5q-11 0 -10 6q2 38 5.5 79t3.5 81q0 8 -1 25.5t-3.5 39t-7 44.5t-11 42
t-15 31t-20.5 12q-10 0 -21.5 -8.5t-21.5 -20.5t-17 -25.5t-10 -22.5l-12 -39t-13.5 -48t-11 -49.5t-4.5 -43.5q3 9 9 24l12.5 31.5t14 31.5t13.5 24q12 18 24.5 30t36.5 12q15 0 22 -8.5t10 -21t3 -27.5v-28q0 -8 -14 -8q-11 0 -21.5 4.5t-10.5 12.5q0 2 1 8.5t-2 12.5
q-11 -18 -20.5 -42l-19 -49.5l-19 -49.5t-21.5 -43q-5 -7 -19.5 -16t-26.5 -9q-10 0 -15 9q-11 35 -13.5 74t2 78.5t15.5 77t26 67.5q11 22 26 42.5t33 36t38.5 25t42.5 9.5q13 0 30 -5q18 -6 25.5 -21t15.5 -29q9 11 18.5 25t17.5 29z" />
    <glyph glyph-name="uni0E29" unicode="&#xe29;" horiz-adv-x="435" 
d="M400 310q9 -1 10.5 -6t-6.5 -10q-17 -11 -31.5 -27t-28.5 -30q0 -26 -1 -55.5t-3 -57.5q-2 -35 -14.5 -57t-32 -35t-46 -17.5t-56.5 -4.5q-41 0 -71.5 15.5t-41.5 55.5q-10 36 -11.5 67t1 59.5t7 56.5t6.5 59q-5 -5 -16 -13.5t-16 -11.5q-5 0 -11.5 5.5t-11.5 13t-7 15.5
t1 11q13 11 34.5 24t44.5 13t38 -18q3 -3 3.5 -12t0 -20.5t-1.5 -22.5t-2 -18q-4 -22 -6.5 -47t-2.5 -50.5t2.5 -50t9.5 -45.5q5 -14 24 -20.5t41 -6.5q19 0 35.5 3.5t25.5 10.5q9 50 9 101q-12 -7 -27 -11.5t-29 -4.5q-13 0 -23 4.5t-14 16.5q-7 23 0 49.5t21 44.5
q6 6 21 6q7 0 13.5 -1.5t9.5 -4.5q5 -4 5 -11t-1.5 -15t-3.5 -15.5t-2 -13.5q-1 -17 8 -17q6 0 22 8q-1 38 -2.5 75t-1.5 75q0 13 17 22.5t32 9.5t18 -10q5 -27 6 -51t0 -51q3 3 6 5.5t6 4.5q10 6 21.5 8.5t22.5 2.5z" />
    <glyph glyph-name="uni0E2A" unicode="&#xe2a;" horiz-adv-x="277" 
d="M286 430q4 -5 12.5 -13.5t8.5 -16.5q0 -2 -9.5 -7.5t-11.5 -7.5q-12 -11 -20 -14.5t-21 -14.5q7 -23 9 -51t3 -46q0 -56 -4.5 -118.5t-14.5 -116.5q-2 -8 -16 -14t-27 -6q-16 0 -15 10q8 48 13 92t6 94h-2q-14 0 -40.5 -12t-49.5 -31t-36 -42t0 -46q3 -5 7 -5
q6 0 14.5 7.5t16.5 13.5q3 2 8.5 -4t10.5 -14.5t7 -16.5t-1 -10l-15.5 -12t-25.5 -14q-5 -2 -10.5 -3t-12.5 -1q-20 0 -40.5 11.5t-22.5 39.5q-3 41 15.5 75t48.5 59.5t65 43t65 26.5q-2 16 -4 35t-8 36q-9 27 -28 27q-13 0 -28 -11.5t-28.5 -26.5t-24 -30.5t-14.5 -23.5
q-3 -6 -11 -6q-6 0 -13 2.5t-13 6.5t-9.5 8t-2.5 7q14 38 32.5 63t39 40t41 21t38.5 6q20 0 35 -5t23 -12q2 -2 2 -2.5t2 -2.5q10 11 17.5 18t19.5 16q3 2 6 4.5t6 1.5q2 -1 3.5 -3t3.5 -4z" />
    <glyph glyph-name="uni0E2B" unicode="&#xe2b;" horiz-adv-x="301" 
d="M271 371q3 -11 3 -27t-2 -32.5t-5.5 -32t-7.5 -24.5l-12.5 -30.5t-7.5 -13.5q-3 -4 -13 -14q4 -20 9.5 -45l11.5 -51l11.5 -51t9.5 -45q2 -10 -11.5 -17t-24.5 -7t-14 6q-6 12 -10 33l-8 43t-6.5 42t-5.5 31q-15 -32 -34.5 -68t-38.5 -65q-1 -1 -6 -4.5l-11 -7.5
t-13 -6.5t-12 -2.5q-9 0 -9 10q0 55 2.5 110.5t2.5 115.5v26.5t-0.5 44.5t-2.5 44.5t-5 24.5q-7 0 -9.5 -3t-3.5 -7.5t-1.5 -10.5t-2.5 -11q0 -5 -6 -5q-8 0 -17.5 5.5t-9.5 12.5q0 25 14.5 42.5t40.5 17.5q19 0 32 -11q7 -6 10.5 -19.5t5 -29t1.5 -30.5v-24
q-1 -56 -1.5 -101t-0.5 -95l19.5 43.5t20.5 41.5t16 31.5l6 12.5q-9 9 -13 28.5t-4 42t4 44.5t10 38t11.5 24.5t12.5 12.5t16.5 4.5t23.5 0.5q15 -1 21.5 -10t13.5 -32zM234 341q0 4 -2 16t-8 12q-17 -17 -20.5 -40.5t-4.5 -42.5q-1 -17 4 -22.5t7 -4.5q12 -1 17 23t7 59z
" />
    <glyph glyph-name="uni0E2C" unicode="&#xe2c;" horiz-adv-x="361" 
d="M386 610q2 10 16 15.5t27 5.5q9 0 15 -2.5t4 -8.5q-9 -27 -21 -55.5t-27 -56.5t-32 -52t-35 -42q-4 -45 -4.5 -95t-0.5 -98.5t-1 -91.5t-7 -75q-2 -11 -19 -18t-32 -7q-16 0 -19 8q-14 49 -22 95.5t-25 94.5l-29 -101t-36 -96q-3 -6 -18 -12.5t-28 -6.5q-16 0 -16 13
q0 86 1.5 171t-4.5 171q-8 -11 -12.5 -18l-11.5 -18q-1 -6 -8 -6q-5 0 -12 3.5t-12.5 8t-9 9t-2.5 6.5l16 27t14 20t16 13t23 7q4 1 12 1q23 0 34 -11t13 -25q2 -10 2 -37t-1 -57t-1.5 -57t-0.5 -39q3 6 8 22.5l11 35.5l12 37t12 27q5 8 15 13.5t21 5.5q13 0 17 -11
q5 -12 11.5 -31l13.5 -39t13 -39t9 -31q2 20 1.5 47.5t-1.5 56.5t-2.5 56.5t-2.5 48.5q-21 -8 -38 -8q-22 0 -42 13t-35 42q-7 15 -9.5 33t-1.5 36t6 34.5t14 28.5q15 21 38 31.5t46 10.5q14 0 26 -3q18 -3 28.5 -15.5t16.5 -29t8 -34.5t3 -32q15 24 30 54t26 57zM214 471
q11 -36 36 -36q3 0 5.5 0.5t5.5 1.5q6 2 8 11.5t2 22.5t-2 27t-5 24q-7 24 -17 34t-20 9q-9 -1 -13.5 -12t-5.5 -26t1 -30.5t5 -25.5z" />
    <glyph glyph-name="uni0E2D" unicode="&#xe2d;" horiz-adv-x="273" 
d="M248 263q14 -45 10.5 -92.5t-22.5 -91.5q-7 -15 -20.5 -30t-31.5 -26.5t-38 -18.5t-40 -7q-28 0 -51.5 16.5t-34.5 58.5q-9 35 -4 68.5t21 60t41 43t55 16.5h8q5 0 9 -7t6.5 -15t2 -14.5t-5.5 -6.5h-4q-16 0 -31 -8t-26 -21.5t-16.5 -31t-3.5 -35.5q4 -30 18.5 -44.5
t32.5 -14.5q19 0 38.5 15t30.5 43q11 26 11.5 58.5t-8 63.5t-24.5 57t-39 41q-12 8 -24 8q-17 0 -28.5 -15.5t-19.5 -38.5q-4 -12 -19 -21t-25 -9q-8 0 -8 5q-1 31 7.5 55t23 40t34.5 24.5t41 8.5q27 0 49 -12t38.5 -31.5t28 -43t18.5 -47.5z" />
    <glyph glyph-name="uni0E2E" unicode="&#xe2e;" horiz-adv-x="314" 
d="M269 436q4 5 13.5 7t20.5 2q12 0 21 -3.5t6 -11.5q-10 -25 -27.5 -46t-38.5 -37l8 -19.5t7 -20.5q15 -49 8 -100.5t-27 -99.5q-7 -17 -22.5 -33.5t-35 -30t-41.5 -22t-43 -8.5q-29 0 -52.5 18t-35.5 61q-10 38 -5 74.5t22 65t43 46.5t58 18q3 0 6 -0.5t6 -0.5
q11 -1 14.5 -7t1.5 -13t-8.5 -12.5t-16.5 -5.5h-7q-17 0 -29.5 -10.5t-19.5 -26.5t-9.5 -36t-0.5 -39q5 -31 17.5 -44.5t29.5 -13.5q20 0 41 18.5t35 50.5q12 28 13.5 61t-6.5 64t-24.5 58t-40.5 43q-15 9 -26 9q-19 0 -31 -17t-20 -42q-5 -13 -21 -23t-27 -10q-8 0 -8 6
q-1 33 8 59t24.5 44t36.5 27t44 9q33 0 60 -16t48 -41q9 11 16 24.5t15 24.5z" />
    <glyph glyph-name="uni0E2F" unicode="&#xe2f;" horiz-adv-x="224" 
d="M211 389q0 -50 -4 -93t-9.5 -84l-11.5 -84t-10 -93q-3 -11 -18 -19t-26 -8q-12 0 -11 9q7 81 16.5 151t17.5 120q-6 -12 -15 -23.5t-20.5 -20.5t-24.5 -14.5t-25 -5.5q-23 0 -38 18q-20 24 -21.5 52.5t8 54t26.5 42.5t33 17t26 -18q4 -5 2 -10t-6 -8q-4 -4 -10 -7
q-14 -8 -22 -21.5t-10 -27.5t1 -25.5t12 -15.5q15 0 30 18t28.5 40.5t24 42.5t16.5 23q2 2 8 2t14.5 -2.5t18.5 -9.5z" />
    <glyph glyph-name="uni0E30" unicode="&#xe30;" horiz-adv-x="231" 
d="M45 335q2 4 9.5 5.5t15.5 1.5q12 0 21 -2.5t6 -7.5q-4 -6 -9 -15t-6.5 -17.5t1 -15t11.5 -6.5q6 0 10 1q12 3 25.5 11t26.5 16.5l23.5 15.5t16.5 10q7 0 12 -3.5t7.5 -9.5t1.5 -12.5t-7 -11.5q-11 -10 -26 -22.5t-32 -22.5t-35 -17t-34 -7q-14 0 -26 4.5t-20 14.5
q-9 10 -11 22t0 24t7 23.5t12 20.5zM45 187q2 4 9.5 5.5t15.5 1.5q12 0 21 -2.5t6 -7.5q-4 -6 -9 -15t-6.5 -17.5t1 -15t11.5 -6.5q6 0 10 1q12 3 25.5 11t26.5 16.5l23.5 15.5t16.5 10q7 0 12 -3.5t7.5 -9.5t1.5 -12.5t-7 -11.5q-11 -10 -26 -22.5t-32 -22.5t-35 -17
t-34 -7q-14 0 -26 4.5t-20 14.5q-9 10 -11 22t0 24t7 23.5t12 20.5z" />
    <glyph glyph-name="uni0E31" unicode="&#xe31;" 
d="M-125 550q2 4 9.5 5.5t15.5 1.5q12 0 21 -2.5t6 -7.5q-5 -6 -9.5 -15t-6 -17.5t1 -15t11.5 -6.5q6 0 10 1q12 3 33.5 11t43 17l40 16.5t24.5 10.5q7 0 12 -3.5t7.5 -9.5t1.5 -12.5t-7 -11.5q-7 -7 -31 -19t-51.5 -23.5t-54 -20t-39.5 -8.5q-14 0 -26 4.5t-20 14.5
q-9 10 -11 22t0 24t7 23.5t12 20.5z" />
    <glyph glyph-name="uni0E32" unicode="&#xe32;" horiz-adv-x="198" 
d="M152 401q25 -37 31 -80.5t2 -89t-13 -91.5t-14 -90q0 -5 -6 -10t-14 -9.5t-17 -7.5t-17 -3q-15 0 -15 12q7 44 15 83.5t13 77.5t4.5 76t-10.5 78q-20 -20 -35 -51t-21 -57q-5 -5 -16 -5t-21.5 5t-9.5 13q5 42 24 79t55 61q5 4 18 10t27 6q13 0 20 -7z" />
    <glyph glyph-name="uni0E33" unicode="&#xe33;" horiz-adv-x="199" 
d="M150 403q25 -37 31 -83t2.5 -94.5t-12.5 -97t-14 -92.5q0 -5 -6 -10t-14 -9.5t-17 -7.5t-17 -3q-15 0 -15 12q7 44 15 86t12.5 83t4 81.5t-10.5 80.5q-20 -20 -35 -51t-21 -57q-5 -5 -16 -5t-21.5 5t-9.5 13q5 42 24 79t55 61q5 4 18 10t27 6q13 0 20 -7zM-23 515
q7 -27 -5 -46t-32 -31q-12 -6 -27 -6q-14 0 -27.5 5.5t-22.5 19.5q-9 13 -13 34.5t0 37.5q5 20 20 27.5t34 7.5q12 0 24 -2.5t22.5 -8.5t17.5 -15.5t9 -22.5zM-79 468q10 0 13 10.5t0.5 22.5t-9.5 22.5t-17 10.5q-2 0 -8 -2q-9 -5 -9 -13q-1 -14 6 -31.5t24 -19.5z" />
    <glyph glyph-name="uni0E34" unicode="&#xe34;" 
d="M-28 464q2 -4 -4 -7.5t-14.5 -5.5t-18 -3.5t-14.5 -1.5h-4q-15 4 -31.5 14.5t-32.5 23.5l-32 27t-31 24l-36.5 26.5t-36.5 21.5q0 -9 6 -24.5t17 -23.5q20 -23 53 -38.5t64 -28.5q4 -4 1 -8t-9 -6.5t-12.5 -4t-8.5 -1.5q-47 5 -91 23.5t-68 51.5q-8 12 -10 27t2 29
t14.5 26.5t28.5 18.5q11 4 24 4q29 0 61 -19t63.5 -45.5l62 -54.5t57.5 -45z" />
    <glyph glyph-name="uni0E35" unicode="&#xe35;" 
d="M-31 575q-1 -21 -1.5 -30t-1 -15t-1 -13t-1.5 -24q-1 -9 -9.5 -12.5t-20.5 -3.5q-5 0 -10 0.5t-10 1.5q-15 3 -40.5 17t-51.5 30l-47.5 28.5t-29.5 12.5q-5 0 -3 -5q3 -15 19.5 -31.5t37.5 -30t42 -22t35 -8.5q6 0 15 -5t16 -11t8 -11.5t-11 -5.5q-47 0 -85.5 8.5
t-77.5 37.5q-12 9 -28.5 29.5t-19.5 51.5q-2 23 11.5 32t33.5 9q14 0 30 -4t29 -10l65 -31.5t52 -26.5q1 14 1.5 17.5t0.5 6t0.5 7t1.5 20.5q0 8 14 8q11 0 24 -5t13 -12z" />
    <glyph glyph-name="uni0E36" unicode="&#xe36;" horiz-adv-x="1" 
d="M11 521q6 -18 7.5 -34.5t-12.5 -36.5q-10 -14 -23.5 -20.5t-28.5 -6.5q-17 0 -33.5 7.5t-26.5 18.5q-19 20 -43 41.5t-47 38.5t-42 28t-28 11q-6 0 -6 -4q0 -20 17 -39t40 -35.5t47.5 -29t39.5 -19.5q4 -4 1 -7.5t-9 -5.5t-12.5 -3.5t-9.5 -1.5q-39 5 -75.5 27t-58.5 48
q-13 15 -21 33t-9 34t6.5 29t24.5 19q11 4 24 4q24 0 48 -13t46 -31t41.5 -37t34.5 -31q7 18 19.5 34.5t34.5 16.5q20 0 35.5 -12.5t18.5 -22.5zM-29 474q0 3 1.5 3t4.5 16q2 6 -3.5 13t-12.5 7q-6 0 -10 -6q-15 -22 -16 -29.5t4 -12.5q3 -3 12 -3q5 0 11 2.5t9 9.5z" />
    <glyph glyph-name="uni0E37" unicode="&#xe37;" 
d="M-48 593q2 -9 2.5 -22t0.5 -26.5v-26v-21.5q0 -6 -8 -8t-18 -2q-6 0 -11 0.5t-8 0.5q-38 11 -70.5 30t-59.5 44q-8 7 -18.5 15t-21.5 12q0 -16 9 -29.5t23 -25t29.5 -19.5t29.5 -13q11 -4 5 -6.5t-10 -2.5q-35 0 -68.5 9t-53.5 36q-6 7 -10.5 17t-6 20.5t0.5 21t10 17.5
q17 14 42 14q29 0 55 -16q15 -8 28 -19l25.5 -22t26.5 -21t30 -16q0 10 1 27t1 27q2 6 10 8.5t16 2.5q16 0 19 -6zM21 580q8 -38 0 -74q-2 -5 -10.5 -7.5t-17.5 -2.5q-8 0 -13 1.5t-5 4.5q0 20 2.5 38.5t2.5 39.5q0 4 5.5 5.5t13.5 1.5q7 0 13.5 -1.5t8.5 -5.5z" />
    <glyph glyph-name="uni0E38" unicode="&#xe38;" 
d="M-48 -53q9 -14 8 -36.5t-3 -37.5q-3 -16 -7.5 -31.5t-6.5 -32.5q-1 -5 -10 -7.5t-19 -2.5q-8 0 -14.5 1.5t-6.5 6.5q-2 20 5 41t9 41q1 8 1.5 20.5t-4.5 20.5q-5 -6 -7.5 -12.5t-5.5 -13.5q-1 -4 -10 -4q-8 0 -17.5 4t-9.5 9q-1 20 11.5 35t29.5 18q15 0 31 -2.5
t26 -16.5z" />
    <glyph glyph-name="uni0E39" unicode="&#xe39;" 
d="M-35 -48q3 -8 2.5 -18.5t-0.5 -18.5q-1 -11 -1.5 -29t-3.5 -29q-5 -21 -24.5 -32t-41.5 -11q-8 0 -12 1q-23 3 -31.5 21t-7.5 39q0 11 1 28t0 28q0 1 -2 -0.5t-4.5 -4t-5 -4t-2.5 -0.5h-2q-4 0 -8.5 3t-7.5 7.5t-4 9t3 6.5q8 5 21 9.5t26 4.5q8 0 15.5 -3t11.5 -11
q8 -16 7 -35.5t-1 -36.5q0 -9 3.5 -11t11.5 -2h5q3 0 3.5 9t0.5 22t-0.5 27t1.5 24q1 6 10.5 9.5t19.5 3.5q6 0 10.5 -1t6.5 -5z" />
    <glyph glyph-name="uni0E3A" unicode="&#xe3a;" 
d="M-61 -49q10 0 18 -8q9 -8 9 -19q0 -12 -9 -19q-8 -8 -18 -8q-11 0 -19 8t-8 19t8 19t19 8z" />
    <glyph glyph-name="uni00DB" unicode="&#xdb;" 
 />
    <glyph glyph-name="uni00DB" unicode="&#xe3b;" 
 />
    <glyph glyph-name="uni00DC" unicode="&#xdc;" 
 />
    <glyph glyph-name="uni00DC" unicode="&#xe3c;" 
 />
    <glyph glyph-name="uni00DD" unicode="&#xdd;" 
 />
    <glyph glyph-name="uni00DD" unicode="&#xe3d;" 
 />
    <glyph glyph-name="uni0E3E" unicode="&#xe3e;" 
 />
    <glyph glyph-name="uni0E3F" unicode="&#xe3f;" horiz-adv-x="313" 
d="M214 329q10 -3 19.5 -9.5t15.5 -15.5t7.5 -19.5t-3.5 -21.5t-14.5 -18t-20.5 -14q-24 -18 -48 -29q-5 -15 -6.5 -29.5t-3.5 -28.5q0 -4 -5 -4q-4 0 -9.5 2.5t-10.5 7t-8.5 9.5t-3.5 9q0 3 0.5 6.5t0.5 6.5q-13 -5 -26.5 -9l-27.5 -8h-2q-6 0 -12.5 4.5t-12 10.5t-7 11
t2.5 6q20 4 40 12q-10 8 -10 16q7 52 18.5 102.5t27.5 100.5q-14 -5 -25 -12h-4q-5 0 -11.5 4t-11.5 9.5t-6.5 10.5t2.5 8q22 12 51.5 20t58.5 8h11.5t10.5 -1q4 10 6.5 15t6.5 16q3 5 8 5t10.5 -3t10 -7.5t7.5 -9.5t2 -8q-3 -8 -4.5 -10.5t-4.5 -10.5q22 -11 35 -33
q9 -14 7.5 -26.5t-8.5 -24t-17.5 -21t-21.5 -17.5q-4 -2 -7 -5t-7 -5zM239 422q1 9 -3 11.5t-12 4.5l-10 -31.5l-10 -31.5q13 10 23 21.5t12 25.5zM180 441q-16 0 -31 -3q12 -10 9 -18q-8 -22 -14.5 -43.5t-11.5 -44.5q11 5 19 10q12 50 29 99zM109 219q5 2 10.5 4.5
t10.5 5.5q2 16 4.5 31t5.5 31q-4 -1 -7.5 -2t-8.5 -2q-5 -17 -8.5 -34t-6.5 -34zM215 286q2 3 2.5 7t2.5 6q-5 1 -7.5 1h-4.5q-6 0 -12 -0.5t-12 -0.5l-9 -45q6 4 9 5l16.5 12.5t14.5 14.5z" />
    <glyph glyph-name="uni0E40" unicode="&#xe40;" horiz-adv-x="130" 
d="M109 60q5 -1 5.5 -5.5t-1 -9.5t-4 -9t-4.5 -5q-11 -5 -24.5 -10.5t-26.5 -5.5q-10 0 -18 5t-13 18q-8 22 -9.5 43.5t-0.5 44.5q1 28 3 63t5.5 70.5t9 68.5t12.5 58q2 5 9.5 7.5t15.5 2.5q13 0 17 -3q5 -3 6.5 -9.5t1 -14.5t-2 -15.5t-1.5 -12.5q-6 -66 -14 -133.5
t-3 -127.5q1 -8 1.5 -11.5t5.5 -10.5q2 -5 7 -5q6 0 12.5 3t10.5 4z" />
    <glyph glyph-name="uni0E41" unicode="&#xe41;" horiz-adv-x="242" 
d="M117 52q5 -1 6 -4t-0.5 -6t-4.5 -5.5t-5 -3.5l-27.5 -10.5t-28.5 -5.5q-11 0 -20.5 5t-14.5 18q-11 26 -12.5 73.5t3.5 100t14 102.5t18 80q2 5 10.5 7.5t17.5 2.5q13 0 19 -3q12 -5 11.5 -18.5t-3.5 -31.5l-10.5 -67.5t-9 -71t-5 -69.5t1.5 -63q1 -8 1.5 -11.5
t5.5 -10.5q2 -5 8.5 -7t12.5 -2q4 0 7 0.5t5 0.5zM247 48q5 -1 6 -4t-0.5 -6t-4.5 -5.5t-5 -3.5l-27.5 -10.5t-28.5 -5.5q-11 0 -20.5 5t-14.5 18q-9 22 -10.5 43t-0.5 44q1 28 3 63t6 70t10 68t14 58q2 5 10.5 7.5t17.5 2.5q13 0 19 -3t7.5 -9.5t1 -14.5t-2 -15.5
t-1.5 -12.5q-7 -65 -15.5 -132.5t-3.5 -126.5q1 -8 1.5 -11.5t5.5 -10.5q2 -5 8.5 -7t12.5 -2q4 0 7 0.5t5 0.5z" />
    <glyph glyph-name="uni0E42" unicode="&#xe42;" horiz-adv-x="138" 
d="M283 715q5 -1 6.5 -5.5t1.5 -9.5t-1.5 -9.5t-4.5 -5.5q-23 -9 -45 -21.5t-45 -18.5q-12 -4 -22.5 -5t-20.5 -1q-26 0 -48.5 6t-55.5 6h-10q-10 0 -23 -2t-22.5 -5t-10.5 -5.5t13 -3.5t23.5 -1h23.5q24 -2 37 -14.5t23 -33.5q9 -35 7.5 -68.5t-3.5 -68.5
q-1 -14 -3.5 -45.5t-5 -71.5l-5 -84t-4 -82.5t-1 -67t3.5 -38.5q1 -1 4 -1q7 0 13 9.5t9 15.5q4 0 11 -4.5t13 -10.5t10 -12t2 -9q-11 -20 -31 -32.5t-41 -12.5q-28 0 -44 25q-5 8 -5.5 43t1 84t5 104.5t7 105l6 86t2.5 46.5v34.5t-3.5 31t-12.5 22t-28 8.5q-10 0 -15 -1
q-4 -1 -12 -1q-20 0 -34 10.5t-20 28.5q-2 18 7 30t24 19.5t33.5 10.5t36.5 3h14q26 -2 53 -7.5t54 -5.5h8q23 2 42 9t39 19q14 8 34 8q7 0 10 -1z" />
    <glyph glyph-name="uni0E43" unicode="&#xe43;" horiz-adv-x="197" 
d="M148 67q3 3 8 3q10 0 21.5 -9t6.5 -16q-15 -20 -30.5 -31.5t-41.5 -11.5q-10 0 -19.5 3t-16.5 12t-9 19t-2 20.5t1 21l2 20.5q5 37 9.5 82.5l9 93l9 94t8.5 83.5q4 42 7.5 92t-5.5 92q-4 17 -10.5 31t-17.5 23q-2 2 -7 2q-15 0 -27.5 -17t-22 -40t-15.5 -46t-8 -34
q-2 -9 -2 -23.5t2 -27.5t5.5 -22.5t7.5 -9.5t7.5 7t6.5 16t5 17.5t2 11.5q2 18 1.5 37t-7.5 34q-3 7 7 7q8 0 16 -2.5t10 -4.5q13 -10 18.5 -25t5.5 -32q-1 -43 -20 -74t-57 -34q-32 0 -47 21t-17 51q-2 36 5 74t23 69.5t40.5 53.5t56.5 27q5 1 10 1.5t10 0.5
q37 0 54.5 -25.5t23 -62.5t3.5 -78.5t-5 -74.5q-3 -45 -9 -99.5l-12 -110l-12 -109t-9 -96.5q-1 -10 -1 -18.5t8 -7.5q8 7 10.5 11t9.5 11z" />
    <glyph glyph-name="uni0E44" unicode="&#xe44;" horiz-adv-x="178" 
d="M132 84q1 1 7 1q8 0 20.5 -4t10.5 -11q-8 -21 -21.5 -36t-30.5 -25l-16 -4.5t-17 -2.5q-12 0 -19 8q-9 12 -13 28.5t-5 33.5t0 34.5t2 30.5q3 39 8.5 94t10.5 112.5l10 110.5t6 87q-12 -29 -22 -48.5l-25 -48.5q-2 -4 -8.5 -6t-14.5 -2q-9 0 -17.5 3t-10.5 9
q-12 30 -25 67t-25 76t-22 78t-16 73q0 5 6.5 7t15.5 2q10 0 18.5 -1.5t9.5 -3.5q7 -21 16 -53l18 -65.5l18 -64t17 -49.5l34.5 87t38.5 84q4 6 15.5 10.5t22.5 4.5q17 0 18 -10q4 -46 1 -107t-9 -125t-12.5 -123.5t-8.5 -102.5q-1 -23 -4 -55t-5 -60t-1.5 -46.5t5.5 -14.5
q5 6 9.5 12.5t9.5 15.5z" />
    <glyph glyph-name="uni0E45" unicode="&#xe45;" horiz-adv-x="193" 
d="M152 401q17 -25 24.5 -66t9.5 -90.5t-1 -103.5t-8 -105t-10.5 -94.5t-8.5 -72.5q0 -5 -6 -10t-14 -9.5t-17 -7.5t-17 -3q-15 0 -15 12q5 29 10 69.5t9.5 87t8 95t4.5 94t-1 84.5t-9 66q-20 -20 -35 -51t-21 -57q-5 -5 -16 -5t-21.5 5t-9.5 13q5 42 24 79t55 61q5 4 18 10
t27 6q13 0 20 -7z" />
    <glyph glyph-name="uni0E46" unicode="&#xe46;" horiz-adv-x="276" 
d="M253 204q1 -34 -6.5 -63.5t-42.5 -62.5q-18 -17 -36 -27t-31.5 -23.5t-20.5 -36.5t-4 -66q0 -7 -8 -10.5t-18 -3.5q-9 0 -16 3t-8 9q-3 51 3.5 77.5t19.5 41.5t31.5 26t39.5 31q21 19 34 43.5t12 50.5q-1 16 -1 35t-15 44q-11 -23 -17.5 -47.5t-14.5 -48.5
q-2 -6 -10.5 -9.5t-17.5 -3.5q-8 0 -14.5 3t-8.5 9q-5 23 -10 51t-16 48q-5 -14 -7.5 -23.5t-4 -18.5t-1.5 -21t-1 -31q0 -6 -11.5 -11.5t-21.5 -5.5q-9 0 -11 6q-3 18 -3 43t6 48t19.5 39t38.5 17q10 0 18.5 -5.5t15.5 -13.5t11.5 -18t7.5 -19l8 23.5t11 20t16.5 14
t23.5 5.5q18 0 29.5 -13t18.5 -31.5t9.5 -39t3.5 -35.5z" />
    <glyph glyph-name="uni0E47" unicode="&#xe47;" 
d="M-112 566q-17 -16 -22.5 -36.5t-0.5 -41.5q4 18 24 18q19 0 52 -19q2 -2 4 -3.5t3 -1.5q3 16 2.5 28.5t0.5 26.5q0 4 8 4t17.5 -3.5t11.5 -8.5q6 -14 10.5 -33t0.5 -35q-4 -9 -15 -13.5t-22 -4.5q-7 0 -10 1q-8 0 -16 3.5t-16 8t-16 8.5t-16 5q-3 -3 -5 -7.5t-5 -9.5
t-14.5 -9t-22.5 -4q-13 0 -16 6q-14 23 -15 48t9 54q11 33 35 47t53 14q18 0 37 -4.5t38 -12.5q5 12 4.5 25t1.5 27q1 5 8 7t16 2q8 0 15.5 -2t7.5 -7q0 -50 -14.5 -69t-34.5 -19q-16 0 -36 10l-19.5 9t-16.5 4q-13 0 -26 -12z" />
    <glyph glyph-name="uni0E48" unicode="&#xe48;" 
d="M-56 718q3 4 15 4q10 0 16 -2q10 -5 10.5 -10.5t0.5 -15.5v-22.5t-0.5 -14.5t-1.5 -14.5t-4 -22.5q-1 -5 -7 -6.5t-14 -1.5t-15.5 2.5t-7.5 7.5v26t0.5 21t2 21.5t5.5 27.5z" />
    <glyph glyph-name="uni0E49" unicode="&#xe49;" 
d="M73 693q5 0 6.5 -6.5t1.5 -14.5t-1.5 -15.5t-4.5 -9.5q-4 -2 -17.5 -7.5t-32.5 -11t-41.5 -10t-44.5 -4.5h-9.5t-9.5 1t-8 12t-1 14q12 17 22 27.5t20 30.5q5 10 4 19t-12 9h-3q-6 0 -9.5 -5t-5.5 -22q-6 0 -17.5 3.5t-13.5 10.5q-1 11 5 21t16.5 17.5t24 11.5t25.5 4
q11 0 19.5 -4t12.5 -13q14 -30 4.5 -51.5t-29.5 -41.5q15 3 31 8.5l30 10.5t24.5 9.5t13.5 6.5z" />
    <glyph glyph-name="uni0E4A" unicode="&#xe4a;" horiz-adv-x="4" 
d="M51 724q2 3 13 3q9 0 18 -2t8 -5q-6 -51 -38 -85t-77 -45h-7q-8 0 -14 1.5t-5 6.5q5 22 11.5 48t2.5 50q-3 -4 -6.5 -10t-6.5 -13t-6 -12.5t-5 -8.5q-3 -3 -11 -3q-11 0 -18 8t-14.5 15.5t-15.5 16.5v2q-1 -3 -2 -5.5t-1 -4.5q-8 -25 -7 -45q0 -10 3 -18q11 6 14 14
q5 0 15 -2t13 -7q1 -8 -7 -17t-22 -13q-3 0 -5.5 -0.5t-5.5 -0.5q-14 0 -26.5 6t-15.5 23q-2 10 0 27.5t8 35t16 30.5t24 13q6 0 9 -1q10 -3 18.5 -15.5t18.5 -20.5q7 12 17 26.5t24 20.5q6 3 12 3q13 0 18.5 -12.5t6 -29.5t-2 -34t-5.5 -25q24 16 34 36.5t20 48.5z" />
    <glyph glyph-name="uni0E4B" unicode="&#xe4b;" 
d="M33 668q5 -3 3 -12.5t-4 -11.5q-5 -8 -14 -8h-43l-2 -24t-3 -24q-2 -5 -7.5 -7.5t-12.5 -2.5q-8 0 -13.5 2.5t-5.5 7.5q-2 13 -2 24.5v24.5q-14 0 -26 1t-26 4q-5 1 -7.5 6.5t-2.5 12t3 12t8 5.5q13 2 25.5 2.5t26.5 0.5q1 16 2.5 30.5t9.5 26.5q2 3 10.5 4.5t14.5 1.5
q6 -3 8 -7.5t2 -12t-1 -18t-1 -26.5q16 0 31 -2t27 -10z" />
    <glyph glyph-name="uni0E4C" unicode="&#xe4c;" 
d="M-50 589q3 1 6.5 -2t7 -7.5t5.5 -9.5t1 -8q-5 -14 -17.5 -21t-26.5 -7q-10 0 -19.5 3t-16.5 9.5t-11.5 16t-3.5 21.5q2 25 20 38t41 17q6 2 18 4l25 4t25.5 4.5t19.5 4.5l17.5 4.5t17.5 2.5q16 0 20 -13q2 -8 0.5 -8.5t-5.5 -2.5q-32 -16 -60 -20t-64 -10
q-9 -1 -20.5 -5.5t-13.5 -15.5q-1 -5 1.5 -10.5t8.5 -5.5h2q4 1 8.5 3.5t13.5 13.5z" />
    <glyph glyph-name="uni0E4D" unicode="&#xe4d;" 
d="M-11 510q7 -27 -5 -46t-32 -31q-12 -6 -27 -6q-14 0 -27.5 5.5t-22.5 19.5q-9 13 -13 34.5t0 37.5q5 20 20 28t34 8q12 0 24 -3q17 -3 32 -16.5t17 -30.5zM-67 463q10 0 13 10.5t0.5 22.5t-9.5 22.5t-17 10.5q-2 0 -8 -2q-9 -5 -9 -13q-1 -14 6 -31.5t24 -19.5z" />
    <glyph glyph-name="uni0E4E" unicode="&#xe4e;" 
d="M-15 689q4 -2 1.5 -5t-7.5 -6t-10 -5.5t-6 -2.5h-5q-19 0 -33.5 7t-31.5 7q-7 0 -16 -3q-3 -9 -3 -20t4 -21t11 -17.5t18 -9.5q5 -1 3 -4.5t-6.5 -7t-10 -6.5t-7.5 -3q-20 -5 -31.5 -17.5t-1.5 -33.5q3 -9 9 -17.5t17 -10.5q4 0 7 4t5.5 9.5t4 11.5t1.5 9q2 5 13 5t13 -5
q1 -11 -4.5 -21t-14.5 -17.5t-20.5 -11.5t-23.5 -4q-11 0 -20 3.5t-15 11.5q-11 15 -11.5 28t5.5 24.5t17 21t24 16.5q-10 7 -15 18.5t-5.5 24t3.5 25t13 21.5q12 12 26 17t28 5q20 0 39 -6t36 -14z" />
    <glyph glyph-name="uni0E4F" unicode="&#xe4f;" horiz-adv-x="321" 
d="M273 280q28 -30 35.5 -65t-1 -69.5t-31.5 -64t-56 -47.5q-20 -10 -44 -18.5t-48 -8.5q-40 0 -69.5 27.5t-38.5 64.5q-15 42 -6.5 81t31.5 69t58 47.5t73 17.5q25 0 49.5 -8t47.5 -26zM189 51q24 7 37 28t16.5 46.5t-1.5 51t-16 43.5q-13 21 -36.5 39.5t-49.5 18.5
q-22 -5 -33 -19l-10 -12.5t-9 -14.5q-11 -21 -13 -46.5t6 -48.5q5 -15 13 -31t20 -28.5t27 -20.5t32 -8h8t9 2zM204 125q0 -6 -5 -10.5t-13 -7.5t-17.5 -4.5t-18.5 -1.5q-16 0 -23 5q-6 9 -9.5 24t-5 30.5t-0.5 29.5t6 23q16 13 31 13q20 0 36.5 -23.5t18.5 -77.5z" />
    <glyph glyph-name="uni0E50" unicode="&#xe50;" horiz-adv-x="385" 
d="M255 304q28 -6 52 -24t39 -43.5t20 -56t-6 -62.5q-9 -26 -26 -49t-39 -40t-48.5 -27t-53.5 -10q-36 0 -61 12.5t-42.5 34t-27.5 50t-15 59.5q-7 44 2 75.5t29.5 51t49.5 28.5t61 9q31 0 66 -8zM184 47q58 11 83 34.5t35 55.5q5 17 -5.5 39.5t-29 42.5t-42.5 34.5
t-45 14.5q-7 0 -10 -1q-20 -6 -32 -24.5t-16 -43.5t-1 -51.5t10.5 -49.5t20 -37.5t27.5 -14.5z" />
    <glyph glyph-name="uni0E51" unicode="&#xe51;" horiz-adv-x="380" 
d="M286 320q22 -9 37.5 -27t25.5 -40t13.5 -47t1.5 -48q-5 -58 -40.5 -95.5t-89.5 -48.5q-21 -5 -59 -10.5t-74 -5.5q-21 0 -38.5 3t-28.5 11q-9 5 -9 12t4 13.5t10 11t9 4.5q11 -1 21.5 -1.5t21.5 -0.5q27 0 53 1.5t55 1.5q36 2 57 23t25 57q3 35 -8 73t-38 64
q-9 9 -24.5 15t-34.5 6q-11 0 -23 -3q-13 -3 -24 -12t-19 -21t-12 -26.5t-4 -28.5q2 -23 12.5 -42.5t33.5 -26.5q12 7 24 16t14 23q10 49 -29 72q-8 4 -8.5 7.5t3 6.5t10 4.5t12.5 1.5t10 -2q15 -6 31.5 -16t27.5 -24.5t14.5 -32t-7.5 -38.5q-17 -32 -44.5 -51t-59.5 -22
q-3 -1 -6.5 -1h-6.5q-19 0 -38 7t-34.5 19.5t-26 30.5t-12.5 39q-3 22 3 41.5t18 36t28 30t34 23.5q26 14 55.5 23t60.5 9q37 0 73 -15z" />
    <glyph glyph-name="uni0E52" unicode="&#xe52;" horiz-adv-x="399" 
d="M379 273q5 -31 6.5 -59.5t2 -56t0 -55.5t-0.5 -58q0 -9 -7.5 -15.5t-17 -11.5t-20 -7.5t-16.5 -2.5q-69 -3 -137.5 -5t-137.5 -11q-4 0 -10.5 1t-8.5 6q-3 36 -2.5 79t2.5 87t3 86.5t-2 78.5q-5 67 -42.5 103.5t-100.5 51.5q-10 3 -8.5 9.5t8 13t14.5 11.5t11 5
q47 0 77.5 -18t59.5 -54q30 -39 38.5 -87t8.5 -101.5t-0.5 -109t12.5 -109.5q49 6 99.5 9t99.5 3q0 38 2 73t-2 73q-8 -20 -20 -35t-36 -15q-19 0 -23 11q-7 12 -12.5 25l-10.5 25q-4 9 -7 15t-5 11q-7 -11 -9.5 -25t-1 -28.5t4.5 -29.5t6 -28q0 -5 -7.5 -7.5t-18.5 -2.5
q-10 0 -19 2.5t-12 7.5q-12 25 -16 50.5t2 47.5t22 38t45 21q5 1 9.5 1.5t9.5 0.5q23 0 37.5 -12t24.5 -32q11 14 25.5 30t31.5 17q3 0 11 -0.5t16.5 -2.5t15 -5.5t6.5 -8.5z" />
    <glyph glyph-name="uni0E53" unicode="&#xe53;" horiz-adv-x="331" 
d="M268 314q17 -21 26 -54t13 -70.5t4.5 -75t0.5 -67.5q0 -8 -6.5 -17t-15.5 -16t-18.5 -11.5t-16.5 -4.5q-12 0 -12 12q0 52 -1.5 105t-12.5 102q-2 7 -4 15l-4 16l-13.5 -40.5t-13.5 -42.5q-3 -9 -15.5 -17t-23.5 -8q-16 0 -17 15q-2 28 -12.5 58t-26.5 44
q-8 -19 -12.5 -40t-5.5 -42q-2 -38 3.5 -75t26.5 -63q13 27 22 56q2 5 9 8t15 3q10 0 18.5 -4t6.5 -11q-8 -47 -33 -74.5t-55 -27.5q-13 0 -22 4q-16 6 -28 23t-18.5 40t-9 49t-0.5 50q7 64 31 108.5t66 53.5q3 1 8 1q18 0 28.5 -21l21.5 -43q2 13 8.5 27t15.5 26t19.5 19.5
t22.5 7.5q16 0 31 -18z" />
    <glyph glyph-name="uni0E54" unicode="&#xe54;" horiz-adv-x="355" 
d="M313 170q27 -8 26 -30t-15 -48q-25 -40 -62 -62t-79 -22q-33 0 -65.5 15.5t-59.5 49.5q-11 14 -20 39t-13.5 53.5t-3 56t10.5 46.5q10 18 22 28t26 15.5t30 7.5l32 4q15 2 31 4.5t31 7.5q25 8 35 24.5t12 38.5t0 45.5t0 44.5q1 13 18 23.5t30 10.5q11 0 12 -8
q4 -50 6.5 -87t-5 -64t-28.5 -46.5t-65 -34.5q-27 -10 -52 -12.5l-53 -5.5q-10 0 -14.5 -8t-6 -19t-0.5 -23t2 -21q8 -47 28.5 -80t56.5 -44q6 -2 12.5 -3t14.5 -1q11 0 23 4t26 16q3 3 10 15.5t2 20.5q-5 5 -14 6.5t-20 1.5q-9 0 -18.5 -0.5t-18.5 -0.5h-10t-9 2
q-25 11 -28 37.5t2 59.5q1 5 6 6.5t12 1.5q14 0 29 -5.5t12 -13.5q-11 -29 -1.5 -37t29.5 -8q11 0 23 1t23 1q16 0 28 -3z" />
    <glyph glyph-name="uni0E55" unicode="&#xe55;" horiz-adv-x="373" 
d="M344 640q7 -16 8.5 -45.5t0 -62.5t-5 -65.5t-6.5 -53.5q17 -69 9.5 -110t-45.5 -55q-14 -5 -29.5 -7t-32.5 -2q-28 0 -55 3t-48 3q-17 0 -28 -3.5t-15 -13.5q-7 -17 -10.5 -34t0.5 -37q11 -45 47.5 -76t83.5 -31q6 0 12.5 0.5t13.5 1.5q10 0 14.5 6.5t5 16t-2.5 19.5
t-9 17q-8 10 -19.5 13.5t-24.5 4t-25.5 1.5t-22.5 6q-20 8 -25.5 25.5t-3.5 39.5q0 8 12 12.5t25 4.5q8 0 13.5 -2t6.5 -7q0 -4 -1 -10.5t-1.5 -13.5t-0.5 -12t3 -6q14 -4 34.5 -5t41 -4t38 -10.5t24.5 -25.5q12 -26 8.5 -46.5t-15.5 -35t-28.5 -23.5t-31.5 -14
q-30 -9 -72 -9q-37 0 -74 10t-60 36q-21 21 -32.5 51.5t-12 63t9 63.5t30.5 55q20 24 41.5 32.5t43.5 8.5q26 0 52 -5.5t54 -5.5q5 -2 9.5 -2h9.5q24 0 33.5 17.5t1.5 49.5q-34 -17 -67 -17q-23 0 -41 9q-21 8 -31 29t-5 48q2 18 12 31.5t24 23.5t31 15t33 5q26 0 50 -12
q-1 37 -5 72t-8 60q-1 8 11 12.5t24 4.5q8 0 14.5 -2t8.5 -7zM278 407q20 7 15.5 20t-17.5 24q-4 4 -14.5 6.5t-21.5 2.5q-14 0 -24 -6t-7 -22q2 -13 10.5 -18.5t19.5 -6.5h39z" />
    <glyph glyph-name="uni0E56" unicode="&#xe56;" horiz-adv-x="305" 
d="M241 275q25 -27 37 -57t12 -60t-12.5 -58t-36.5 -51q-22 -21 -52.5 -34t-62.5 -13q-28 0 -53.5 12t-42.5 41q-16 27 -13.5 52.5t16 45t35 31t43.5 11.5q20 0 37 -11q5 -3 7.5 -13.5t2.5 -22.5t-4 -21t-13 -9q-3 0 -14 2t-22 2q-17 0 -16 -8q0 -21 16.5 -33.5t36.5 -12.5
q24 0 48 18q27 20 28.5 54.5t-19.5 65.5q-4 6 -7.5 12t-10 11.5t-16 9t-25.5 3.5q-5 0 -10 -0.5t-11 -1.5t-18 -4.5t-24 -3.5q-20 0 -27 15q-15 34 -23 72t-14.5 77.5l-13 80t-17.5 79.5q-2 7 2 14t11 13t16 10t17 4q14 0 18 -13q13 -43 19 -80.5t10 -71.5l8 -65t12 -61
q31 14 59 14q47 0 87 -45z" />
    <glyph glyph-name="uni0E57" unicode="&#xe57;" horiz-adv-x="422" 
d="M382 520q7 -14 11 -33.5t6.5 -40.5t3.5 -42t2 -39v-48.5t-1 -53.5t-4 -53.5t-8 -48.5q-17 -70 -54.5 -112.5t-81.5 -42.5q-22 0 -43 12q-3 2 -4.5 5.5t-1.5 11.5q1 27 4 58.5t5.5 64.5t2.5 66t-4 63q-6 -7 -13 -16.5t-14.5 -18.5t-16 -15t-18.5 -6q-6 0 -15 7.5t-18 17
l-17 17.5t-12 9q-8 0 -13.5 -12.5t-7.5 -31.5t-2 -42t1.5 -44t4 -37.5t5.5 -22.5h2q9 0 27 22q7 1 15 -6t14 -16.5t8.5 -19t-0.5 -14.5q-12 -17 -33 -34t-44 -17q-20 0 -29 17q-9 15 -16 39.5t-11.5 54t-6 62t0.5 62.5t8 55.5t16 41.5q18 28 39 28q12 0 24 -8t23.5 -18.5
t21.5 -21.5t18 -16q6 8 12.5 19.5t13.5 22.5t14.5 20t15.5 13q12 6 22 6q15 0 24.5 -12t16 -30.5t9 -42t4 -46t1 -42t-0.5 -30.5l-4 -55.5l-4 -53.5q17 4 26 20t14 37.5t6.5 44t2.5 40.5q3 65 -4 137.5t-9 139.5q0 8 4.5 15t11.5 12t16 8t16 3q14 0 18 -9z" />
    <glyph glyph-name="uni0E58" unicode="&#xe58;" horiz-adv-x="356" 
d="M88 225q-5 -26 -6.5 -62t0.5 -63q6 -1 11.5 7t12 18.5t14 20.5t16.5 13q2 1 7 1q9 0 20 -5t22.5 -12.5t22 -16.5t18.5 -17q2 13 2.5 19t1.5 10.5t2.5 10t4.5 18.5q1 8 9.5 11.5t19.5 3.5q14 0 25.5 -5t11.5 -15v-37.5t-1.5 -29.5t-5 -29t-9.5 -36q-5 -16 -21.5 -23.5
t-33.5 -7.5q-14 0 -22 5q-10 6 -19.5 16t-18.5 22l-18 24t-18 22q-2 -10 -9 -26t-11 -26q-3 -7 -11 -13.5t-17.5 -11.5t-20.5 -8t-20 -3q-20 0 -23 14q-9 47 -10.5 99t7 98t28 80t50.5 45q12 4 30 4q23 0 47 -4t44 -4q19 0 29 6q15 9 18.5 30t2 45t-5 47t-2.5 37
q0 5 5.5 9.5t13 7.5t16.5 4.5t16 1.5q16 0 16 -6q2 -22 5.5 -53t4 -62.5t-2.5 -59t-15 -43.5q-14 -18 -37 -24t-49 -6q-21 0 -41.5 2t-37.5 3q-26 0 -43 -10t-25 -36z" />
    <glyph glyph-name="uni0E59" unicode="&#xe59;" horiz-adv-x="408" 
d="M322 513q0 8 6 15.5t14.5 13.5t18 10t16.5 4q15 0 15 -14q1 -58 -1 -103t-8 -81t-17 -65.5t-28 -56.5q-5 -8 -17.5 -17t-24.5 -9q-6 0 -11.5 3.5t-8.5 11.5q-11 31 -22.5 49t-31.5 39q-7 7 -13 7t-10 -5t-6 -12t-2.5 -13t0.5 -8l23.5 -58.5l24.5 -62t22 -62.5t14 -59
q2 -9 -2 -15t-10.5 -9.5t-14.5 -5.5t-15 -2q-14 0 -17 5q-12 25 -23.5 58t-26 69t-32 73.5t-40.5 71.5q-1 -7 -4 -13q-6 -22 -9.5 -49t-4.5 -55t1.5 -53.5t9.5 -45.5q3 5 8 11l10.5 12l10.5 11t7 9q6 1 14 -4.5t14.5 -13t10.5 -15.5t2 -13q-16 -38 -37 -55.5t-41 -17.5
t-36 15.5t-24 44.5q-7 27 -10.5 61t-3.5 68.5t4.5 67.5t14.5 58.5t25.5 41t36.5 15.5t46 -16q11 27 35.5 39.5t47.5 12.5q32 0 51.5 -18t33.5 -45q5 31 7 51.5t3.5 38t2 37t2.5 48.5z" />
    <glyph glyph-name="uni0E5A" unicode="&#xe5a;" horiz-adv-x="314" 
d="M215 396q0 -50 -4 -93t-9.5 -84l-11.5 -84t-10 -93q-3 -11 -18 -19t-26 -8q-12 0 -11 9q7 81 16.5 151t17.5 120q-6 -12 -15 -23.5t-20.5 -20.5t-24.5 -14.5t-25 -5.5q-23 0 -38 18q-20 24 -21.5 52.5t8 54t26.5 42.5t33 17t26 -18q4 -5 2 -10t-6 -8q-4 -4 -10 -7
q-14 -8 -22 -21.5t-10 -27.5t1 -25.5t12 -15.5q15 0 30 18t28.5 40.5t24 42.5t16.5 23q2 2 8 2t14.5 -2.5t18.5 -9.5zM243 384q1 5 8 7.5t16 2.5q8 0 15 -2t8 -7q5 -22 3.5 -45t-3.5 -45q-7 -65 -15 -129t-23 -128q-2 -6 -12.5 -9.5t-21.5 -3.5q-17 0 -17 7q5 45 12.5 88
t12.5 88t7.5 88.5t9.5 87.5z" />
    <glyph glyph-name="uni0E5B" unicode="&#xe5b;" horiz-adv-x="660" 
d="M643 218q5 -1 4 -6.5t-4.5 -11t-7.5 -9.5t-6 -3q-4 2 -17.5 4.5t-32 5t-40 4.5t-41.5 2q-32 0 -52.5 -6.5t-11.5 -24.5q3 -5 -9 -12t-23 -7q-5 0 -8 3q-8 12 -14.5 25t-14.5 25q-9 -33 -19 -59q-2 -5 -14 -13t-20 -8q-6 0 -8 5q-10 33 -21 63q-2 -9 -4.5 -22t-6 -26
t-7.5 -24.5t-9 -18.5q-17 -23 -42.5 -34.5t-52.5 -11.5q-38 0 -71.5 22.5t-45.5 70.5q-7 30 -1 60.5t22 55.5t39.5 40.5t49.5 15.5h8q26 -4 43 -25.5t20 -51.5q2 -26 -5.5 -47.5t-26.5 -31.5q-12 -8 -32 -8q-26 0 -45 13q-9 6 -11 14.5t0 17.5t6.5 17.5t9.5 14.5q3 3 9 3
q8 0 15 -3t5 -6q-8 -11 -10 -23.5t12 -18.5q6 -3 12 -3q9 0 15 10q8 13 7 30.5t-8 33t-18 26.5t-23 11t-22 -10q-21 -21 -28 -50.5t-1 -57.5t24 -49.5t46 -26.5q5 -1 9 -1.5t8 -0.5q40 0 58 46q10 26 14 54.5t9 56.5q1 8 12.5 15t20.5 7q7 0 8 -4q10 -17 17.5 -35t13.5 -36
q4 11 7 20.5l6 18.5q3 6 13.5 12.5t18.5 6.5q5 0 8 -3q11 -13 15 -19t12 -20q55 16 110 16q32 0 63 -5t64 -13z" />
    <glyph glyph-name="uniF718" unicode="&#xf718;" 
d="M-48 -246q9 -14 8 -36.5t-3 -37.5q-3 -16 -7.5 -31.5t-6.5 -32.5q-1 -5 -10 -7.5t-19 -2.5q-8 0 -14.5 1.5t-6.5 6.5q-2 20 5 41t9 41q1 8 1.5 20.5t-4.5 20.5q-5 -6 -7.5 -12.5t-5.5 -13.5q-1 -4 -10 -4q-8 0 -17.5 4t-9.5 9q-1 20 11.5 35t29.5 18q15 0 31 -2.5
t26 -16.5z" />
    <glyph glyph-name="uniF719" unicode="&#xf719;" 
d="M-69 -231q3 -8 2.5 -18.5t-0.5 -18.5q-1 -11 -1.5 -29t-3.5 -29q-5 -21 -24.5 -32t-41.5 -11q-8 0 -12 1q-23 3 -31.5 21t-7.5 39q0 11 1 28t0 28q0 1 -2 -0.5t-4.5 -4t-5 -4t-2.5 -0.5h-2q-4 0 -8.5 3t-7.5 7.5t-4 9t3 6.5q8 5 21 9.5t26 4.5q8 0 15.5 -3t11.5 -11
q8 -16 7 -35.5t-1 -36.5q0 -9 3.5 -11t11.5 -2h5q3 0 3.5 9t0.5 22t-0.5 27t1.5 24q1 6 10.5 9.5t19.5 3.5q6 0 10.5 -1t6.5 -5z" />
    <glyph glyph-name="uniF71A" unicode="&#xf71a;" 
d="M-52 -229q11 -3 17 -12.5t1 -20.5q-3 -7 -11.5 -12.5t-16.5 -5.5q-6 0 -10 3q-12 7 -16 20q-2 5 -3 11t4 11q5 3 11.5 5.5t13.5 2.5q4 0 10 -2z" />
    <glyph glyph-name="uni00FF" unicode="&#xff;" horiz-adv-x="948" 
d="M210 321q-27 2 -45 17t-28.5 36.5t-14 47t-1.5 47.5q8 65 41 128.5t71 115.5q10 14 27 14q11 0 21 -5t16.5 -13.5t7.5 -18.5t-6 -20l-37.5 -71.5t-33.5 -72.5q-4 -11 -9 -30.5t-7.5 -39t0 -33.5t13.5 -14q12 0 33 20q27 26 45 59t31.5 69t25 72.5t25.5 69.5q5 11 14 16
t20 5q16 0 29 -10.5t11 -28.5q-3 -27 -12 -64t-24 -77t-35.5 -79.5t-46 -70.5t-56.5 -50t-66 -19h-9zM899 638q18 -18 24 -38.5t3.5 -42.5t-11.5 -43t-20 -40q-18 -32 -40 -62.5t-49 -54t-59.5 -37.5t-72.5 -14q-35 0 -64 13q-7 -3 -14 -3q-14 0 -24.5 8.5t-8.5 24.5
q0 4 2 14q-1 7 2 14q8 37 23.5 72.5l30.5 70.5q8 19 15.5 39t16.5 39t20 36.5t27 31.5q8 7 18 7q14 0 24 -12q27 12 61 12q26 0 52 -9t44 -26zM833 543q4 17 0 27.5t-13 16t-21.5 7.5t-25.5 2h-8.5t-8.5 -1q-2 0 -4 0.5t-4 0.5q-8 -31 -23 -60.5t-27 -57.5l-18.5 -45.5
t-20.5 -45.5q38 2 68 21t56 54l28.5 39t21.5 42zM469 303q-4 -8 -11 -12t-15 -4q-12 0 -21.5 8t-7.5 22q7 74 36 141.5t61 133.5q6 12 14.5 35.5t20.5 46.5t27 40t34 17q9 0 16 -4q9 -3 16.5 -12t5.5 -20q1 -1 -1 -6.5t-4.5 -11.5l-5 -11.5t-2.5 -7.5q-5 -14 -11.5 -26.5
l-13.5 -26.5l-22.5 -46.5l-22.5 -47.5q-24 -51 -45.5 -104t-47.5 -104zM176 174q14 0 18 -12.5t-10 -19.5q-43 -21 -95 -34q-5 -14 -11.5 -28t-14.5 -28q-4 -7 -12 -7t-14.5 5.5t-5.5 13.5q2 22 7 39q-11 4 -13 15.5t10 18.5q4 2 7.5 3.5t7.5 3.5q2 5 3.5 10t3.5 10
q4 10 7 20t8 21q-5 0 -9.5 -0.5t-9.5 -0.5t-10.5 3t-9 8t-3 10.5t7.5 9.5q14 8 28.5 13.5t30.5 9.5q6 7 15 7q4 0 10 -2q4 1 7 1.5t7 0.5q18 4 37 6.5t38 2.5q22 0 39 -4q11 -3 16 -15.5t-10 -17.5q-23 -8 -47.5 -10t-48.5 -6q-8 -1 -16.5 -2.5t-16.5 -3.5q-4 -14 -9 -26.5
l-10 -25.5q17 4 33.5 6.5t31.5 4.5h3zM363 250q25 -1 42 -11.5t24.5 -27t4.5 -36.5t-17 -40q-10 -15 -25.5 -28.5t-33 -24t-37 -17t-39.5 -6.5q-15 0 -27 4q-31 9 -38.5 31.5t0.5 48.5q-5 6 -2 15q17 46 59 69t89 23zM373 154q6 7 9.5 16t3.5 17t-5.5 13.5t-18.5 6.5
q-23 0 -40.5 -5t-36.5 -17q0 -4 -3 -9q-16 -20 -22 -41q-4 -17 3 -23.5t18 -6.5q13 0 24 4q20 5 37.5 16.5t30.5 28.5zM640 271q7 8 17 8q11 0 18.5 -8t3.5 -21q-5 -22 -16 -42.5t-19 -42.5q-6 -18 -11 -36.5t-17 -32.5q-9 -9 -20 -9q-16 0 -24 14l-22 42.5l-22 41.5
l-18 -43.5t-19 -42.5q-2 -6 -7.5 -8.5t-11.5 -2.5q-8 0 -15 5.5t-5 15.5q8 36 21 71t28 69q3 7 9 10.5t12 3.5q17 0 25 -14q13 -20 24 -40.5l22 -40.5q2 8 4.5 16.5t4.5 16.5l16 37t22 33zM874 275q6 -1 11 -6t6.5 -11t-0.5 -11t-10 -8q-13 -5 -26 -6.5t-27 -3.5
q-2 -14 -8 -34.5t-14.5 -41t-18.5 -38.5t-21 -27q-4 -4 -10 -4q-9 0 -16.5 7.5t-2.5 16.5q-1 -2 -1 3v6q1 5 2.5 8.5l3.5 8.5q10 23 17.5 45.5l15.5 45.5q-14 -1 -29 -1.5t-29 -0.5q-7 0 -12 5t-6.5 11.5t1 12.5t9.5 8q13 3 30.5 6.5t36.5 6t37 4t32 1.5q16 0 29 -3z" />
    <glyph glyph-name="uniF71D" unicode="&#xf71d;" horiz-adv-x="469" 
d="M386 567q2 10 16 15.5t27 5.5q9 0 15 -2.5t4 -8.5q-9 -27 -21 -55.5t-27 -56.5t-32 -52t-35 -42q-4 -45 -4.5 -88.5t-0.5 -83.5t-1 -76.5t-7 -68.5q-2 -11 -19 -18t-32 -7q-16 0 -19 8q-14 49 -22 95.5t-25 94.5l-29 -101t-36 -96q-3 -6 -18 -12.5t-28 -6.5q-16 0 -16 13
q0 86 1.5 171t-4.5 171q-8 -11 -12.5 -18l-11.5 -18q-1 -6 -8 -6q-5 0 -12 3.5t-12.5 8t-9 9t-2.5 6.5l16 27t14 20t16 13t23 7q4 1 12 1q23 0 34 -11t13 -25q2 -10 2 -37t-1 -57t-1.5 -57t-0.5 -39q3 6 8 22.5l11 35.5l12 37t12 27q5 8 15 13.5t21 5.5q13 0 17 -11
q5 -12 11.5 -31l13.5 -39t13 -39t9 -31q3 41 0 82.5t-5 83.5q-21 -8 -38 -8q-22 0 -42 13t-35 42q-7 15 -9.5 33t-1.5 36t6 34.5t14 28.5q15 21 38 31.5t46 10.5q14 0 26 -3q18 -3 28.5 -15.5t16.5 -29t8 -34.5t3 -32q15 24 30 54t26 57zM214 428q11 -36 36 -36q3 0 5.5 0.5
t5.5 1.5q6 2 8 11.5t2 22.5t-2 27t-5 24q-7 24 -17 34t-20 9q-9 -1 -13.5 -12t-5.5 -26t1 -30.5t5 -25.5z" />
    <glyph glyph-name="saraamleft" horiz-adv-x="235" 
d="M183 403q25 -37 31 -83t2.5 -94.5t-12.5 -97t-14 -92.5q0 -5 -6 -10t-14 -9.5t-17 -7.5t-17 -3q-15 0 -15 12q7 44 15 86t12.5 83t4 81.5t-10.5 80.5q-20 -20 -35 -51t-21 -57q-5 -5 -16 -5t-21.5 5t-9.5 13q5 42 24 79t55 61q5 4 18 10t27 6q13 0 20 -7zM-10 530
q7 -27 -5 -46t-32 -31q-12 -6 -27 -6q-14 0 -27.5 5.5t-22.5 19.5q-9 13 -13 34t0 38q5 20 20 27.5t34 7.5q12 0 24 -2.5t22.5 -8.5t17.5 -15t9 -23zM-66 483q10 0 13 10.5t0.5 22.5t-9.5 22.5t-17 10.5q-2 0 -8 -2q-9 -5 -9 -13q-1 -14 6 -31.5t24 -19.5z" />
    <glyph glyph-name="uni25CC" unicode="&#x25cc;" horiz-adv-x="512" 
d="M257 46q10 0 17 -6q7 -7 7 -17t-7 -16.5t-17 -6.5t-16 7q-7 7 -7 16q0 11 6.5 17t16.5 6zM441 233q11 0 18 -7q6 -7 6 -16q0 -24 -24 -24q-9 0 -15 7q-7 7 -7 17q0 9 7 16q6 7 15 7zM71 233q9 0 16 -7t7 -16q0 -10 -6.5 -17t-16.5 -7q-11 0 -17.5 6.5t-6.5 17.5
q0 10 7 16.5t17 6.5zM257 418q10 0 17 -6q7 -7 7 -16q0 -10 -7 -16q-7 -7 -17 -7t-16 7q-7 6 -7 16t6.5 16t16.5 6zM126 363q24 0 24 -24q0 -10 -7 -16.5t-17 -6.5q-9 0 -16 7t-7 16q0 11 6 17.5t17 6.5zM387 363q11 0 17 -6.5t6 -17.5q0 -8 -6 -16q-7 -7 -17 -7t-17 6.5
t-7 16.5q0 24 24 24zM387 102q9 0 16 -6q7 -7 7 -17t-6 -16.5t-17 -6.5q-10 0 -17 7q-7 6 -7 16t7 17q8 6 17 6zM126 102q10 0 17 -6q7 -7 7 -17t-7 -16q-7 -7 -17 -7q-9 0 -16 7q-7 6 -7 16t7 17q8 6 16 6z" />
    <glyph glyph-name="yamakkanleftthai" 
d="M-69 689q4 -2 1.5 -5t-7.5 -6t-10 -5.5t-6 -2.5h-5q-19 0 -33.5 7t-31.5 7q-7 0 -16 -3q-3 -9 -3 -20t4 -21t11 -17.5t18 -9.5q5 -1 3 -4.5t-6.5 -7t-10 -6.5t-7.5 -3q-20 -5 -31.5 -17.5t-1.5 -33.5q3 -9 9 -17.5t17 -10.5q4 0 7 4t5.5 9.5t4 11.5t1.5 9q2 5 13 5t13 -5
q1 -11 -4.5 -21t-14.5 -17.5t-20.5 -11.5t-23.5 -4q-11 0 -20 3.5t-15 11.5q-11 15 -11.5 28t5.5 24.5t17 21t24 16.5q-10 7 -15 18.5t-5.5 24t3.5 25t13 21.5q12 12 26 17t28 5q20 0 39 -6t36 -14z" />
    <glyph glyph-name="uni200B" unicode="&#x200b;" 
 />
  </font>
</defs>
</svg>
